LibraSans-Bold.ufo
<glyph name="numbersign" format="1">
  <advance width="556"/>
  <unicode hex="0023"/>
  <outline>
    <contour>
      <point x="540" y="421" type="line"/>
      <point x="444" y="421" type="line"/>
      <point x="410" y="259" type="line"/>
      <point x="515" y="259" type="line"/>
      <point x="515" y="186" type="line"/>
      <point x="395" y="186" type="line"/>
      <point x="355" y="0" type="line"/>
      <point x="279" y="0" type="line"/>
      <point x="318" y="186" type="line"/>
      <point x="168" y="186" type="line"/>
      <point x="129" y="0" type="line"/>
      <point x="54" y="0" type="line"/>
      <point x="93" y="186" type="line"/>
      <point x="17" y="186" type="line"/>
      <point x="17" y="259" type="line"/>
      <point x="109" y="259" type="line"/>
      <point x="143" y="421" type="line"/>
      <point x="42" y="421" type="line"/>
      <point x="42" y="493" type="line"/>
      <point x="158" y="493" type="line"/>
      <point x="199" y="681" type="line"/>
      <point x="274" y="681" type="line"/>
      <point x="234" y="493" type="line"/>
      <point x="384" y="493" type="line"/>
      <point x="425" y="681" type="line"/>
      <point x="501" y="681" type="line"/>
      <point x="460" y="493" type="line"/>
      <point x="540" y="493" type="line"/>
    </contour>
    <contour>
      <point x="369" y="421" type="line"/>
      <point x="219" y="421" type="line"/>
      <point x="184" y="259" type="line"/>
      <point x="335" y="259" type="line"/>
    </contour>
  </outline>
</glyph>
<glyph name="ampersand" format="1">
  <advance width="722"/>
  <unicode hex="0026"/>
  <outline>
    <contour>
      <point x="44" y="188" type="curve" smooth="yes"/>
      <point x="44" y="276"/>
      <point x="94" y="344"/>
      <point x="209" y="397" type="curve"/>
      <point x="185" y="446"/>
      <point x="173" y="491"/>
      <point x="173" y="533" type="curve" smooth="yes"/>
      <point x="173" y="634"/>
      <point x="240" y="692"/>
      <point x="357" y="692" type="curve" smooth="yes"/>
      <point x="466" y="692"/>
      <point x="534" y="636"/>
      <point x="534" y="547" type="curve" smooth="yes"/>
      <point x="534" y="522"/>
      <point x="528" y="499"/>
      <point x="515" y="479" type="curve" smooth="yes"/>
      <point x="502" y="459"/>
      <point x="484" y="440"/>
      <point x="461" y="423" type="curve" smooth="yes"/>
      <point x="438" y="406"/>
      <point x="398" y="384"/>
      <point x="343" y="358" type="curve"/>
      <point x="375" y="301"/>
      <point x="415" y="246"/>
      <point x="462" y="194" type="curve"/>
      <point x="496" y="245"/>
      <point x="522" y="304"/>
      <point x="539" y="371" type="curve"/>
      <point x="641" y="337" type="line"/>
      <point x="619" y="261"/>
      <point x="588" y="193"/>
      <point x="547" y="132" type="curve"/>
      <point x="575" y="108"/>
      <point x="604" y="96"/>
      <point x="634" y="96" type="curve" smooth="yes"/>
      <point x="655" y="96"/>
      <point x="674" y="99"/>
      <point x="691" y="104" type="curve"/>
      <point x="691" y="5" type="line"/>
      <point x="673" y="-2"/>
      <point x="652" y="-6"/>
      <point x="627" y="-6" type="curve" smooth="yes"/>
      <point x="571" y="-6"/>
      <point x="511" y="14"/>
      <point x="466" y="53" type="curve"/>
      <point x="411" y="11"/>
      <point x="349" y="-10"/>
      <point x="281" y="-10" type="curve" smooth="yes"/>
      <point x="130" y="-10"/>
      <point x="44" y="63"/>
    </contour>
    <contour>
      <point x="425" y="546" type="curve" smooth="yes"/>
      <point x="425" y="583"/>
      <point x="399" y="609"/>
      <point x="356" y="609" type="curve" smooth="yes"/>
      <point x="305" y="609"/>
      <point x="279" y="579"/>
      <point x="279" y="532" type="curve" smooth="yes"/>
      <point x="279" y="504"/>
      <point x="288" y="473"/>
      <point x="305" y="438" type="curve"/>
      <point x="339" y="453"/>
      <point x="363" y="465"/>
      <point x="378" y="475" type="curve" smooth="yes"/>
      <point x="409" y="495"/>
      <point x="425" y="517"/>
    </contour>
    <contour>
      <point x="385" y="120" type="curve"/>
      <point x="331" y="180"/>
      <point x="287" y="241"/>
      <point x="252" y="304" type="curve"/>
      <point x="196" y="278"/>
      <point x="168" y="240"/>
      <point x="168" y="190" type="curve" smooth="yes"/>
      <point x="168" y="126"/>
      <point x="213" y="83"/>
      <point x="286" y="83" type="curve" smooth="yes"/>
      <point x="329" y="83"/>
      <point x="364" y="101"/>
    </contour>
  </outline>
</glyph>
<glyph name="parenright" format="1">
  <advance width="333"/>
  <unicode hex="0029"/>
  <outline>
    <contour>
      <point x="138" y="-208" type="curve"/>
      <point x="1" y="-208" type="line"/>
      <point x="53" y="-131"/>
      <point x="90" y="-57"/>
      <point x="113" y="16" type="curve" smooth="yes"/>
      <point x="136" y="89"/>
      <point x="148" y="170"/>
      <point x="148" y="259" type="curve" smooth="yes"/>
      <point x="148" y="438"/>
      <point x="104" y="577"/>
      <point x="1" y="725" type="curve"/>
      <point x="138" y="725" type="line"/>
      <point x="189" y="651"/>
      <point x="226" y="577"/>
      <point x="249" y="504" type="curve" smooth="yes"/>
      <point x="272" y="431"/>
      <point x="283" y="349"/>
      <point x="283" y="259" type="curve" smooth="yes"/>
      <point x="283" y="169"/>
      <point x="272" y="87"/>
      <point x="249" y="14" type="curve" smooth="yes"/>
      <point x="226" y="-59"/>
      <point x="189" y="-133"/>
    </contour>
  </outline>
</glyph>
<glyph name="slash" format="1">
  <advance width="278"/>
  <unicode hex="002F"/>
  <outline>
    <contour>
      <point x="128" y="-20" type="line"/>
      <point x="10" y="-20" type="line"/>
      <point x="152" y="725" type="line"/>
      <point x="268" y="725" type="line"/>
    </contour>
  </outline>
</glyph>
<glyph name="zero" format="1">
  <advance width="556"/>
  <unicode hex="0030"/>
  <outline>
    <contour>
      <point x="515" y="344" type="curve" smooth="yes"/>
      <point x="515" y="112"/>
      <point x="436" y="-10"/>
      <point x="276" y="-10" type="curve" smooth="yes"/>
      <point x="119" y="-10"/>
      <point x="40" y="108"/>
      <point x="40" y="344" type="curve" smooth="yes"/>
      <point x="40" y="592"/>
      <point x="112" y="698"/>
      <point x="280" y="698" type="curve" smooth="yes"/>
      <point x="443" y="698"/>
      <point x="515" y="580"/>
    </contour>
    <contour>
      <point x="377" y="344" type="curve" smooth="yes"/>
      <point x="377" y="532"/>
      <point x="355" y="591"/>
      <point x="279" y="591" type="curve" smooth="yes"/>
      <point x="197" y="591"/>
      <point x="177" y="531"/>
      <point x="177" y="344" type="curve" smooth="yes"/>
      <point x="177" y="157"/>
      <point x="200" y="98"/>
      <point x="277" y="98" type="curve" smooth="yes"/>
      <point x="353" y="98"/>
      <point x="377" y="163"/>
    </contour>
  </outline>
</glyph>
<glyph name="two" format="1">
  <advance width="556"/>
  <unicode hex="0032"/>
  <outline>
    <contour>
      <point x="516" y="0" type="line"/>
      <point x="35" y="0" type="line"/>
      <point x="35" y="95" type="line"/>
      <point x="71" y="174"/>
      <point x="136" y="247"/>
      <point x="236" y="328" type="curve" smooth="yes"/>
      <point x="332" y="405"/>
      <point x="366" y="450"/>
      <point x="366" y="499" type="curve" smooth="yes"/>
      <point x="366" y="559"/>
      <point x="336" y="589"/>
      <point x="276" y="589" type="curve" smooth="yes"/>
      <point x="217" y="589"/>
      <point x="188" y="558"/>
      <point x="179" y="494" type="curve"/>
      <point x="41" y="502" type="line"/>
      <point x="56" y="630"/>
      <point x="138" y="698"/>
      <point x="275" y="698" type="curve" smooth="yes"/>
      <point x="423" y="698"/>
      <point x="505" y="628"/>
      <point x="505" y="505" type="curve" smooth="yes"/>
      <point x="505" y="310"/>
      <point x="249" y="241"/>
      <point x="197" y="113" type="curve"/>
      <point x="516" y="113" type="line"/>
    </contour>
  </outline>
</glyph>
<glyph name="five" format="1">
  <advance width="556"/>
  <unicode hex="0035"/>
  <outline>
    <contour>
      <point x="528" y="229" type="curve" smooth="yes"/>
      <point x="528" y="156"/>
      <point x="505" y="98"/>
      <point x="460" y="55" type="curve" smooth="yes"/>
      <point x="415" y="12"/>
      <point x="352" y="-10"/>
      <point x="273" y="-10" type="curve" smooth="yes"/>
      <point x="136" y="-10"/>
      <point x="50" y="53"/>
      <point x="31" y="172" type="curve"/>
      <point x="168" y="183" type="line"/>
      <point x="183" y="124"/>
      <point x="219" y="99"/>
      <point x="275" y="99" type="curve" smooth="yes"/>
      <point x="343" y="99"/>
      <point x="387" y="145"/>
      <point x="387" y="226" type="curve" smooth="yes"/>
      <point x="387" y="298"/>
      <point x="347" y="345"/>
      <point x="278" y="345" type="curve" smooth="yes"/>
      <point x="240" y="345"/>
      <point x="209" y="330"/>
      <point x="185" y="301" type="curve"/>
      <point x="51" y="301" type="line"/>
      <point x="75" y="688" type="line"/>
      <point x="488" y="688" type="line"/>
      <point x="488" y="586" type="line"/>
      <point x="199" y="586" type="line"/>
      <point x="188" y="412" type="line"/>
      <point x="221" y="441"/>
      <point x="263" y="456"/>
      <point x="313" y="456" type="curve" smooth="yes"/>
      <point x="444" y="456"/>
      <point x="528" y="369"/>
    </contour>
  </outline>
</glyph>
<glyph name="eight" format="1">
  <advance width="556"/>
  <unicode hex="0038"/>
  <outline>
    <contour>
      <point x="525" y="194" type="curve" smooth="yes"/>
      <point x="525" y="65"/>
      <point x="436" y="-10"/>
      <point x="279" y="-10" type="curve" smooth="yes"/>
      <point x="122" y="-10"/>
      <point x="32" y="65"/>
      <point x="32" y="193" type="curve" smooth="yes"/>
      <point x="32" y="281"/>
      <point x="87" y="345"/>
      <point x="172" y="360" type="curve"/>
      <point x="172" y="362" type="line"/>
      <point x="97" y="378"/>
      <point x="48" y="441"/>
      <point x="48" y="516" type="curve" smooth="yes"/>
      <point x="48" y="629"/>
      <point x="130" y="698"/>
      <point x="277" y="698" type="curve" smooth="yes"/>
      <point x="426" y="698"/>
      <point x="508" y="632"/>
      <point x="508" y="515" type="curve" smooth="yes"/>
      <point x="508" y="440"/>
      <point x="459" y="378"/>
      <point x="383" y="363" type="curve"/>
      <point x="383" y="361" type="line"/>
      <point x="472" y="346"/>
      <point x="525" y="286"/>
    </contour>
    <contour>
      <point x="367" y="508" type="curve" smooth="yes"/>
      <point x="367" y="573"/>
      <point x="337" y="602"/>
      <point x="277" y="602" type="curve" smooth="yes"/>
      <point x="218" y="602"/>
      <point x="188" y="571"/>
      <point x="188" y="508" type="curve" smooth="yes"/>
      <point x="188" y="442"/>
      <point x="218" y="409"/>
      <point x="278" y="409" type="curve" smooth="yes"/>
      <point x="338" y="409"/>
      <point x="367" y="437"/>
    </contour>
    <contour>
      <point x="383" y="205" type="curve" smooth="yes"/>
      <point x="383" y="277"/>
      <point x="347" y="313"/>
      <point x="276" y="313" type="curve" smooth="yes"/>
      <point x="209" y="313"/>
      <point x="173" y="274"/>
      <point x="173" y="203" type="curve" smooth="yes"/>
      <point x="173" y="123"/>
      <point x="208" y="87"/>
      <point x="280" y="87" type="curve" smooth="yes"/>
      <point x="351" y="87"/>
      <point x="383" y="122"/>
    </contour>
  </outline>
</glyph>
<glyph name="F" format="1">
  <advance width="611"/>
  <unicode hex="0046"/>
  <outline>
    <contour>
      <point x="574" y="577" type="line"/>
      <point x="211" y="577" type="line"/>
      <point x="211" y="364" type="line"/>
      <point x="563" y="364" type="line"/>
      <point x="563" y="252" type="line"/>
      <point x="211" y="252" type="line"/>
      <point x="211" y="0" type="line"/>
      <point x="67" y="0" type="line"/>
      <point x="67" y="688" type="line"/>
      <point x="574" y="688" type="line"/>
    </contour>
  </outline>
</glyph>
<glyph name="M" format="1">
  <advance width="833"/>
  <unicode hex="004D"/>
  <outline>
    <contour>
      <point x="766" y="0" type="line"/>
      <point x="638" y="0" type="line"/>
      <point x="638" y="417" type="line"/>
      <point x="638" y="445" type="line" smooth="yes"/>
      <point x="639" y="454"/>
      <point x="640" y="495"/>
      <point x="643" y="567" type="curve"/>
      <point x="620" y="480"/>
      <point x="603" y="419"/>
      <point x="592" y="384" type="curve" smooth="yes"/>
      <point x="468" y="0" type="line"/>
      <point x="365" y="0" type="line"/>
      <point x="241" y="384" type="line"/>
      <point x="189" y="567" type="line"/>
      <point x="193" y="492"/>
      <point x="195" y="442"/>
      <point x="195" y="417" type="curve" smooth="yes"/>
      <point x="195" y="0" type="line"/>
      <point x="67" y="0" type="line"/>
      <point x="67" y="688" type="line"/>
      <point x="260" y="688" type="line"/>
      <point x="383" y="303" type="line"/>
      <point x="394" y="266" type="line"/>
      <point x="417" y="174" type="line"/>
      <point x="448" y="284" type="line"/>
      <point x="574" y="688" type="line"/>
      <point x="766" y="688" type="line"/>
    </contour>
  </outline>
</glyph>
<glyph name="P" format="1">
  <advance width="667"/>
  <unicode hex="0050"/>
  <outline>
    <contour>
      <point x="633" y="470" type="curve" smooth="yes"/>
      <point x="633" y="336"/>
      <point x="536" y="242"/>
      <point x="382" y="242" type="curve" smooth="yes"/>
      <point x="211" y="242" type="line"/>
      <point x="211" y="0" type="line"/>
      <point x="67" y="0" type="line"/>
      <point x="67" y="688" type="line"/>
      <point x="376" y="688" type="line" smooth="yes"/>
      <point x="541" y="688"/>
      <point x="633" y="609"/>
    </contour>
    <contour>
      <point x="488" y="468" type="curve" smooth="yes"/>
      <point x="488" y="540"/>
      <point x="445" y="576"/>
      <point x="360" y="576" type="curve" smooth="yes"/>
      <point x="211" y="576" type="line"/>
      <point x="211" y="353" type="line"/>
      <point x="364" y="353" type="line" smooth="yes"/>
      <point x="443" y="353"/>
      <point x="488" y="393"/>
    </contour>
  </outline>
</glyph>
<glyph name="T" format="1">
  <advance width="611"/>
  <unicode hex="0054"/>
  <outline>
    <contour>
      <point x="600" y="577" type="line"/>
      <point x="377" y="577" type="line"/>
      <point x="377" y="0" type="line"/>
      <point x="233" y="0" type="line"/>
      <point x="233" y="577" type="line"/>
      <point x="11" y="577" type="line"/>
      <point x="11" y="688" type="line"/>
      <point x="600" y="688" type="line"/>
    </contour>
  </outline>
</glyph>
<glyph name="X" format="1">
  <advance width="667"/>
  <unicode hex="0058"/>
  <outline>
    <contour>
      <point x="658" y="0" type="line"/>
      <point x="507" y="0" type="line"/>
      <point x="334" y="274" type="line"/>
      <point x="161" y="0" type="line"/>
      <point x="9" y="0" type="line"/>
      <point x="247" y="362" type="line"/>
      <point x="29" y="688" type="line"/>
      <point x="181" y="688" type="line"/>
      <point x="334" y="445" type="line"/>
      <point x="487" y="688" type="line"/>
      <point x="638" y="688" type="line"/>
      <point x="429" y="362" type="line"/>
    </contour>
  </outline>
</glyph>
<glyph name="Z" format="1">
  <advance width="611"/>
  <unicode hex="005A"/>
  <outline>
    <contour>
      <point x="582" y="113" type="line"/>
      <point x="582" y="0" type="line"/>
      <point x="30" y="0" type="line"/>
      <point x="30" y="102" type="line"/>
      <point x="402" y="575" type="line"/>
      <point x="67" y="575" type="line"/>
      <point x="67" y="688" type="line"/>
      <point x="562" y="688" type="line"/>
      <point x="562" y="588" type="line"/>
      <point x="190" y="113" type="line"/>
    </contour>
  </outline>
</glyph>
<glyph name="underscore" format="1">
  <advance width="556"/>
  <unicode hex="005F"/>
  <outline>
    <contour>
      <point x="565" y="-122" type="line"/>
      <point x="-10" y="-122" type="line"/>
      <point x="-10" y="-84" type="line"/>
      <point x="565" y="-84" type="line"/>
    </contour>
  </outline>
</glyph>
<glyph name="grave" format="1">
  <advance width="333"/>
  <unicode hex="0060"/>
  <outline>
    <contour>
      <point x="281" y="578" type="line"/>
      <point x="198" y="578" type="line"/>
      <point x="32" y="712" type="line"/>
      <point x="32" y="733" type="line"/>
      <point x="158" y="733" type="line"/>
      <point x="281" y="593" type="line"/>
    </contour>
  </outline>
</glyph>
<glyph name="c" format="1">
  <advance width="556"/>
  <unicode hex="0063"/>
  <outline>
    <contour>
      <point x="290" y="-10" type="curve" smooth="yes"/>
      <point x="130" y="-10"/>
      <point x="39" y="90"/>
      <point x="39" y="261" type="curve" smooth="yes"/>
      <point x="39" y="436"/>
      <point x="131" y="538"/>
      <point x="292" y="538" type="curve" smooth="yes"/>
      <point x="416" y="538"/>
      <point x="502" y="471"/>
      <point x="523" y="362" type="curve"/>
      <point x="385" y="355" type="line"/>
      <point x="377" y="410"/>
      <point x="346" y="444"/>
      <point x="289" y="444" type="curve" smooth="yes"/>
      <point x="218" y="444"/>
      <point x="183" y="385"/>
      <point x="183" y="267" type="curve" smooth="yes"/>
      <point x="183" y="145"/>
      <point x="219" y="84"/>
      <point x="291" y="84" type="curve" smooth="yes"/>
      <point x="343" y="84"/>
      <point x="381" y="117"/>
      <point x="389" y="182" type="curve"/>
      <point x="527" y="176" type="line"/>
      <point x="513" y="67"/>
      <point x="419" y="-10"/>
    </contour>
  </outline>
</glyph>
<glyph name="j" format="1">
  <advance width="278"/>
  <unicode hex="006A"/>
  <outline>
    <contour>
      <point x="208" y="624" type="line"/>
      <point x="70" y="624" type="line"/>
      <point x="70" y="725" type="line"/>
      <point x="208" y="725" type="line"/>
    </contour>
    <contour>
      <point x="67" y="-208" type="curve" smooth="yes"/>
      <point x="35" y="-208"/>
      <point x="7" y="-206"/>
      <point x="-16" y="-203" type="curve"/>
      <point x="-16" y="-106" type="line"/>
      <point x="9" y="-108" type="line" smooth="yes"/>
      <point x="56" y="-108"/>
      <point x="70" y="-94"/>
      <point x="70" y="-29" type="curve" smooth="yes"/>
      <point x="70" y="528" type="line"/>
      <point x="208" y="528" type="line"/>
      <point x="208" y="-63" type="line" smooth="yes"/>
      <point x="208" y="-155"/>
      <point x="160" y="-208"/>
    </contour>
  </outline>
</glyph>
<glyph name="v" format="1">
  <advance width="556"/>
  <unicode hex="0076"/>
  <outline>
    <contour>
      <point x="552" y="528" type="line"/>
      <point x="357" y="0" type="line"/>
      <point x="193" y="0" type="line"/>
      <point x="4" y="528" type="line"/>
      <point x="149" y="528" type="line"/>
      <point x="241" y="233" type="line" smooth="yes"/>
      <point x="246" y="216"/>
      <point x="258" y="176"/>
      <point x="276" y="111" type="curve"/>
      <point x="279" y="124"/>
      <point x="286" y="148"/>
      <point x="296" y="181" type="curve" smooth="yes"/>
      <point x="306" y="214"/>
      <point x="343" y="330"/>
      <point x="408" y="528" type="curve"/>
    </contour>
  </outline>
</glyph>
<glyph name="braceright" format="1">
  <advance width="389"/>
  <unicode hex="007D"/>
  <outline>
    <contour>
      <point x="21" y="-208" type="line"/>
      <point x="21" y="-114" type="line"/>
      <point x="49" y="-114" type="line" smooth="yes"/>
      <point x="109" y="-114"/>
      <point x="133" y="-81"/>
      <point x="133" y="-12" type="curve" smooth="yes"/>
      <point x="133" y="135" type="line" smooth="yes"/>
      <point x="133" y="195"/>
      <point x="173" y="243"/>
      <point x="234" y="258" type="curve"/>
      <point x="234" y="260" type="line"/>
      <point x="174" y="272"/>
      <point x="133" y="320"/>
      <point x="133" y="383" type="curve" smooth="yes"/>
      <point x="133" y="530" type="line" smooth="yes"/>
      <point x="133" y="598"/>
      <point x="109" y="632"/>
      <point x="49" y="632" type="curve" smooth="yes"/>
      <point x="21" y="632" type="line"/>
      <point x="21" y="725" type="line"/>
      <point x="117" y="725" type="line" smooth="yes"/>
      <point x="208" y="725"/>
      <point x="261" y="674"/>
      <point x="261" y="579" type="curve" smooth="yes"/>
      <point x="261" y="418" type="line" smooth="yes"/>
      <point x="261" y="346"/>
      <point x="295" y="309"/>
      <point x="374" y="306" type="curve"/>
      <point x="374" y="210" type="line"/>
      <point x="295" y="209"/>
      <point x="261" y="171"/>
      <point x="261" y="99" type="curve" smooth="yes"/>
      <point x="261" y="-62" type="line" smooth="yes"/>
      <point x="261" y="-153"/>
      <point x="205" y="-208"/>
      <point x="117" y="-208" type="curve" smooth="yes"/>
    </contour>
  </outline>
</glyph>
<glyph name="asciitilde" format="1">
  <advance width="584"/>
  <unicode hex="007E"/>
  <outline>
    <contour>
      <point x="416" y="252" type="curve" smooth="yes"/>
      <point x="367" y="252"/>
      <point x="321" y="268"/>
      <point x="272" y="285" type="curve" smooth="yes"/>
      <point x="228" y="300"/>
      <point x="192" y="308"/>
      <point x="164" y="308" type="curve" smooth="yes"/>
      <point x="117" y="308"/>
      <point x="81" y="294"/>
      <point x="40" y="265" type="curve"/>
      <point x="40" y="369" type="line"/>
      <point x="77" y="396"/>
      <point x="121" y="410"/>
      <point x="172" y="410" type="curve" smooth="yes"/>
      <point x="206" y="410"/>
      <point x="245" y="402"/>
      <point x="290" y="387" type="curve" smooth="yes"/>
      <point x="333" y="372"/>
      <point x="362" y="363"/>
      <point x="378" y="359" type="curve" smooth="yes"/>
      <point x="395" y="355"/>
      <point x="410" y="353"/>
      <point x="425" y="353" type="curve" smooth="yes"/>
      <point x="469" y="353"/>
      <point x="509" y="368"/>
      <point x="546" y="398" type="curve"/>
      <point x="546" y="291" type="line"/>
      <point x="505" y="263"/>
      <point x="472" y="252"/>
    </contour>
  </outline>
</glyph>
<glyph name="yen" format="1">
  <advance width="556"/>
  <unicode hex="00A5"/>
  <outline>
    <contour>
      <point x="552" y="688" type="line"/>
      <point x="374" y="337" type="line"/>
      <point x="509" y="337" type="line"/>
      <point x="509" y="266" type="line"/>
      <point x="344" y="266" type="line"/>
      <point x="344" y="187" type="line"/>
      <point x="509" y="187" type="line"/>
      <point x="509" y="115" type="line"/>
      <point x="344" y="115" type="line"/>
      <point x="344" y="0" type="line"/>
      <point x="211" y="0" type="line"/>
      <point x="211" y="115" type="line"/>
      <point x="47" y="115" type="line"/>
      <point x="47" y="187" type="line"/>
      <point x="211" y="187" type="line"/>
      <point x="212" y="266" type="line"/>
      <point x="47" y="266" type="line"/>
      <point x="47" y="337" type="line"/>
      <point x="182" y="337" type="line"/>
      <point x="4" y="688" type="line"/>
      <point x="145" y="688" type="line"/>
      <point x="277" y="397" type="line"/>
      <point x="411" y="688" type="line"/>
    </contour>
  </outline>
</glyph>
<glyph name="copyright" format="1">
  <advance width="737"/>
  <unicode hex="00A9"/>
  <outline>
    <contour>
      <point x="722" y="345" type="curve"/>
      <point x="727" y="157"/>
      <point x="556" y="-14"/>
      <point x="369" y="-8" type="curve"/>
      <point x="174" y="-13"/>
      <point x="10" y="163"/>
      <point x="16" y="345" type="curve"/>
      <point x="11" y="533"/>
      <point x="179" y="704"/>
      <point x="369" y="698" type="curve"/>
      <point x="557" y="703"/>
      <point x="728" y="534"/>
    </contour>
    <contour>
      <point x="667" y="345" type="curve"/>
      <point x="672" y="504"/>
      <point x="527" y="646"/>
      <point x="369" y="642" type="curve"/>
      <point x="217" y="646"/>
      <point x="68" y="511"/>
      <point x="72" y="345" type="curve"/>
      <point x="67" y="187"/>
      <point x="209" y="42"/>
      <point x="369" y="47" type="curve"/>
      <point x="528" y="42"/>
      <point x="671" y="187"/>
    </contour>
    <contour>
      <point x="266" y="346" type="curve" smooth="yes"/>
      <point x="266" y="258"/>
      <point x="306" y="208"/>
      <point x="375" y="208" type="curve" smooth="yes"/>
      <point x="418" y="208"/>
      <point x="452" y="233"/>
      <point x="471" y="278" type="curve"/>
      <point x="549" y="255" type="line"/>
      <point x="512" y="174"/>
      <point x="456" y="139"/>
      <point x="375" y="139" type="curve" smooth="yes"/>
      <point x="250" y="139"/>
      <point x="178" y="215"/>
      <point x="178" y="346" type="curve" smooth="yes"/>
      <point x="178" y="478"/>
      <point x="246" y="549"/>
      <point x="371" y="549" type="curve" smooth="yes"/>
      <point x="455" y="549"/>
      <point x="512" y="513"/>
      <point x="543" y="437" type="curve"/>
      <point x="467" y="417" type="line"/>
      <point x="450" y="457"/>
      <point x="418" y="480"/>
      <point x="373" y="480" type="curve" smooth="yes"/>
      <point x="302" y="480"/>
      <point x="266" y="434"/>
    </contour>
  </outline>
</glyph>
<glyph name="ordfeminine" format="1">
  <advance width="370"/>
  <unicode hex="00AA"/>
  <outline>
    <contour>
      <point x="125" y="354" type="curve" smooth="yes"/>
      <point x="62" y="354"/>
      <point x="22" y="389"/>
      <point x="22" y="453" type="curve" smooth="yes"/>
      <point x="22" y="520"/>
      <point x="68" y="554"/>
      <point x="161" y="556" type="curve" smooth="yes"/>
      <point x="232" y="557" type="line"/>
      <point x="232" y="577" type="line" smooth="yes"/>
      <point x="232" y="616"/>
      <point x="215" y="635"/>
      <point x="182" y="635" type="curve" smooth="yes"/>
      <point x="149" y="635"/>
      <point x="130" y="620"/>
      <point x="127" y="589" type="curve"/>
      <point x="34" y="594" type="line"/>
      <point x="46" y="658"/>
      <point x="100" y="693"/>
      <point x="181" y="693" type="curve" smooth="yes"/>
      <point x="272" y="693"/>
      <point x="321" y="651"/>
      <point x="321" y="578" type="curve" smooth="yes"/>
      <point x="321" y="462" type="line" smooth="yes"/>
      <point x="321" y="431"/>
      <point x="325" y="415"/>
      <point x="346" y="415" type="curve" smooth="yes"/>
      <point x="370" y="417" type="line"/>
      <point x="370" y="364" type="line"/>
      <point x="349" y="358"/>
      <point x="329" y="355"/>
      <point x="312" y="355" type="curve" smooth="yes"/>
      <point x="265" y="355"/>
      <point x="239" y="381"/>
      <point x="235" y="421" type="curve"/>
      <point x="234" y="421" type="line"/>
      <point x="211" y="376"/>
      <point x="174" y="354"/>
    </contour>
    <contour>
      <point x="160" y="418" type="curve" smooth="yes"/>
      <point x="200" y="418"/>
      <point x="232" y="454"/>
      <point x="232" y="497" type="curve" smooth="yes"/>
      <point x="232" y="510" type="line"/>
      <point x="188" y="509" type="line" smooth="yes"/>
      <point x="131" y="506"/>
      <point x="114" y="492"/>
      <point x="114" y="459" type="curve" smooth="yes"/>
      <point x="114" y="432"/>
      <point x="129" y="418"/>
    </contour>
  </outline>
</glyph>
<glyph name="logicalnot" format="1">
  <advance width="584"/>
  <unicode hex="00AC"/>
  <outline>
    <contour>
      <point x="542" y="69" type="line"/>
      <point x="433" y="69" type="line"/>
      <point x="433" y="278" type="line"/>
      <point x="41" y="278" type="line"/>
      <point x="41" y="387" type="line"/>
      <point x="542" y="387" type="line"/>
    </contour>
  </outline>
</glyph>
<glyph name="uni00AD" format="1">
  <advance width="333"/>
  <unicode hex="00AD"/>
  <outline>
    <contour>
      <point x="293" y="200" type="line"/>
      <point x="39" y="200" type="line"/>
      <point x="39" y="319" type="line"/>
      <point x="293" y="319" type="line"/>
    </contour>
  </outline>
</glyph>
<glyph name="registered" format="1">
  <advance width="737"/>
  <unicode hex="00AE"/>
  <outline>
    <contour>
      <point x="722" y="345" type="curve"/>
      <point x="727" y="157"/>
      <point x="556" y="-14"/>
      <point x="369" y="-8" type="curve"/>
      <point x="174" y="-13"/>
      <point x="10" y="163"/>
      <point x="16" y="345" type="curve"/>
      <point x="11" y="533"/>
      <point x="179" y="704"/>
      <point x="369" y="698" type="curve"/>
      <point x="557" y="703"/>
      <point x="728" y="534"/>
    </contour>
    <contour>
      <point x="667" y="345" type="curve"/>
      <point x="672" y="504"/>
      <point x="527" y="646"/>
      <point x="369" y="642" type="curve"/>
      <point x="217" y="646"/>
      <point x="68" y="511"/>
      <point x="72" y="345" type="curve"/>
      <point x="67" y="187"/>
      <point x="209" y="42"/>
      <point x="369" y="47" type="curve"/>
      <point x="528" y="42"/>
      <point x="671" y="187"/>
    </contour>
    <contour>
      <point x="549" y="145" type="line"/>
      <point x="451" y="145" type="line"/>
      <point x="364" y="298" type="line"/>
      <point x="307" y="298" type="line"/>
      <point x="307" y="145" type="line"/>
      <point x="220" y="145" type="line"/>
      <point x="220" y="543" type="line"/>
      <point x="381" y="543" type="line" smooth="yes"/>
      <point x="481" y="543"/>
      <point x="530" y="498"/>
      <point x="530" y="425" type="curve" smooth="yes"/>
      <point x="530" y="364"/>
      <point x="496" y="325"/>
      <point x="445" y="309" type="curve"/>
    </contour>
    <contour>
      <point x="442" y="424" type="curve" smooth="yes"/>
      <point x="442" y="461"/>
      <point x="416" y="481"/>
      <point x="372" y="481" type="curve" smooth="yes"/>
      <point x="307" y="481" type="line"/>
      <point x="307" y="361" type="line"/>
      <point x="377" y="361" type="line" smooth="yes"/>
      <point x="420" y="361"/>
      <point x="442" y="387"/>
    </contour>
  </outline>
</glyph>
<glyph name="degree" format="1">
  <advance width="400"/>
  <unicode hex="00B0"/>
  <outline>
    <contour>
      <point x="357" y="542" type="curve" smooth="yes"/>
      <point x="357" y="500"/>
      <point x="342" y="464"/>
      <point x="311" y="433" type="curve" smooth="yes"/>
      <point x="281" y="403"/>
      <point x="244" y="388"/>
      <point x="200" y="388" type="curve" smooth="yes"/>
      <point x="157" y="388"/>
      <point x="121" y="403"/>
      <point x="90" y="432" type="curve" smooth="yes"/>
      <point x="59" y="462"/>
      <point x="44" y="499"/>
      <point x="44" y="542" type="curve" smooth="yes"/>
      <point x="44" y="627"/>
      <point x="113" y="696"/>
      <point x="200" y="696" type="curve" smooth="yes"/>
      <point x="244" y="696"/>
      <point x="281" y="681"/>
      <point x="311" y="650" type="curve" smooth="yes"/>
      <point x="342" y="620"/>
      <point x="357" y="584"/>
    </contour>
    <contour>
      <point x="280" y="542" type="curve" smooth="yes"/>
      <point x="280" y="587"/>
      <point x="245" y="623"/>
      <point x="200" y="623" type="curve" smooth="yes"/>
      <point x="155" y="623"/>
      <point x="119" y="587"/>
      <point x="119" y="542" type="curve" smooth="yes"/>
      <point x="119" y="497"/>
      <point x="156" y="460"/>
      <point x="200" y="460" type="curve" smooth="yes"/>
      <point x="244" y="460"/>
      <point x="280" y="497"/>
    </contour>
  </outline>
</glyph>
<glyph name="uni00B3" format="1">
  <advance width="333"/>
  <unicode hex="00B3"/>
  <outline>
    <contour>
      <point x="312" y="437" type="curve" smooth="yes"/>
      <point x="312" y="373"/>
      <point x="260" y="334"/>
      <point x="171" y="334" type="curve" smooth="yes"/>
      <point x="83" y="334"/>
      <point x="30" y="368"/>
      <point x="21" y="436" type="curve"/>
      <point x="114" y="441" type="line"/>
      <point x="117" y="411"/>
      <point x="136" y="396"/>
      <point x="169" y="396" type="curve" smooth="yes"/>
      <point x="202" y="396"/>
      <point x="219" y="412"/>
      <point x="219" y="443" type="curve" smooth="yes"/>
      <point x="219" y="473"/>
      <point x="196" y="488"/>
      <point x="151" y="488" type="curve" smooth="yes"/>
      <point x="124" y="488" type="line"/>
      <point x="124" y="550" type="line"/>
      <point x="149" y="550" type="line" smooth="yes"/>
      <point x="190" y="550"/>
      <point x="211" y="566"/>
      <point x="211" y="594" type="curve" smooth="yes"/>
      <point x="211" y="619"/>
      <point x="195" y="634"/>
      <point x="167" y="634" type="curve" smooth="yes"/>
      <point x="139" y="634"/>
      <point x="123" y="620"/>
      <point x="120" y="591" type="curve"/>
      <point x="29" y="597" type="line"/>
      <point x="36" y="658"/>
      <point x="89" y="696"/>
      <point x="170" y="696" type="curve" smooth="yes"/>
      <point x="253" y="696"/>
      <point x="302" y="660"/>
      <point x="302" y="604" type="curve" smooth="yes"/>
      <point x="302" y="563"/>
      <point x="280" y="532"/>
      <point x="228" y="521" type="curve"/>
      <point x="228" y="520" type="line"/>
      <point x="283" y="515"/>
      <point x="312" y="482"/>
    </contour>
  </outline>
</glyph>
<glyph name="acute" format="1">
  <advance width="333"/>
  <unicode hex="00B4"/>
  <outline>
    <contour>
      <point x="125" y="578" type="line"/>
      <point x="42" y="578" type="line"/>
      <point x="42" y="593" type="line"/>
      <point x="166" y="733" type="line"/>
      <point x="292" y="733" type="line"/>
      <point x="292" y="712" type="line"/>
    </contour>
  </outline>
</glyph>
<glyph name="mu" format="1">
  <advance width="576"/>
  <unicode hex="00B5"/>
  <outline>
    <contour>
      <point x="516" y="0" type="curve"/>
      <point x="385" y="0" type="line"/>
      <point x="381" y="33"/>
      <point x="379" y="56"/>
      <point x="379" y="70" type="curve"/>
      <point x="377" y="70" type="line"/>
      <point x="356" y="14"/>
      <point x="330" y="-10"/>
      <point x="279" y="-10" type="curve" smooth="yes"/>
      <point x="244" y="-10"/>
      <point x="218" y="7"/>
      <point x="203" y="34" type="curve"/>
      <point x="201" y="34" type="line"/>
      <point x="202" y="20"/>
      <point x="203" y="1"/>
      <point x="203" y="-22" type="curve" smooth="yes"/>
      <point x="203" y="-208" type="line"/>
      <point x="65" y="-208" type="line"/>
      <point x="65" y="528" type="line"/>
      <point x="203" y="528" type="line"/>
      <point x="203" y="233" type="line" smooth="yes"/>
      <point x="203" y="136"/>
      <point x="229" y="94"/>
      <point x="288" y="94" type="curve" smooth="yes"/>
      <point x="347" y="94"/>
      <point x="375" y="142"/>
      <point x="375" y="246" type="curve" smooth="yes"/>
      <point x="375" y="528" type="line"/>
      <point x="512" y="528" type="line"/>
      <point x="512" y="118" type="line" smooth="yes"/>
      <point x="512" y="76"/>
      <point x="513" y="37"/>
    </contour>
  </outline>
</glyph>
<glyph name="paragraph" format="1">
  <advance width="556"/>
  <unicode hex="00B6"/>
  <outline>
    <contour>
      <point x="523" y="618" type="line"/>
      <point x="459" y="618" type="line"/>
      <point x="459" y="-129" type="line"/>
      <point x="383" y="-129" type="line"/>
      <point x="383" y="618" type="line"/>
      <point x="288" y="618" type="line"/>
      <point x="288" y="-129" type="line"/>
      <point x="212" y="-129" type="line"/>
      <point x="212" y="339" type="line"/>
      <point x="101" y="339"/>
      <point x="35" y="401"/>
      <point x="35" y="512" type="curve" smooth="yes"/>
      <point x="35" y="623"/>
      <point x="103" y="688"/>
      <point x="216" y="688" type="curve" smooth="yes"/>
      <point x="523" y="688" type="line"/>
    </contour>
  </outline>
</glyph>
<glyph name="cedilla" format="1">
  <advance width="333"/>
  <unicode hex="00B8"/>
  <outline>
    <contour>
      <point x="244" y="-115" type="curve" smooth="yes"/>
      <point x="244" y="-176"/>
      <point x="192" y="-208"/>
      <point x="96" y="-208" type="curve" smooth="yes"/>
      <point x="81" y="-208"/>
      <point x="65" y="-207"/>
      <point x="47" y="-205" type="curve"/>
      <point x="47" y="-147" type="line"/>
      <point x="58" y="-149"/>
      <point x="72" y="-150"/>
      <point x="88" y="-150" type="curve" smooth="yes"/>
      <point x="133" y="-150"/>
      <point x="155" y="-139"/>
      <point x="155" y="-117" type="curve" smooth="yes"/>
      <point x="155" y="-94"/>
      <point x="138" y="-83"/>
      <point x="95" y="-83" type="curve" smooth="yes"/>
      <point x="83" y="-83"/>
      <point x="75" y="-83"/>
      <point x="70" y="-84" type="curve"/>
      <point x="100" y="0" type="line"/>
      <point x="170" y="0" type="line"/>
      <point x="154" y="-40" type="line"/>
      <point x="215" y="-43"/>
      <point x="244" y="-72"/>
    </contour>
  </outline>
</glyph>
<glyph name="ordmasculine" format="1">
  <advance width="365"/>
  <unicode hex="00BA"/>
  <outline>
    <contour>
      <point x="348" y="524" type="curve" smooth="yes"/>
      <point x="348" y="419"/>
      <point x="287" y="354"/>
      <point x="183" y="354" type="curve" smooth="yes"/>
      <point x="84" y="354"/>
      <point x="22" y="417"/>
      <point x="22" y="524" type="curve" smooth="yes"/>
      <point x="22" y="629"/>
      <point x="82" y="693"/>
      <point x="185" y="693" type="curve" smooth="yes"/>
      <point x="289" y="693"/>
      <point x="348" y="633"/>
    </contour>
    <contour>
      <point x="250" y="524" type="curve" smooth="yes"/>
      <point x="250" y="593"/>
      <point x="234" y="623"/>
      <point x="186" y="623" type="curve" smooth="yes"/>
      <point x="138" y="623"/>
      <point x="119" y="592"/>
      <point x="119" y="524" type="curve" smooth="yes"/>
      <point x="119" y="455"/>
      <point x="139" y="422"/>
      <point x="183" y="422" type="curve" smooth="yes"/>
      <point x="231" y="422"/>
      <point x="250" y="455"/>
    </contour>
  </outline>
</glyph>
<glyph name="onequarter" format="1">
  <advance width="834"/>
  <unicode hex="00BC"/>
  <outline>
    <contour>
      <point x="308" y="339" type="line"/>
      <point x="46" y="339" type="line"/>
      <point x="46" y="398" type="line"/>
      <point x="136" y="398" type="line"/>
      <point x="136" y="626" type="line"/>
      <point x="51" y="574" type="line"/>
      <point x="51" y="633" type="line"/>
      <point x="139" y="690" type="line"/>
      <point x="225" y="690" type="line"/>
      <point x="225" y="398" type="line"/>
      <point x="308" y="398" type="line"/>
    </contour>
    <contour>
      <point x="703" y="688" type="line"/>
      <point x="266" y="0" type="line"/>
      <point x="167" y="0" type="line"/>
      <point x="604" y="688" type="line"/>
    </contour>
    <contour>
      <point x="787" y="69" type="line"/>
      <point x="736" y="69" type="line"/>
      <point x="736" y="0" type="line"/>
      <point x="647" y="0" type="line"/>
      <point x="647" y="69" type="line"/>
      <point x="479" y="69" type="line"/>
      <point x="479" y="141" type="line"/>
      <point x="633" y="352" type="line"/>
      <point x="736" y="352" type="line"/>
      <point x="736" y="137" type="line"/>
      <point x="787" y="137" type="line"/>
    </contour>
    <contour>
      <point x="647" y="232" type="line"/>
      <point x="649" y="285" type="line"/>
      <point x="644" y="275" type="line" smooth="yes"/>
      <point x="635" y="260"/>
      <point x="626" y="245"/>
      <point x="617" y="232" type="curve" smooth="yes"/>
      <point x="548" y="137" type="line"/>
      <point x="647" y="137" type="line"/>
    </contour>
  </outline>
</glyph>
<glyph name="AE" format="1">
  <advance width="1000"/>
  <unicode hex="00C6"/>
  <outline>
    <contour>
      <point x="961" y="0" type="line"/>
      <point x="455" y="0" type="line"/>
      <point x="455" y="176" type="line"/>
      <point x="235" y="176" type="line"/>
      <point x="151" y="0" type="line"/>
      <point x="2" y="0" type="line"/>
      <point x="344" y="688" type="line"/>
      <point x="941" y="688" type="line"/>
      <point x="941" y="577" type="line"/>
      <point x="599" y="577" type="line"/>
      <point x="599" y="404" type="line"/>
      <point x="911" y="404" type="line"/>
      <point x="911" y="296" type="line"/>
      <point x="599" y="296" type="line"/>
      <point x="599" y="111" type="line"/>
      <point x="961" y="111" type="line"/>
    </contour>
    <contour>
      <point x="455" y="284" type="line"/>
      <point x="455" y="582" type="line"/>
      <point x="425" y="582" type="line"/>
      <point x="409" y="546"/>
      <point x="362" y="447"/>
      <point x="285" y="284" type="curve"/>
    </contour>
  </outline>
</glyph>
<glyph name="Ecircumflex" format="1">
  <advance width="667"/>
  <unicode hex="00CA"/>
  <outline>
    <contour>
      <point x="628" y="0" type="line"/>
      <point x="67" y="0" type="line"/>
      <point x="67" y="688" type="line"/>
      <point x="608" y="688" type="line"/>
      <point x="608" y="577" type="line"/>
      <point x="211" y="577" type="line"/>
      <point x="211" y="404" type="line"/>
      <point x="578" y="404" type="line"/>
      <point x="578" y="292" type="line"/>
      <point x="211" y="292" type="line"/>
      <point x="211" y="111" type="line"/>
      <point x="628" y="111" type="line"/>
    </contour>
    <contour>
      <point x="406" y="896" type="line"/>
      <point x="528" y="761" type="line"/>
      <point x="528" y="747" type="line"/>
      <point x="450" y="747" type="line"/>
      <point x="351" y="821" type="line"/>
      <point x="349" y="821" type="line"/>
      <point x="246" y="747" type="line"/>
      <point x="168" y="747" type="line"/>
      <point x="168" y="761" type="line"/>
      <point x="294" y="896" type="line"/>
    </contour>
  </outline>
</glyph>
<glyph name="Iacute" format="1">
  <advance width="278"/>
  <unicode hex="00CD"/>
  <outline>
    <contour>
      <point x="211" y="0" type="line"/>
      <point x="67" y="0" type="line"/>
      <point x="67" y="688" type="line"/>
      <point x="211" y="688" type="line"/>
    </contour>
    <contour>
      <point x="134" y="747" type="line"/>
      <point x="51" y="747" type="line"/>
      <point x="51" y="762" type="line"/>
      <point x="174" y="886" type="line"/>
      <point x="300" y="886" type="line"/>
      <point x="300" y="865" type="line"/>
    </contour>
  </outline>
</glyph>
<glyph name="Icircumflex" format="1">
  <advance width="278"/>
  <unicode hex="00CE"/>
  <outline>
    <contour>
      <point x="211" y="0" type="line"/>
      <point x="67" y="0" type="line"/>
      <point x="67" y="688" type="line"/>
      <point x="211" y="688" type="line"/>
    </contour>
    <contour>
      <point x="196" y="896" type="line"/>
      <point x="318" y="761" type="line"/>
      <point x="318" y="747" type="line"/>
      <point x="241" y="747" type="line"/>
      <point x="142" y="821" type="line"/>
      <point x="140" y="821" type="line"/>
      <point x="37" y="747" type="line"/>
      <point x="-42" y="747" type="line"/>
      <point x="-42" y="761" type="line"/>
      <point x="84" y="896" type="line"/>
    </contour>
  </outline>
</glyph>
<glyph name="Ntilde" format="1">
  <advance width="722"/>
  <unicode hex="00D1"/>
  <outline>
    <contour>
      <point x="655" y="0" type="line"/>
      <point x="486" y="0" type="line"/>
      <point x="186" y="530" type="line"/>
      <point x="192" y="479"/>
      <point x="195" y="437"/>
      <point x="195" y="406" type="curve" smooth="yes"/>
      <point x="195" y="0" type="line"/>
      <point x="67" y="0" type="line"/>
      <point x="67" y="688" type="line"/>
      <point x="231" y="688" type="line"/>
      <point x="536" y="154" type="line"/>
      <point x="530" y="203"/>
      <point x="527" y="248"/>
      <point x="527" y="288" type="curve" smooth="yes"/>
      <point x="527" y="688" type="line"/>
      <point x="655" y="688" type="line"/>
    </contour>
    <contour>
      <point x="442" y="747" type="curve" smooth="yes"/>
      <point x="385" y="747"/>
      <point x="324" y="807"/>
      <point x="285" y="807" type="curve" smooth="yes"/>
      <point x="258" y="807"/>
      <point x="246" y="798"/>
      <point x="237" y="747" type="curve"/>
      <point x="170" y="747" type="line"/>
      <point x="179" y="852"/>
      <point x="206" y="884"/>
      <point x="280" y="890" type="curve"/>
      <point x="339" y="890"/>
      <point x="400" y="830"/>
      <point x="437" y="830" type="curve" smooth="yes"/>
      <point x="464" y="830"/>
      <point x="477" y="842"/>
      <point x="485" y="890" type="curve"/>
      <point x="551" y="890" type="line"/>
      <point x="547" y="787"/>
      <point x="510" y="747"/>
    </contour>
  </outline>
</glyph>
<glyph name="Yacute" format="1">
  <advance width="667"/>
  <unicode hex="00DD"/>
  <outline>
    <contour>
      <point x="651" y="688" type="line"/>
      <point x="406" y="282" type="line"/>
      <point x="406" y="0" type="line"/>
      <point x="262" y="0" type="line"/>
      <point x="262" y="282" type="line"/>
      <point x="17" y="688" type="line"/>
      <point x="168" y="688" type="line"/>
      <point x="333" y="397" type="line"/>
      <point x="500" y="688" type="line"/>
    </contour>
    <contour>
      <point x="339" y="747" type="line"/>
      <point x="256" y="747" type="line"/>
      <point x="256" y="762" type="line"/>
      <point x="379" y="886" type="line"/>
      <point x="505" y="886" type="line"/>
      <point x="505" y="865" type="line"/>
    </contour>
  </outline>
</glyph>
<glyph name="germandbls" format="1">
  <advance width="611"/>
  <unicode hex="00DF"/>
  <outline>
    <contour>
      <point x="583" y="152" type="curve" smooth="yes"/>
      <point x="583" y="47"/>
      <point x="514" y="-10"/>
      <point x="394" y="-10" type="curve" smooth="yes"/>
      <point x="346" y="-10"/>
      <point x="303" y="-3"/>
      <point x="266" y="11" type="curve"/>
      <point x="266" y="112" type="line"/>
      <point x="298" y="97"/>
      <point x="348" y="83"/>
      <point x="379" y="83" type="curve" smooth="yes"/>
      <point x="431" y="83"/>
      <point x="455" y="108"/>
      <point x="455" y="145" type="curve" smooth="yes"/>
      <point x="455" y="178"/>
      <point x="432" y="203"/>
      <point x="372" y="243" type="curve" smooth="yes"/>
      <point x="317" y="278"/>
      <point x="290" y="321"/>
      <point x="290" y="371" type="curve" smooth="yes"/>
      <point x="290" y="406"/>
      <point x="307" y="435"/>
      <point x="344" y="468" type="curve" smooth="yes"/>
      <point x="384" y="503"/>
      <point x="398" y="527"/>
      <point x="398" y="556" type="curve" smooth="yes"/>
      <point x="398" y="597"/>
      <point x="367" y="625"/>
      <point x="310" y="625" type="curve" smooth="yes"/>
      <point x="243" y="625"/>
      <point x="207" y="586"/>
      <point x="207" y="495" type="curve" smooth="yes"/>
      <point x="207" y="0" type="line"/>
      <point x="70" y="0" type="line"/>
      <point x="70" y="492" type="line" smooth="yes"/>
      <point x="70" y="644"/>
      <point x="155" y="725"/>
      <point x="312" y="725" type="curve" smooth="yes"/>
      <point x="445" y="725"/>
      <point x="528" y="662"/>
      <point x="528" y="561" type="curve" smooth="yes"/>
      <point x="528" y="455"/>
      <point x="418" y="423"/>
      <point x="418" y="382" type="curve" smooth="yes"/>
      <point x="418" y="374"/>
      <point x="421" y="366"/>
      <point x="428" y="359" type="curve" smooth="yes"/>
      <point x="435" y="352"/>
      <point x="459" y="333"/>
      <point x="500" y="302" type="curve" smooth="yes"/>
      <point x="555" y="261"/>
      <point x="583" y="211"/>
    </contour>
  </outline>
</glyph>
<glyph name="atilde" format="1">
  <advance width="556"/>
  <unicode hex="00E3"/>
  <outline>
    <contour>
      <point x="188" y="-10" type="curve" smooth="yes"/>
      <point x="85" y="-10"/>
      <point x="25" y="49"/>
      <point x="25" y="149" type="curve" smooth="yes"/>
      <point x="25" y="258"/>
      <point x="98" y="317"/>
      <point x="234" y="318" type="curve" smooth="yes"/>
      <point x="348" y="320" type="line"/>
      <point x="348" y="347" type="line" smooth="yes"/>
      <point x="348" y="416"/>
      <point x="326" y="449"/>
      <point x="271" y="449" type="curve" smooth="yes"/>
      <point x="219" y="449"/>
      <point x="199" y="428"/>
      <point x="192" y="375" type="curve"/>
      <point x="49" y="381" type="line"/>
      <point x="68" y="484"/>
      <point x="144" y="538"/>
      <point x="276" y="538" type="curve" smooth="yes"/>
      <point x="409" y="538"/>
      <point x="485" y="469"/>
      <point x="485" y="349" type="curve" smooth="yes"/>
      <point x="485" y="156" type="line" smooth="yes"/>
      <point x="485" y="97"/>
      <point x="497" y="78"/>
      <point x="528" y="78" type="curve" smooth="yes"/>
      <point x="539" y="78"/>
      <point x="549" y="79"/>
      <point x="559" y="81" type="curve"/>
      <point x="559" y="7" type="line"/>
      <point x="526" y="-1"/>
      <point x="509" y="-6"/>
      <point x="471" y="-6" type="curve" smooth="yes"/>
      <point x="402" y="-6"/>
      <point x="372" y="29"/>
      <point x="365" y="94" type="curve"/>
      <point x="362" y="94" type="line"/>
      <point x="323" y="25"/>
      <point x="265" y="-10"/>
    </contour>
    <contour>
      <point x="348" y="218" type="curve" smooth="yes"/>
      <point x="348" y="245" type="line"/>
      <point x="277" y="244" type="line" smooth="yes"/>
      <point x="245" y="243"/>
      <point x="222" y="239"/>
      <point x="209" y="233" type="curve" smooth="yes"/>
      <point x="182" y="222"/>
      <point x="168" y="199"/>
      <point x="168" y="160" type="curve" smooth="yes"/>
      <point x="168" y="111"/>
      <point x="193" y="86"/>
      <point x="232" y="86" type="curve" smooth="yes"/>
      <point x="296" y="86"/>
      <point x="348" y="146"/>
    </contour>
    <contour>
      <point x="351" y="578" type="curve" smooth="yes"/>
      <point x="295" y="578"/>
      <point x="232" y="638"/>
      <point x="194" y="638" type="curve" smooth="yes"/>
      <point x="167" y="638"/>
      <point x="155" y="627"/>
      <point x="146" y="578" type="curve"/>
      <point x="79" y="578" type="line"/>
      <point x="88" y="683"/>
      <point x="115" y="715"/>
      <point x="189" y="721" type="curve"/>
      <point x="248" y="721"/>
      <point x="309" y="661"/>
      <point x="346" y="661" type="curve" smooth="yes"/>
      <point x="371" y="661"/>
      <point x="385" y="673"/>
      <point x="394" y="721" type="curve"/>
      <point x="460" y="721" type="line"/>
      <point x="456" y="618"/>
      <point x="418" y="578"/>
    </contour>
  </outline>
</glyph>
<glyph name="aring" format="1">
  <advance width="556"/>
  <unicode hex="00E5"/>
  <outline>
    <contour>
      <point x="188" y="-10" type="curve" smooth="yes"/>
      <point x="85" y="-10"/>
      <point x="25" y="49"/>
      <point x="25" y="149" type="curve" smooth="yes"/>
      <point x="25" y="258"/>
      <point x="98" y="317"/>
      <point x="234" y="318" type="curve" smooth="yes"/>
      <point x="348" y="320" type="line"/>
      <point x="348" y="347" type="line" smooth="yes"/>
      <point x="348" y="416"/>
      <point x="326" y="449"/>
      <point x="271" y="449" type="curve" smooth="yes"/>
      <point x="219" y="449"/>
      <point x="199" y="428"/>
      <point x="192" y="375" type="curve"/>
      <point x="49" y="381" type="line"/>
      <point x="68" y="484"/>
      <point x="144" y="538"/>
      <point x="276" y="538" type="curve" smooth="yes"/>
      <point x="409" y="538"/>
      <point x="485" y="469"/>
      <point x="485" y="349" type="curve" smooth="yes"/>
      <point x="485" y="156" type="line" smooth="yes"/>
      <point x="485" y="97"/>
      <point x="497" y="78"/>
      <point x="528" y="78" type="curve" smooth="yes"/>
      <point x="539" y="78"/>
      <point x="549" y="79"/>
      <point x="559" y="81" type="curve"/>
      <point x="559" y="7" type="line"/>
      <point x="526" y="-1"/>
      <point x="509" y="-6"/>
      <point x="471" y="-6" type="curve" smooth="yes"/>
      <point x="402" y="-6"/>
      <point x="372" y="29"/>
      <point x="365" y="94" type="curve"/>
      <point x="362" y="94" type="line"/>
      <point x="323" y="25"/>
      <point x="265" y="-10"/>
    </contour>
    <contour>
      <point x="348" y="218" type="curve" smooth="yes"/>
      <point x="348" y="245" type="line"/>
      <point x="277" y="244" type="line" smooth="yes"/>
      <point x="245" y="243"/>
      <point x="222" y="239"/>
      <point x="209" y="233" type="curve" smooth="yes"/>
      <point x="182" y="222"/>
      <point x="168" y="199"/>
      <point x="168" y="160" type="curve" smooth="yes"/>
      <point x="168" y="111"/>
      <point x="193" y="86"/>
      <point x="232" y="86" type="curve" smooth="yes"/>
      <point x="296" y="86"/>
      <point x="348" y="146"/>
    </contour>
    <contour>
      <point x="397" y="699" type="curve" smooth="yes"/>
      <point x="397" y="664"/>
      <point x="385" y="635"/>
      <point x="361" y="611" type="curve" smooth="yes"/>
      <point x="337" y="587"/>
      <point x="308" y="575"/>
      <point x="273" y="575" type="curve" smooth="yes"/>
      <point x="238" y="575"/>
      <point x="209" y="587"/>
      <point x="185" y="611" type="curve" smooth="yes"/>
      <point x="161" y="635"/>
      <point x="149" y="664"/>
      <point x="149" y="699" type="curve" smooth="yes"/>
      <point x="149" y="733"/>
      <point x="161" y="762"/>
      <point x="185" y="786" type="curve" smooth="yes"/>
      <point x="210" y="811"/>
      <point x="239" y="823"/>
      <point x="273" y="823" type="curve" smooth="yes"/>
      <point x="307" y="823"/>
      <point x="336" y="811"/>
      <point x="360" y="786" type="curve" smooth="yes"/>
      <point x="385" y="762"/>
      <point x="397" y="733"/>
    </contour>
    <contour>
      <point x="335" y="699" type="curve" smooth="yes"/>
      <point x="335" y="732"/>
      <point x="308" y="760"/>
      <point x="273" y="760" type="curve" smooth="yes"/>
      <point x="240" y="760"/>
      <point x="212" y="734"/>
      <point x="212" y="699" type="curve" smooth="yes"/>
      <point x="212" y="662"/>
      <point x="240" y="636"/>
      <point x="273" y="636" type="curve" smooth="yes"/>
      <point x="308" y="636"/>
      <point x="335" y="663"/>
    </contour>
  </outline>
</glyph>
<glyph name="ccedilla" format="1">
  <advance width="556"/>
  <unicode hex="00E7"/>
  <outline>
    <contour>
      <point x="290" y="-10" type="curve" smooth="yes"/>
      <point x="130" y="-10"/>
      <point x="39" y="90"/>
      <point x="39" y="261" type="curve" smooth="yes"/>
      <point x="39" y="436"/>
      <point x="131" y="538"/>
      <point x="292" y="538" type="curve" smooth="yes"/>
      <point x="416" y="538"/>
      <point x="502" y="471"/>
      <point x="523" y="362" type="curve"/>
      <point x="385" y="355" type="line"/>
      <point x="377" y="410"/>
      <point x="346" y="444"/>
      <point x="289" y="444" type="curve" smooth="yes"/>
      <point x="218" y="444"/>
      <point x="183" y="385"/>
      <point x="183" y="267" type="curve" smooth="yes"/>
      <point x="183" y="145"/>
      <point x="219" y="84"/>
      <point x="291" y="84" type="curve" smooth="yes"/>
      <point x="343" y="84"/>
      <point x="381" y="117"/>
      <point x="389" y="182" type="curve"/>
      <point x="527" y="176" type="line"/>
      <point x="513" y="67"/>
      <point x="419" y="-10"/>
    </contour>
    <contour>
      <point x="386" y="-115" type="curve" smooth="yes"/>
      <point x="386" y="-176"/>
      <point x="334" y="-208"/>
      <point x="238" y="-208" type="curve" smooth="yes"/>
      <point x="223" y="-208"/>
      <point x="207" y="-207"/>
      <point x="189" y="-205" type="curve"/>
      <point x="189" y="-147" type="line"/>
      <point x="200" y="-149"/>
      <point x="214" y="-150"/>
      <point x="230" y="-150" type="curve" smooth="yes"/>
      <point x="275" y="-150"/>
      <point x="297" y="-139"/>
      <point x="297" y="-117" type="curve" smooth="yes"/>
      <point x="297" y="-94"/>
      <point x="281" y="-83"/>
      <point x="237" y="-83" type="curve" smooth="yes"/>
      <point x="225" y="-83"/>
      <point x="217" y="-83"/>
      <point x="212" y="-84" type="curve"/>
      <point x="242" y="0" type="line"/>
      <point x="312" y="0" type="line"/>
      <point x="296" y="-40" type="line"/>
      <point x="357" y="-43"/>
      <point x="386" y="-72"/>
    </contour>
  </outline>
</glyph>
<glyph name="igrave" format="1">
  <advance width="278"/>
  <unicode hex="00EC"/>
  <outline>
    <contour>
      <point x="208" y="0" type="line"/>
      <point x="71" y="0" type="line"/>
      <point x="71" y="528" type="line"/>
      <point x="208" y="528" type="line"/>
    </contour>
    <contour>
      <point x="217" y="578" type="line"/>
      <point x="135" y="578" type="line"/>
      <point x="-31" y="712" type="line"/>
      <point x="-31" y="733" type="line"/>
      <point x="95" y="733" type="line"/>
      <point x="217" y="593" type="line"/>
    </contour>
  </outline>
</glyph>
<glyph name="thorn" format="1">
  <advance width="611"/>
  <unicode hex="00FE"/>
  <outline>
    <contour>
      <point x="70" y="-208" type="line"/>
      <point x="70" y="725" type="line"/>
      <point x="207" y="725" type="line"/>
      <point x="207" y="499" type="line"/>
      <point x="205" y="417" type="line"/>
      <point x="207" y="417" type="line"/>
      <point x="238" y="482"/>
      <point x="294" y="514"/>
      <point x="376" y="514" type="curve" smooth="yes"/>
      <point x="500" y="514"/>
      <point x="570" y="418"/>
      <point x="570" y="254" type="curve" smooth="yes"/>
      <point x="570" y="86"/>
      <point x="496" y="-10"/>
      <point x="367" y="-10" type="curve" smooth="yes"/>
      <point x="294" y="-10"/>
      <point x="236" y="24"/>
      <point x="207" y="84" type="curve"/>
      <point x="204" y="84" type="line"/>
      <point x="206" y="74"/>
      <point x="207" y="44"/>
      <point x="207" y="-5" type="curve" smooth="yes"/>
      <point x="207" y="-208" type="line"/>
    </contour>
    <contour>
      <point x="427" y="254" type="curve" smooth="yes"/>
      <point x="427" y="366"/>
      <point x="391" y="419"/>
      <point x="318" y="419" type="curve" smooth="yes"/>
      <point x="245" y="419"/>
      <point x="205" y="357"/>
      <point x="205" y="250" type="curve" smooth="yes"/>
      <point x="205" y="143"/>
      <point x="245" y="84"/>
      <point x="317" y="84" type="curve" smooth="yes"/>
      <point x="390" y="84"/>
      <point x="427" y="141"/>
    </contour>
  </outline>
</glyph>
<glyph name="Aogonek" format="1">
  <advance width="722"/>
  <unicode hex="0104"/>
  <outline>
    <contour>
      <point x="696" y="0" type="line"/>
      <point x="553" y="0" type="line"/>
      <point x="492" y="176" type="line"/>
      <point x="230" y="176" type="line"/>
      <point x="169" y="0" type="line"/>
      <point x="25" y="0" type="line"/>
      <point x="276" y="688" type="line"/>
      <point x="446" y="688" type="line"/>
    </contour>
    <contour>
      <point x="371" y="548" type="line"/>
      <point x="361" y="582" type="line"/>
      <point x="358" y="571" type="line"/>
      <point x="346" y="531" type="line"/>
      <point x="262" y="284" type="line"/>
      <point x="460" y="284" type="line"/>
      <point x="392" y="482" type="line"/>
    </contour>
    <contour>
      <point x="616" y="-202" type="curve" smooth="yes"/>
      <point x="544" y="-202"/>
      <point x="500" y="-164"/>
      <point x="500" y="-104" type="curve" smooth="yes"/>
      <point x="500" y="-56"/>
      <point x="531" y="-8"/>
      <point x="578" y="16" type="curve"/>
      <point x="652" y="16" type="line"/>
      <point x="612" y="-12"/>
      <point x="589" y="-52"/>
      <point x="589" y="-87" type="curve" smooth="yes"/>
      <point x="589" y="-114"/>
      <point x="606" y="-132"/>
      <point x="635" y="-132" type="curve" smooth="yes"/>
      <point x="653" y="-132"/>
      <point x="671" y="-128"/>
      <point x="690" y="-119" type="curve"/>
      <point x="690" y="-186" type="line"/>
      <point x="669" y="-197"/>
      <point x="645" y="-202"/>
    </contour>
  </outline>
</glyph>
<glyph name="Ccircumflex" format="1">
  <advance width="722"/>
  <unicode hex="0108"/>
  <outline>
    <contour>
      <point x="388" y="104" type="curve" smooth="yes"/>
      <point x="475" y="104"/>
      <point x="536" y="147"/>
      <point x="569" y="234" type="curve"/>
      <point x="695" y="187" type="line"/>
      <point x="640" y="54"/>
      <point x="535" y="-10"/>
      <point x="388" y="-10" type="curve" smooth="yes"/>
      <point x="167" y="-10"/>
      <point x="41" y="122"/>
      <point x="41" y="347" type="curve" smooth="yes"/>
      <point x="41" y="574"/>
      <point x="161" y="698"/>
      <point x="382" y="698" type="curve" smooth="yes"/>
      <point x="543" y="698"/>
      <point x="645" y="632"/>
      <point x="686" y="507" type="curve"/>
      <point x="559" y="472" type="line"/>
      <point x="538" y="541"/>
      <point x="470" y="585"/>
      <point x="385" y="585" type="curve" smooth="yes"/>
      <point x="254" y="585"/>
      <point x="186" y="503"/>
      <point x="186" y="347" type="curve" smooth="yes"/>
      <point x="186" y="190"/>
      <point x="257" y="104"/>
    </contour>
    <contour>
      <point x="449" y="896" type="line"/>
      <point x="571" y="761" type="line"/>
      <point x="571" y="747" type="line"/>
      <point x="494" y="747" type="line"/>
      <point x="395" y="821" type="line"/>
      <point x="393" y="821" type="line"/>
      <point x="290" y="747" type="line"/>
      <point x="211" y="747" type="line"/>
      <point x="211" y="761" type="line"/>
      <point x="337" y="896" type="line"/>
    </contour>
  </outline>
</glyph>
<glyph name="Dcaron" format="1">
  <advance width="722"/>
  <unicode hex="010E"/>
  <outline>
    <contour>
      <point x="680" y="349" type="curve" smooth="yes"/>
      <point x="683" y="137"/>
      <point x="543" y="-3"/>
      <point x="345" y="0" type="curve" smooth="yes"/>
      <point x="67" y="0" type="line"/>
      <point x="67" y="688" type="line"/>
      <point x="316" y="688" type="line" smooth="yes"/>
      <point x="548" y="688"/>
      <point x="680" y="568"/>
    </contour>
    <contour>
      <point x="535" y="349" type="curve" smooth="yes"/>
      <point x="535" y="497"/>
      <point x="456" y="577"/>
      <point x="313" y="577" type="curve" smooth="yes"/>
      <point x="211" y="577" type="line"/>
      <point x="211" y="111" type="line"/>
      <point x="333" y="111" type="line" smooth="yes"/>
      <point x="457" y="111"/>
      <point x="535" y="202"/>
    </contour>
    <contour>
      <point x="521" y="882" type="line"/>
      <point x="399" y="747" type="line"/>
      <point x="288" y="747" type="line"/>
      <point x="162" y="882" type="line"/>
      <point x="162" y="896" type="line"/>
      <point x="240" y="896" type="line"/>
      <point x="343" y="822" type="line"/>
      <point x="345" y="822" type="line"/>
      <point x="444" y="896" type="line"/>
      <point x="521" y="896" type="line"/>
    </contour>
  </outline>
</glyph>
<glyph name="dcroat" format="1">
  <advance width="611"/>
  <unicode hex="0111"/>
  <outline>
    <contour>
      <point x="264" y="657" type="line"/>
      <point x="404" y="657" type="line"/>
      <point x="404" y="725" type="line"/>
      <point x="542" y="725" type="line"/>
      <point x="542" y="657" type="line"/>
      <point x="606" y="657" type="line"/>
      <point x="606" y="574" type="line"/>
      <point x="542" y="574" type="line"/>
      <point x="542" y="115" type="line" smooth="yes"/>
      <point x="542" y="82"/>
      <point x="543" y="44"/>
      <point x="545" y="0" type="curve"/>
      <point x="413" y="0" type="line"/>
      <point x="412" y="5"/>
      <point x="410" y="17"/>
      <point x="408" y="36" type="curve" smooth="yes"/>
      <point x="406" y="56"/>
      <point x="405" y="73"/>
      <point x="405" y="86" type="curve"/>
      <point x="403" y="86" type="line"/>
      <point x="374" y="22"/>
      <point x="317" y="-10"/>
      <point x="234" y="-10" type="curve" smooth="yes"/>
      <point x="111" y="-10"/>
      <point x="41" y="86"/>
      <point x="41" y="254" type="curve" smooth="yes"/>
      <point x="41" y="423"/>
      <point x="113" y="519"/>
      <point x="244" y="519" type="curve" smooth="yes"/>
      <point x="319" y="519"/>
      <point x="375" y="488"/>
      <point x="404" y="425" type="curve"/>
      <point x="405" y="425" type="line"/>
      <point x="404" y="512" type="line"/>
      <point x="404" y="574" type="line"/>
      <point x="264" y="574" type="line"/>
    </contour>
    <contour>
      <point x="406" y="258" type="curve" smooth="yes"/>
      <point x="406" y="367"/>
      <point x="368" y="427"/>
      <point x="293" y="427" type="curve" smooth="yes"/>
      <point x="220" y="427"/>
      <point x="184" y="374"/>
      <point x="184" y="255" type="curve" smooth="yes"/>
      <point x="184" y="141"/>
      <point x="220" y="84"/>
      <point x="292" y="84" type="curve" smooth="yes"/>
      <point x="365" y="84"/>
      <point x="406" y="147"/>
    </contour>
  </outline>
</glyph>
<glyph name="Ecaron" format="1">
  <advance width="667"/>
  <unicode hex="011A"/>
  <outline>
    <contour>
      <point x="628" y="0" type="line"/>
      <point x="67" y="0" type="line"/>
      <point x="67" y="688" type="line"/>
      <point x="608" y="688" type="line"/>
      <point x="608" y="577" type="line"/>
      <point x="211" y="577" type="line"/>
      <point x="211" y="404" type="line"/>
      <point x="578" y="404" type="line"/>
      <point x="578" y="292" type="line"/>
      <point x="211" y="292" type="line"/>
      <point x="211" y="111" type="line"/>
      <point x="628" y="111" type="line"/>
    </contour>
    <contour>
      <point x="526" y="882" type="line"/>
      <point x="404" y="747" type="line"/>
      <point x="292" y="747" type="line"/>
      <point x="166" y="882" type="line"/>
      <point x="166" y="896" type="line"/>
      <point x="244" y="896" type="line"/>
      <point x="347" y="822" type="line"/>
      <point x="349" y="822" type="line"/>
      <point x="448" y="896" type="line"/>
      <point x="526" y="896" type="line"/>
    </contour>
  </outline>
</glyph>
<glyph name="gcircumflex" format="1">
  <advance width="611"/>
  <unicode hex="011D"/>
  <outline>
    <contour>
      <point x="291" y="-212" type="curve" smooth="yes"/>
      <point x="162" y="-212"/>
      <point x="82" y="-161"/>
      <point x="63" y="-70" type="curve"/>
      <point x="200" y="-54" type="line"/>
      <point x="211" y="-95"/>
      <point x="243" y="-122"/>
      <point x="295" y="-122" type="curve" smooth="yes"/>
      <point x="371" y="-122"/>
      <point x="405" y="-74"/>
      <point x="405" y="18" type="curve" smooth="yes"/>
      <point x="405" y="46" type="line"/>
      <point x="406" y="98" type="line"/>
      <point x="405" y="98" type="line"/>
      <point x="374" y="33"/>
      <point x="318" y="1"/>
      <point x="235" y="1" type="curve" smooth="yes"/>
      <point x="112" y="1"/>
      <point x="41" y="97"/>
      <point x="41" y="269" type="curve" smooth="yes"/>
      <point x="41" y="441"/>
      <point x="113" y="539"/>
      <point x="245" y="539" type="curve" smooth="yes"/>
      <point x="322" y="539"/>
      <point x="375" y="507"/>
      <point x="405" y="443" type="curve"/>
      <point x="407" y="443" type="line"/>
      <point x="407" y="454"/>
      <point x="408" y="470"/>
      <point x="409" y="489" type="curve" smooth="yes"/>
      <point x="411" y="509"/>
      <point x="413" y="522"/>
      <point x="414" y="528" type="curve"/>
      <point x="544" y="528" type="line"/>
      <point x="542" y="493"/>
      <point x="541" y="453"/>
      <point x="541" y="406" type="curve" smooth="yes"/>
      <point x="541" y="16" type="line" smooth="yes"/>
      <point x="541" y="-135"/>
      <point x="454" y="-212"/>
    </contour>
    <contour>
      <point x="406" y="271" type="curve" smooth="yes"/>
      <point x="406" y="380"/>
      <point x="366" y="444"/>
      <point x="294" y="444" type="curve" smooth="yes"/>
      <point x="221" y="444"/>
      <point x="184" y="386"/>
      <point x="184" y="269" type="curve" smooth="yes"/>
      <point x="184" y="154"/>
      <point x="220" y="96"/>
      <point x="293" y="96" type="curve" smooth="yes"/>
      <point x="366" y="96"/>
      <point x="406" y="160"/>
    </contour>
    <contour>
      <point x="352" y="747" type="line"/>
      <point x="474" y="591" type="line"/>
      <point x="474" y="578" type="line"/>
      <point x="396" y="578" type="line"/>
      <point x="297" y="671" type="line"/>
      <point x="295" y="671" type="line"/>
      <point x="192" y="578" type="line"/>
      <point x="114" y="578" type="line"/>
      <point x="114" y="591" type="line"/>
      <point x="240" y="747" type="line"/>
    </contour>
  </outline>
</glyph>
<glyph name="Itilde" format="1">
  <advance width="278"/>
  <unicode hex="0128"/>
  <outline>
    <contour>
      <point x="211" y="0" type="line"/>
      <point x="67" y="0" type="line"/>
      <point x="67" y="688" type="line"/>
      <point x="211" y="688" type="line"/>
    </contour>
    <contour>
      <point x="222" y="747" type="curve" smooth="yes"/>
      <point x="164" y="747"/>
      <point x="104" y="807"/>
      <point x="64" y="807" type="curve" smooth="yes"/>
      <point x="37" y="807"/>
      <point x="25" y="798"/>
      <point x="17" y="747" type="curve"/>
      <point x="-50" y="747" type="line"/>
      <point x="-47" y="784"/>
      <point x="-42" y="811"/>
      <point x="-34" y="829" type="curve" smooth="yes"/>
      <point x="-18" y="866"/>
      <point x="9" y="890"/>
      <point x="60" y="890" type="curve" smooth="yes"/>
      <point x="117" y="890"/>
      <point x="180" y="830"/>
      <point x="216" y="830" type="curve" smooth="yes"/>
      <point x="243" y="830"/>
      <point x="256" y="842"/>
      <point x="265" y="890" type="curve"/>
      <point x="331" y="890" type="line"/>
      <point x="326" y="787"/>
      <point x="289" y="747"/>
    </contour>
  </outline>
</glyph>
<glyph name="imacron" format="1">
  <advance width="278"/>
  <unicode hex="012B"/>
  <outline>
    <contour>
      <point x="208" y="0" type="line"/>
      <point x="71" y="0" type="line"/>
      <point x="71" y="528" type="line"/>
      <point x="208" y="528" type="line"/>
    </contour>
    <contour>
      <point x="-10" y="587" type="line"/>
      <point x="-10" y="669" type="line"/>
      <point x="289" y="669" type="line"/>
      <point x="289" y="587" type="line"/>
    </contour>
  </outline>
</glyph>
<glyph name="Ibreve" format="1">
  <advance width="278"/>
  <unicode hex="012C"/>
  <outline>
    <contour>
      <point x="211" y="0" type="line"/>
      <point x="67" y="0" type="line"/>
      <point x="67" y="688" type="line"/>
      <point x="211" y="688" type="line"/>
    </contour>
    <contour>
      <point x="139" y="742" type="curve" smooth="yes"/>
      <point x="92" y="742"/>
      <point x="52" y="755"/>
      <point x="20" y="781" type="curve" smooth="yes"/>
      <point x="-12" y="808"/>
      <point x="-30" y="842"/>
      <point x="-33" y="883" type="curve"/>
      <point x="46" y="883" type="line"/>
      <point x="57" y="843"/>
      <point x="93" y="816"/>
      <point x="140" y="816" type="curve" smooth="yes"/>
      <point x="187" y="816"/>
      <point x="224" y="842"/>
      <point x="232" y="883" type="curve"/>
      <point x="313" y="883" type="line"/>
      <point x="300" y="796"/>
      <point x="234" y="742"/>
    </contour>
  </outline>
</glyph>
<glyph name="ij" format="1">
  <advance width="556"/>
  <unicode hex="0133"/>
  <outline>
    <contour>
      <point x="207" y="624" type="line"/>
      <point x="70" y="624" type="line"/>
      <point x="70" y="725" type="line"/>
      <point x="207" y="725" type="line"/>
    </contour>
    <contour>
      <point x="207" y="0" type="line"/>
      <point x="70" y="0" type="line"/>
      <point x="70" y="528" type="line"/>
      <point x="207" y="528" type="line"/>
    </contour>
    <contour>
      <point x="485" y="624" type="line"/>
      <point x="348" y="624" type="line"/>
      <point x="348" y="725" type="line"/>
      <point x="485" y="725" type="line"/>
    </contour>
    <contour>
      <point x="345" y="-208" type="curve" smooth="yes"/>
      <point x="312" y="-208"/>
      <point x="285" y="-206"/>
      <point x="262" y="-203" type="curve"/>
      <point x="262" y="-106" type="line"/>
      <point x="287" y="-108" type="line" smooth="yes"/>
      <point x="334" y="-108"/>
      <point x="348" y="-94"/>
      <point x="348" y="-29" type="curve" smooth="yes"/>
      <point x="348" y="528" type="line"/>
      <point x="485" y="528" type="line"/>
      <point x="485" y="-63" type="line" smooth="yes"/>
      <point x="485" y="-155"/>
      <point x="438" y="-208"/>
    </contour>
  </outline>
</glyph>
<glyph name="kcommaaccent" format="1">
  <advance width="556"/>
  <unicode hex="0137"/>
  <outline>
    <contour>
      <point x="557" y="0" type="line"/>
      <point x="407" y="0" type="line"/>
      <point x="266" y="239" type="line"/>
      <point x="207" y="198" type="line"/>
      <point x="207" y="0" type="line"/>
      <point x="70" y="0" type="line"/>
      <point x="70" y="725" type="line"/>
      <point x="207" y="725" type="line"/>
      <point x="207" y="310" type="line"/>
      <point x="396" y="528" type="line"/>
      <point x="543" y="528" type="line"/>
      <point x="357" y="322" type="line"/>
    </contour>
    <contour>
      <point x="354" y="-38" type="line"/>
      <point x="354" y="-100" type="line" smooth="yes"/>
      <point x="354" y="-147"/>
      <point x="341" y="-182"/>
      <point x="308" y="-222" type="curve"/>
      <point x="241" y="-222" type="line"/>
      <point x="272" y="-189"/>
      <point x="287" y="-162"/>
      <point x="287" y="-139" type="curve"/>
      <point x="234" y="-139" type="line"/>
      <point x="234" y="-38" type="line"/>
    </contour>
  </outline>
</glyph>
<glyph name="Lcommaaccent" format="1">
  <advance width="611"/>
  <unicode hex="013B"/>
  <outline>
    <contour>
      <point x="580" y="0" type="line"/>
      <point x="67" y="0" type="line"/>
      <point x="67" y="688" type="line"/>
      <point x="211" y="688" type="line"/>
      <point x="211" y="111" type="line"/>
      <point x="580" y="111" type="line"/>
    </contour>
    <contour>
      <point x="370" y="-38" type="line"/>
      <point x="370" y="-100" type="line" smooth="yes"/>
      <point x="370" y="-147"/>
      <point x="357" y="-182"/>
      <point x="324" y="-222" type="curve"/>
      <point x="257" y="-222" type="line"/>
      <point x="288" y="-189"/>
      <point x="303" y="-162"/>
      <point x="303" y="-139" type="curve"/>
      <point x="250" y="-139" type="line"/>
      <point x="250" y="-38" type="line"/>
    </contour>
  </outline>
</glyph>
<glyph name="lcommaaccent" format="1">
  <advance width="278"/>
  <unicode hex="013C"/>
  <outline>
    <contour>
      <point x="207" y="0" type="line"/>
      <point x="70" y="0" type="line"/>
      <point x="70" y="725" type="line"/>
      <point x="207" y="725" type="line"/>
    </contour>
    <contour>
      <point x="198" y="-38" type="line"/>
      <point x="198" y="-100" type="line" smooth="yes"/>
      <point x="198" y="-147"/>
      <point x="185" y="-182"/>
      <point x="152" y="-222" type="curve"/>
      <point x="85" y="-222" type="line"/>
      <point x="116" y="-189"/>
      <point x="131" y="-162"/>
      <point x="131" y="-139" type="curve"/>
      <point x="79" y="-139" type="line"/>
      <point x="79" y="-38" type="line"/>
    </contour>
  </outline>
</glyph>
<glyph name="lcaron" format="1">
  <advance width="385"/>
  <unicode hex="013E"/>
  <outline>
    <contour>
      <point x="207" y="0" type="line"/>
      <point x="70" y="0" type="line"/>
      <point x="70" y="725" type="line"/>
      <point x="207" y="725" type="line"/>
    </contour>
    <contour>
      <point x="386" y="725" type="line"/>
      <point x="386" y="653" type="line" smooth="yes"/>
      <point x="386" y="606"/>
      <point x="373" y="570"/>
      <point x="340" y="531" type="curve"/>
      <point x="273" y="531" type="line"/>
      <point x="304" y="564"/>
      <point x="319" y="595"/>
      <point x="319" y="624" type="curve"/>
      <point x="266" y="624" type="line"/>
      <point x="266" y="725" type="line"/>
    </contour>
  </outline>
</glyph>
<glyph name="Ldot" format="1">
  <advance width="611"/>
  <unicode hex="013F"/>
  <outline>
    <contour>
      <point x="580" y="0" type="line"/>
      <point x="67" y="0" type="line"/>
      <point x="67" y="688" type="line"/>
      <point x="211" y="688" type="line"/>
      <point x="211" y="111" type="line"/>
      <point x="580" y="111" type="line"/>
    </contour>
    <contour>
      <point x="464" y="318" type="line"/>
      <point x="327" y="318" type="line"/>
      <point x="327" y="419" type="line"/>
      <point x="464" y="419" type="line"/>
    </contour>
  </outline>
</glyph>
<glyph name="ldot" format="1">
  <advance width="479"/>
  <unicode hex="0140"/>
  <outline>
    <contour>
      <point x="207" y="0" type="line"/>
      <point x="70" y="0" type="line"/>
      <point x="70" y="725" type="line"/>
      <point x="207" y="725" type="line"/>
    </contour>
    <contour>
      <point x="430" y="318" type="line"/>
      <point x="293" y="318" type="line"/>
      <point x="293" y="419" type="line"/>
      <point x="430" y="419" type="line"/>
    </contour>
  </outline>
</glyph>
<glyph name="Lslash" format="1">
  <advance width="611"/>
  <unicode hex="0141"/>
  <outline>
    <contour>
      <point x="580" y="0" type="line"/>
      <point x="67" y="0" type="line"/>
      <point x="67" y="236" type="line"/>
      <point x="0" y="204" type="line"/>
      <point x="0" y="314" type="line"/>
      <point x="67" y="346" type="line"/>
      <point x="67" y="688" type="line"/>
      <point x="211" y="688" type="line"/>
      <point x="211" y="415" type="line"/>
      <point x="361" y="487" type="line"/>
      <point x="361" y="378" type="line"/>
      <point x="211" y="306" type="line"/>
      <point x="211" y="113" type="line"/>
      <point x="580" y="113" type="line"/>
    </contour>
  </outline>
</glyph>
<glyph name="lslash" format="1">
  <advance width="278"/>
  <unicode hex="0142"/>
  <outline>
    <contour>
      <point x="270" y="387" type="line"/>
      <point x="207" y="350" type="line"/>
      <point x="207" y="0" type="line"/>
      <point x="70" y="0" type="line"/>
      <point x="70" y="274" type="line"/>
      <point x="9" y="240" type="line"/>
      <point x="9" y="345" type="line"/>
      <point x="70" y="379" type="line"/>
      <point x="70" y="725" type="line"/>
      <point x="207" y="725" type="line"/>
      <point x="207" y="455" type="line"/>
      <point x="270" y="491" type="line"/>
    </contour>
  </outline>
</glyph>
<glyph name="Nacute" format="1">
  <advance width="722"/>
  <unicode hex="0143"/>
  <outline>
    <contour>
      <point x="655" y="0" type="line"/>
      <point x="486" y="0" type="line"/>
      <point x="186" y="530" type="line"/>
      <point x="192" y="479"/>
      <point x="195" y="437"/>
      <point x="195" y="406" type="curve" smooth="yes"/>
      <point x="195" y="0" type="line"/>
      <point x="67" y="0" type="line"/>
      <point x="67" y="688" type="line"/>
      <point x="231" y="688" type="line"/>
      <point x="536" y="154" type="line"/>
      <point x="530" y="203"/>
      <point x="527" y="248"/>
      <point x="527" y="288" type="curve" smooth="yes"/>
      <point x="527" y="688" type="line"/>
      <point x="655" y="688" type="line"/>
    </contour>
    <contour>
      <point x="363" y="747" type="line"/>
      <point x="280" y="747" type="line"/>
      <point x="280" y="762" type="line"/>
      <point x="403" y="886" type="line"/>
      <point x="529" y="886" type="line"/>
      <point x="529" y="865" type="line"/>
    </contour>
  </outline>
</glyph>
<glyph name="Eng" format="1">
  <advance width="723"/>
  <unicode hex="014A"/>
  <outline>
    <contour>
      <point x="441" y="-10" type="curve" smooth="yes"/>
      <point x="356" y="-10"/>
      <point x="302" y="13"/>
      <point x="253" y="77" type="curve"/>
      <point x="352" y="161" type="line"/>
      <point x="385" y="116"/>
      <point x="409" y="104"/>
      <point x="440" y="104" type="curve" smooth="yes"/>
      <point x="502" y="109"/>
      <point x="522" y="136"/>
      <point x="523" y="270" type="curve" smooth="yes"/>
      <point x="523" y="414" type="line" smooth="yes"/>
      <point x="523" y="535"/>
      <point x="483" y="586"/>
      <point x="390" y="586" type="curve" smooth="yes"/>
      <point x="292" y="586"/>
      <point x="211" y="504"/>
      <point x="211" y="410" type="curve" smooth="yes"/>
      <point x="211" y="0" type="line"/>
      <point x="67" y="0" type="line"/>
      <point x="67" y="533" type="line"/>
      <point x="65" y="688" type="line"/>
      <point x="206" y="688" type="line"/>
      <point x="209" y="649"/>
      <point x="211" y="608"/>
      <point x="211" y="565" type="curve"/>
      <point x="213" y="565" type="line"/>
      <point x="256" y="648"/>
      <point x="345" y="698"/>
      <point x="446" y="698" type="curve" smooth="yes"/>
      <point x="598" y="698"/>
      <point x="662" y="618"/>
      <point x="662" y="434" type="curve" smooth="yes"/>
      <point x="662" y="265" type="line" smooth="yes"/>
      <point x="662" y="69"/>
      <point x="594" y="-10"/>
    </contour>
  </outline>
</glyph>
<glyph name="ohungarumlaut" format="1">
  <advance width="611"/>
  <unicode hex="0151"/>
  <outline>
    <contour>
      <point x="572" y="265" type="curve" smooth="yes"/>
      <point x="572" y="93"/>
      <point x="471" y="-10"/>
      <point x="303" y="-10" type="curve" smooth="yes"/>
      <point x="221" y="-10"/>
      <point x="156" y="14"/>
      <point x="109" y="63" type="curve" smooth="yes"/>
      <point x="62" y="112"/>
      <point x="39" y="180"/>
      <point x="39" y="265" type="curve" smooth="yes"/>
      <point x="39" y="434"/>
      <point x="138" y="538"/>
      <point x="306" y="538" type="curve" smooth="yes"/>
      <point x="479" y="538"/>
      <point x="572" y="441"/>
    </contour>
    <contour>
      <point x="428" y="265" type="curve" smooth="yes"/>
      <point x="428" y="390"/>
      <point x="387" y="444"/>
      <point x="308" y="444" type="curve" smooth="yes"/>
      <point x="225" y="444"/>
      <point x="183" y="384"/>
      <point x="183" y="265" type="curve" smooth="yes"/>
      <point x="183" y="146"/>
      <point x="225" y="84"/>
      <point x="302" y="84" type="curve" smooth="yes"/>
      <point x="386" y="84"/>
      <point x="428" y="144"/>
    </contour>
    <contour>
      <point x="368" y="704" type="line"/>
      <point x="212" y="578" type="line"/>
      <point x="143" y="578" type="line"/>
      <point x="143" y="595" type="line"/>
      <point x="253" y="725" type="line"/>
      <point x="368" y="725" type="line"/>
    </contour>
    <contour>
      <point x="566" y="704" type="line"/>
      <point x="411" y="578" type="line"/>
      <point x="341" y="578" type="line"/>
      <point x="341" y="595" type="line"/>
      <point x="451" y="725" type="line"/>
      <point x="566" y="725" type="line"/>
    </contour>
  </outline>
</glyph>
<glyph name="oe" format="1">
  <advance width="944"/>
  <unicode hex="0153"/>
  <outline>
    <contour>
      <point x="676" y="-10" type="curve" smooth="yes"/>
      <point x="599" y="-10"/>
      <point x="539" y="16"/>
      <point x="496" y="68" type="curve"/>
      <point x="449" y="16"/>
      <point x="384" y="-10"/>
      <point x="303" y="-10" type="curve" smooth="yes"/>
      <point x="221" y="-10"/>
      <point x="156" y="14"/>
      <point x="109" y="63" type="curve" smooth="yes"/>
      <point x="62" y="112"/>
      <point x="39" y="180"/>
      <point x="39" y="265" type="curve" smooth="yes"/>
      <point x="39" y="434"/>
      <point x="138" y="538"/>
      <point x="306" y="538" type="curve" smooth="yes"/>
      <point x="389" y="538"/>
      <point x="454" y="513"/>
      <point x="499" y="463" type="curve"/>
      <point x="542" y="513"/>
      <point x="602" y="538"/>
      <point x="678" y="538" type="curve" smooth="yes"/>
      <point x="830" y="538"/>
      <point x="912" y="435"/>
      <point x="912" y="242" type="curve" smooth="yes"/>
      <point x="912" y="232" type="line"/>
      <point x="573" y="232" type="line"/>
      <point x="573" y="137"/>
      <point x="612" y="82"/>
      <point x="683" y="82" type="curve" smooth="yes"/>
      <point x="731" y="82"/>
      <point x="761" y="103"/>
      <point x="774" y="145" type="curve"/>
      <point x="904" y="134" type="line"/>
      <point x="867" y="38"/>
      <point x="791" y="-10"/>
    </contour>
    <contour>
      <point x="428" y="265" type="curve" smooth="yes"/>
      <point x="428" y="390"/>
      <point x="387" y="444"/>
      <point x="308" y="444" type="curve" smooth="yes"/>
      <point x="225" y="444"/>
      <point x="183" y="384"/>
      <point x="183" y="265" type="curve" smooth="yes"/>
      <point x="183" y="146"/>
      <point x="225" y="84"/>
      <point x="302" y="84" type="curve" smooth="yes"/>
      <point x="386" y="84"/>
      <point x="428" y="144"/>
    </contour>
    <contour>
      <point x="676" y="452" type="curve" smooth="yes"/>
      <point x="611" y="452"/>
      <point x="575" y="404"/>
      <point x="574" y="324" type="curve"/>
      <point x="779" y="324" type="line"/>
      <point x="774" y="409"/>
      <point x="736" y="452"/>
    </contour>
  </outline>
</glyph>
<glyph name="rcommaaccent" format="1">
  <advance width="389"/>
  <unicode hex="0157"/>
  <outline>
    <contour>
      <point x="207" y="0" type="line"/>
      <point x="70" y="0" type="line"/>
      <point x="70" y="404" type="line" smooth="yes"/>
      <point x="70" y="463"/>
      <point x="67" y="499"/>
      <point x="66" y="528" type="curve"/>
      <point x="197" y="528" type="line"/>
      <point x="198" y="523"/>
      <point x="199" y="505"/>
      <point x="200" y="475" type="curve" smooth="yes"/>
      <point x="202" y="445"/>
      <point x="203" y="425"/>
      <point x="203" y="416" type="curve"/>
      <point x="205" y="416" type="line"/>
      <point x="218" y="453"/>
      <point x="230" y="479"/>
      <point x="240" y="494" type="curve" smooth="yes"/>
      <point x="261" y="525"/>
      <point x="288" y="539"/>
      <point x="332" y="539" type="curve" smooth="yes"/>
      <point x="349" y="539"/>
      <point x="363" y="536"/>
      <point x="374" y="531" type="curve"/>
      <point x="374" y="417" type="line"/>
      <point x="352" y="422"/>
      <point x="332" y="424"/>
      <point x="315" y="424" type="curve" smooth="yes"/>
      <point x="247" y="424"/>
      <point x="207" y="368"/>
      <point x="207" y="259" type="curve" smooth="yes"/>
    </contour>
    <contour>
      <point x="198" y="-38" type="line"/>
      <point x="198" y="-100" type="line" smooth="yes"/>
      <point x="198" y="-147"/>
      <point x="185" y="-182"/>
      <point x="152" y="-222" type="curve"/>
      <point x="85" y="-222" type="line"/>
      <point x="116" y="-189"/>
      <point x="131" y="-162"/>
      <point x="131" y="-139" type="curve"/>
      <point x="78" y="-139" type="line"/>
      <point x="78" y="-38" type="line"/>
    </contour>
  </outline>
</glyph>
<glyph name="rcaron" format="1">
  <advance width="389"/>
  <unicode hex="0159"/>
  <outline>
    <contour>
      <point x="207" y="0" type="line"/>
      <point x="70" y="0" type="line"/>
      <point x="70" y="404" type="line" smooth="yes"/>
      <point x="70" y="463"/>
      <point x="67" y="499"/>
      <point x="66" y="528" type="curve"/>
      <point x="197" y="528" type="line"/>
      <point x="198" y="523"/>
      <point x="199" y="505"/>
      <point x="200" y="475" type="curve" smooth="yes"/>
      <point x="202" y="445"/>
      <point x="203" y="425"/>
      <point x="203" y="416" type="curve"/>
      <point x="205" y="416" type="line"/>
      <point x="218" y="453"/>
      <point x="230" y="479"/>
      <point x="240" y="494" type="curve" smooth="yes"/>
      <point x="261" y="525"/>
      <point x="288" y="539"/>
      <point x="332" y="539" type="curve" smooth="yes"/>
      <point x="349" y="539"/>
      <point x="363" y="536"/>
      <point x="374" y="531" type="curve"/>
      <point x="374" y="417" type="line"/>
      <point x="352" y="422"/>
      <point x="332" y="424"/>
      <point x="315" y="424" type="curve" smooth="yes"/>
      <point x="247" y="424"/>
      <point x="207" y="368"/>
      <point x="207" y="259" type="curve" smooth="yes"/>
    </contour>
    <contour>
      <point x="387" y="732" type="line"/>
      <point x="265" y="578" type="line"/>
      <point x="153" y="578" type="line"/>
      <point x="27" y="732" type="line"/>
      <point x="27" y="747" type="line"/>
      <point x="105" y="747" type="line"/>
      <point x="208" y="652" type="line"/>
      <point x="210" y="652" type="line"/>
      <point x="310" y="747" type="line"/>
      <point x="387" y="747" type="line"/>
    </contour>
  </outline>
</glyph>
<glyph name="scedilla" format="1">
  <advance width="556"/>
  <unicode hex="015F"/>
  <outline>
    <contour>
      <point x="515" y="154" type="curve"/>
      <point x="515" y="53"/>
      <point x="427" y="-10"/>
      <point x="279" y="-10" type="curve" smooth="yes"/>
      <point x="134" y="-10"/>
      <point x="60" y="35"/>
      <point x="35" y="132" type="curve"/>
      <point x="156" y="150" type="line"/>
      <point x="169" y="99"/>
      <point x="195" y="81"/>
      <point x="279" y="81" type="curve" smooth="yes"/>
      <point x="355" y="81"/>
      <point x="389" y="99"/>
      <point x="389" y="142" type="curve" smooth="yes"/>
      <point x="389" y="175"/>
      <point x="364" y="194"/>
      <point x="296" y="207" type="curve" smooth="yes"/>
      <point x="219" y="222"/>
      <point x="166" y="237"/>
      <point x="139" y="250" type="curve" smooth="yes"/>
      <point x="86" y="277"/>
      <point x="56" y="318"/>
      <point x="56" y="378" type="curve" smooth="yes"/>
      <point x="56" y="479"/>
      <point x="137" y="539"/>
      <point x="280" y="539" type="curve" smooth="yes"/>
      <point x="405" y="539"/>
      <point x="484" y="488"/>
      <point x="503" y="396" type="curve"/>
      <point x="381" y="383" type="line"/>
      <point x="373" y="427"/>
      <point x="347" y="447"/>
      <point x="280" y="447" type="curve" smooth="yes"/>
      <point x="215" y="447"/>
      <point x="182" y="432"/>
      <point x="182" y="393" type="curve" smooth="yes"/>
      <point x="182" y="362"/>
      <point x="205" y="346"/>
      <point x="264" y="334" type="curve" smooth="yes"/>
      <point x="433" y="299"/>
      <point x="510" y="276"/>
    </contour>
    <contour>
      <point x="384" y="-115" type="curve" smooth="yes"/>
      <point x="384" y="-176"/>
      <point x="332" y="-208"/>
      <point x="236" y="-208" type="curve" smooth="yes"/>
      <point x="221" y="-208"/>
      <point x="205" y="-207"/>
      <point x="187" y="-205" type="curve"/>
      <point x="187" y="-147" type="line"/>
      <point x="198" y="-149"/>
      <point x="212" y="-150"/>
      <point x="228" y="-150" type="curve" smooth="yes"/>
      <point x="272" y="-150"/>
      <point x="294" y="-139"/>
      <point x="294" y="-117" type="curve" smooth="yes"/>
      <point x="294" y="-94"/>
      <point x="278" y="-83"/>
      <point x="235" y="-83" type="curve" smooth="yes"/>
      <point x="222" y="-83"/>
      <point x="214" y="-83"/>
      <point x="209" y="-84" type="curve"/>
      <point x="240" y="0" type="line"/>
      <point x="310" y="0" type="line"/>
      <point x="293" y="-40" type="line"/>
      <point x="354" y="-43"/>
      <point x="384" y="-72"/>
    </contour>
  </outline>
</glyph>
<glyph name="uni0162" format="1">
  <advance width="611"/>
  <unicode hex="0162"/>
  <outline>
    <contour>
      <point x="600" y="577" type="line"/>
      <point x="377" y="577" type="line"/>
      <point x="377" y="0" type="line"/>
      <point x="233" y="0" type="line"/>
      <point x="233" y="577" type="line"/>
      <point x="11" y="577" type="line"/>
      <point x="11" y="688" type="line"/>
      <point x="600" y="688" type="line"/>
    </contour>
    <contour>
      <point x="415" y="-115" type="curve" smooth="yes"/>
      <point x="415" y="-176"/>
      <point x="363" y="-208"/>
      <point x="267" y="-208" type="curve" smooth="yes"/>
      <point x="252" y="-208"/>
      <point x="236" y="-207"/>
      <point x="218" y="-205" type="curve"/>
      <point x="218" y="-147" type="line"/>
      <point x="229" y="-149"/>
      <point x="243" y="-150"/>
      <point x="259" y="-150" type="curve" smooth="yes"/>
      <point x="304" y="-150"/>
      <point x="326" y="-139"/>
      <point x="326" y="-117" type="curve" smooth="yes"/>
      <point x="326" y="-94"/>
      <point x="309" y="-83"/>
      <point x="266" y="-83" type="curve" smooth="yes"/>
      <point x="254" y="-83"/>
      <point x="246" y="-83"/>
      <point x="241" y="-84" type="curve"/>
      <point x="271" y="0" type="line"/>
      <point x="341" y="0" type="line"/>
      <point x="325" y="-40" type="line"/>
      <point x="386" y="-43"/>
      <point x="415" y="-72"/>
    </contour>
  </outline>
</glyph>
<glyph name="tcaron" format="1">
  <advance width="479"/>
  <unicode hex="0165"/>
  <outline>
    <contour>
      <point x="205" y="-9" type="curve" smooth="yes"/>
      <point x="125" y="-9"/>
      <point x="79" y="35"/>
      <point x="79" y="124" type="curve" smooth="yes"/>
      <point x="79" y="436" type="line"/>
      <point x="12" y="436" type="line"/>
      <point x="12" y="528" type="line"/>
      <point x="86" y="528" type="line"/>
      <point x="129" y="652" type="line"/>
      <point x="215" y="652" type="line"/>
      <point x="215" y="528" type="line"/>
      <point x="315" y="528" type="line"/>
      <point x="315" y="436" type="line"/>
      <point x="215" y="436" type="line"/>
      <point x="215" y="161" type="line" smooth="yes"/>
      <point x="215" y="110"/>
      <point x="234" y="86"/>
      <point x="275" y="86" type="curve" smooth="yes"/>
      <point x="286" y="86"/>
      <point x="301" y="88"/>
      <point x="321" y="93" type="curve"/>
      <point x="321" y="8" type="line"/>
      <point x="287" y="-3"/>
      <point x="248" y="-9"/>
    </contour>
    <contour>
      <point x="479" y="725" type="line"/>
      <point x="479" y="653" type="line" smooth="yes"/>
      <point x="479" y="606"/>
      <point x="466" y="570"/>
      <point x="433" y="531" type="curve"/>
      <point x="366" y="531" type="line"/>
      <point x="397" y="564"/>
      <point x="412" y="595"/>
      <point x="412" y="624" type="curve"/>
      <point x="359" y="624" type="line"/>
      <point x="359" y="725" type="line"/>
    </contour>
  </outline>
</glyph>
<glyph name="Tbar" format="1">
  <advance width="611"/>
  <unicode hex="0166"/>
  <outline>
    <contour>
      <point x="600" y="577" type="line"/>
      <point x="377" y="577" type="line"/>
      <point x="377" y="398" type="line"/>
      <point x="489" y="398" type="line"/>
      <point x="489" y="306" type="line"/>
      <point x="377" y="306" type="line"/>
      <point x="377" y="0" type="line"/>
      <point x="233" y="0" type="line"/>
      <point x="233" y="306" type="line"/>
      <point x="123" y="306" type="line"/>
      <point x="123" y="398" type="line"/>
      <point x="233" y="398" type="line"/>
      <point x="233" y="577" type="line"/>
      <point x="11" y="577" type="line"/>
      <point x="11" y="688" type="line"/>
      <point x="600" y="688" type="line"/>
    </contour>
  </outline>
</glyph>
<glyph name="tbar" format="1">
  <advance width="333"/>
  <unicode hex="0167"/>
  <outline>
    <contour>
      <point x="205" y="-9" type="curve" smooth="yes"/>
      <point x="125" y="-9"/>
      <point x="79" y="35"/>
      <point x="79" y="124" type="curve" smooth="yes"/>
      <point x="79" y="231" type="line"/>
      <point x="17" y="231" type="line"/>
      <point x="17" y="324" type="line"/>
      <point x="79" y="324" type="line"/>
      <point x="79" y="436" type="line"/>
      <point x="12" y="436" type="line"/>
      <point x="12" y="528" type="line"/>
      <point x="86" y="528" type="line"/>
      <point x="129" y="652" type="line"/>
      <point x="215" y="652" type="line"/>
      <point x="215" y="528" type="line"/>
      <point x="315" y="528" type="line"/>
      <point x="315" y="436" type="line"/>
      <point x="215" y="436" type="line"/>
      <point x="215" y="324" type="line"/>
      <point x="305" y="324" type="line"/>
      <point x="305" y="231" type="line"/>
      <point x="215" y="231" type="line"/>
      <point x="215" y="161" type="line" smooth="yes"/>
      <point x="215" y="110"/>
      <point x="234" y="86"/>
      <point x="275" y="86" type="curve" smooth="yes"/>
      <point x="286" y="86"/>
      <point x="301" y="88"/>
      <point x="321" y="93" type="curve"/>
      <point x="321" y="8" type="line"/>
      <point x="287" y="-3"/>
      <point x="248" y="-9"/>
    </contour>
  </outline>
</glyph>
<glyph name="Ubreve" format="1">
  <advance width="722"/>
  <unicode hex="016C"/>
  <outline>
    <contour>
      <point x="353" y="-10" type="curve" smooth="yes"/>
      <point x="164" y="-10"/>
      <point x="60" y="86"/>
      <point x="60" y="258" type="curve" smooth="yes"/>
      <point x="60" y="688" type="line"/>
      <point x="204" y="688" type="line"/>
      <point x="204" y="269" type="line" smooth="yes"/>
      <point x="204" y="161"/>
      <point x="257" y="103"/>
      <point x="357" y="103" type="curve" smooth="yes"/>
      <point x="460" y="103"/>
      <point x="517" y="163"/>
      <point x="517" y="274" type="curve" smooth="yes"/>
      <point x="517" y="688" type="line"/>
      <point x="661" y="688" type="line"/>
      <point x="661" y="265" type="line" smooth="yes"/>
      <point x="661" y="90"/>
      <point x="549" y="-10"/>
    </contour>
    <contour>
      <point x="360" y="742" type="curve" smooth="yes"/>
      <point x="313" y="742"/>
      <point x="273" y="755"/>
      <point x="241" y="781" type="curve" smooth="yes"/>
      <point x="209" y="808"/>
      <point x="191" y="842"/>
      <point x="188" y="883" type="curve"/>
      <point x="268" y="883" type="line"/>
      <point x="277" y="843"/>
      <point x="316" y="816"/>
      <point x="361" y="816" type="curve" smooth="yes"/>
      <point x="408" y="816"/>
      <point x="445" y="842"/>
      <point x="454" y="883" type="curve"/>
      <point x="534" y="883" type="line"/>
      <point x="521" y="796"/>
      <point x="455" y="742"/>
    </contour>
  </outline>
</glyph>
<glyph name="Uogonek" format="1">
  <advance width="722"/>
  <unicode hex="0172"/>
  <outline>
    <contour>
      <point x="353" y="-10" type="curve" smooth="yes"/>
      <point x="164" y="-10"/>
      <point x="60" y="86"/>
      <point x="60" y="258" type="curve" smooth="yes"/>
      <point x="60" y="688" type="line"/>
      <point x="204" y="688" type="line"/>
      <point x="204" y="269" type="line" smooth="yes"/>
      <point x="204" y="161"/>
      <point x="257" y="103"/>
      <point x="357" y="103" type="curve" smooth="yes"/>
      <point x="460" y="103"/>
      <point x="517" y="163"/>
      <point x="517" y="274" type="curve" smooth="yes"/>
      <point x="517" y="688" type="line"/>
      <point x="661" y="688" type="line"/>
      <point x="661" y="265" type="line" smooth="yes"/>
      <point x="661" y="90"/>
      <point x="549" y="-10"/>
    </contour>
    <contour>
      <point x="418" y="-208" type="curve" smooth="yes"/>
      <point x="346" y="-208"/>
      <point x="303" y="-170"/>
      <point x="303" y="-110" type="curve" smooth="yes"/>
      <point x="303" y="-61"/>
      <point x="333" y="-14"/>
      <point x="380" y="10" type="curve"/>
      <point x="455" y="10" type="line"/>
      <point x="414" y="-17"/>
      <point x="392" y="-57"/>
      <point x="392" y="-92" type="curve" smooth="yes"/>
      <point x="392" y="-120"/>
      <point x="409" y="-138"/>
      <point x="438" y="-138" type="curve" smooth="yes"/>
      <point x="455" y="-138"/>
      <point x="473" y="-134"/>
      <point x="492" y="-125" type="curve"/>
      <point x="492" y="-191" type="line"/>
      <point x="471" y="-202"/>
      <point x="447" y="-208"/>
    </contour>
  </outline>
</glyph>
<glyph name="wcircumflex" format="1">
  <advance width="778"/>
  <unicode hex="0175"/>
  <outline>
    <contour>
      <point x="780" y="528" type="line"/>
      <point x="641" y="0" type="line"/>
      <point x="496" y="0" type="line"/>
      <point x="412" y="322" type="line" smooth="yes"/>
      <point x="408" y="337"/>
      <point x="400" y="373"/>
      <point x="389" y="431" type="curve"/>
      <point x="364" y="321" type="line"/>
      <point x="279" y="0" type="line"/>
      <point x="134" y="0" type="line"/>
      <point x="-3" y="528" type="line"/>
      <point x="126" y="528" type="line"/>
      <point x="213" y="125" type="line"/>
      <point x="220" y="161" type="line"/>
      <point x="232" y="218" type="line"/>
      <point x="315" y="528" type="line"/>
      <point x="462" y="528" type="line"/>
      <point x="543" y="218" type="line" smooth="yes"/>
      <point x="548" y="201"/>
      <point x="554" y="170"/>
      <point x="563" y="125" type="curve"/>
      <point x="577" y="189" type="line"/>
      <point x="653" y="528" type="line"/>
    </contour>
    <contour>
      <point x="447" y="747" type="line"/>
      <point x="569" y="591" type="line"/>
      <point x="569" y="578" type="line"/>
      <point x="492" y="578" type="line"/>
      <point x="393" y="671" type="line"/>
      <point x="391" y="671" type="line"/>
      <point x="288" y="578" type="line"/>
      <point x="209" y="578" type="line"/>
      <point x="209" y="591" type="line"/>
      <point x="335" y="747" type="line"/>
    </contour>
  </outline>
</glyph>
<glyph name="ycircumflex" format="1">
  <advance width="556"/>
  <unicode hex="0177"/>
  <outline>
    <contour>
      <point x="138" y="-208" type="curve" smooth="yes"/>
      <point x="105" y="-208"/>
      <point x="77" y="-206"/>
      <point x="52" y="-201" type="curve"/>
      <point x="52" y="-104" type="line"/>
      <point x="69" y="-106"/>
      <point x="85" y="-107"/>
      <point x="99" y="-107" type="curve" smooth="yes"/>
      <point x="159" y="-102"/>
      <point x="178" y="-95"/>
      <point x="217" y="5" type="curve"/>
      <point x="8" y="528" type="line"/>
      <point x="153" y="528" type="line"/>
      <point x="236" y="281" type="line" smooth="yes"/>
      <point x="249" y="246"/>
      <point x="265" y="191"/>
      <point x="285" y="118" type="curve"/>
      <point x="297" y="164" type="line"/>
      <point x="329" y="279" type="line"/>
      <point x="407" y="528" type="line"/>
      <point x="551" y="528" type="line"/>
      <point x="342" y="-28" type="line" smooth="yes"/>
      <point x="314" y="-95"/>
      <point x="285" y="-142"/>
      <point x="254" y="-168" type="curve" smooth="yes"/>
      <point x="224" y="-195"/>
      <point x="185" y="-208"/>
    </contour>
    <contour>
      <point x="341" y="747" type="line"/>
      <point x="463" y="591" type="line"/>
      <point x="463" y="578" type="line"/>
      <point x="386" y="578" type="line"/>
      <point x="287" y="671" type="line"/>
      <point x="285" y="671" type="line"/>
      <point x="182" y="578" type="line"/>
      <point x="104" y="578" type="line"/>
      <point x="104" y="591" type="line"/>
      <point x="229" y="747" type="line"/>
    </contour>
  </outline>
</glyph>
<glyph name="Zacute" format="1">
  <advance width="611"/>
  <unicode hex="0179"/>
  <outline>
    <contour>
      <point x="582" y="113" type="line"/>
      <point x="582" y="0" type="line"/>
      <point x="30" y="0" type="line"/>
      <point x="30" y="102" type="line"/>
      <point x="402" y="575" type="line"/>
      <point x="67" y="575" type="line"/>
      <point x="67" y="688" type="line"/>
      <point x="562" y="688" type="line"/>
      <point x="562" y="588" type="line"/>
      <point x="190" y="113" type="line"/>
    </contour>
    <contour>
      <point x="314" y="747" type="line"/>
      <point x="231" y="747" type="line"/>
      <point x="231" y="762" type="line"/>
      <point x="354" y="886" type="line"/>
      <point x="480" y="886" type="line"/>
      <point x="480" y="865" type="line"/>
    </contour>
  </outline>
</glyph>
<glyph name="zacute" format="1">
  <advance width="500"/>
  <unicode hex="017A"/>
  <outline>
    <contour>
      <point x="464" y="0" type="line"/>
      <point x="40" y="0" type="line"/>
      <point x="40" y="97" type="line"/>
      <point x="289" y="429" type="line"/>
      <point x="60" y="429" type="line"/>
      <point x="60" y="528" type="line"/>
      <point x="440" y="528" type="line"/>
      <point x="440" y="430" type="line"/>
      <point x="193" y="100" type="line"/>
      <point x="464" y="100" type="line"/>
    </contour>
    <contour>
      <point x="247" y="578" type="line"/>
      <point x="164" y="578" type="line"/>
      <point x="164" y="593" type="line"/>
      <point x="287" y="733" type="line"/>
      <point x="413" y="733" type="line"/>
      <point x="413" y="712" type="line"/>
    </contour>
  </outline>
</glyph>
<glyph name="zdotaccent" format="1">
  <advance width="500"/>
  <unicode hex="017C"/>
  <outline>
    <contour>
      <point x="464" y="0" type="line"/>
      <point x="40" y="0" type="line"/>
      <point x="40" y="97" type="line"/>
      <point x="289" y="429" type="line"/>
      <point x="60" y="429" type="line"/>
      <point x="60" y="528" type="line"/>
      <point x="440" y="528" type="line"/>
      <point x="440" y="430" type="line"/>
      <point x="193" y="100" type="line"/>
      <point x="464" y="100" type="line"/>
    </contour>
    <contour>
      <point x="327" y="624" type="line"/>
      <point x="190" y="624" type="line"/>
      <point x="190" y="725" type="line"/>
      <point x="327" y="725" type="line"/>
    </contour>
  </outline>
</glyph>
<glyph name="uni0180" format="1">
  <advance width="611"/>
  <unicode hex="0180"/>
  <outline>
    <contour>
      <point x="5" y="574" type="line"/>
      <point x="5" y="657" type="line"/>
      <point x="70" y="657" type="line"/>
      <point x="70" y="725" type="line"/>
      <point x="207" y="725" type="line"/>
      <point x="207" y="657" type="line"/>
      <point x="358" y="657" type="line"/>
      <point x="358" y="574" type="line"/>
      <point x="207" y="574" type="line"/>
      <point x="207" y="503" type="line"/>
      <point x="205" y="417" type="line"/>
      <point x="207" y="417" type="line"/>
      <point x="238" y="485"/>
      <point x="294" y="519"/>
      <point x="376" y="519" type="curve" smooth="yes"/>
      <point x="503" y="519"/>
      <point x="570" y="427"/>
      <point x="570" y="256" type="curve" smooth="yes"/>
      <point x="570" y="84"/>
      <point x="499" y="-10"/>
      <point x="367" y="-10" type="curve" smooth="yes"/>
      <point x="292" y="-10"/>
      <point x="235" y="25"/>
      <point x="207" y="85" type="curve"/>
      <point x="206" y="85" type="line"/>
      <point x="206" y="74"/>
      <point x="205" y="58"/>
      <point x="204" y="38" type="curve" smooth="yes"/>
      <point x="203" y="18"/>
      <point x="201" y="5"/>
      <point x="199" y="0" type="curve"/>
      <point x="66" y="0" type="line"/>
      <point x="69" y="30"/>
      <point x="70" y="70"/>
      <point x="70" y="121" type="curve" smooth="yes"/>
      <point x="70" y="574" type="line"/>
    </contour>
    <contour>
      <point x="427" y="256" type="curve" smooth="yes"/>
      <point x="427" y="372"/>
      <point x="394" y="423"/>
      <point x="319" y="423" type="curve" smooth="yes"/>
      <point x="240" y="423"/>
      <point x="205" y="364"/>
      <point x="205" y="252" type="curve" smooth="yes"/>
      <point x="205" y="143"/>
      <point x="239" y="84"/>
      <point x="318" y="84" type="curve" smooth="yes"/>
      <point x="394" y="84"/>
      <point x="427" y="139"/>
    </contour>
  </outline>
</glyph>
<glyph name="uni0181" format="1">
  <advance width="836"/>
  <unicode hex="0181"/>
  <outline>
    <contour>
      <point x="163" y="688" type="curve" smooth="yes"/>
      <point x="498" y="688" type="line" smooth="yes"/>
      <point x="666" y="688"/>
      <point x="753" y="628"/>
      <point x="753" y="515" type="curve" smooth="yes"/>
      <point x="753" y="438"/>
      <point x="710" y="381"/>
      <point x="622" y="362" type="curve"/>
      <point x="733" y="349"/>
      <point x="792" y="291"/>
      <point x="792" y="196" type="curve" smooth="yes"/>
      <point x="792" y="72"/>
      <point x="694" y="0"/>
      <point x="527" y="0" type="curve" smooth="yes"/>
      <point x="183" y="0" type="line"/>
      <point x="183" y="583" type="line"/>
      <point x="169" y="583" type="line" smooth="yes"/>
      <point x="126" y="583"/>
      <point x="104" y="565"/>
      <point x="104" y="530" type="curve" smooth="yes"/>
      <point x="104" y="513"/>
      <point x="109" y="491"/>
      <point x="119" y="464" type="curve"/>
      <point x="15" y="456" type="line"/>
      <point x="5" y="490"/>
      <point x="0" y="523"/>
      <point x="0" y="554" type="curve" smooth="yes"/>
      <point x="0" y="637"/>
      <point x="64" y="688"/>
    </contour>
    <contour>
      <point x="648" y="208" type="curve" smooth="yes"/>
      <point x="648" y="272"/>
      <point x="602" y="304"/>
      <point x="509" y="304" type="curve" smooth="yes"/>
      <point x="327" y="304" type="line"/>
      <point x="327" y="107" type="line"/>
      <point x="515" y="107" type="line" smooth="yes"/>
      <point x="606" y="107"/>
      <point x="648" y="140"/>
    </contour>
    <contour>
      <point x="608" y="496" type="curve" smooth="yes"/>
      <point x="608" y="557"/>
      <point x="567" y="581"/>
      <point x="491" y="581" type="curve" smooth="yes"/>
      <point x="327" y="581" type="line"/>
      <point x="327" y="411" type="line"/>
      <point x="492" y="411" type="line" smooth="yes"/>
      <point x="573" y="411"/>
      <point x="608" y="439"/>
    </contour>
  </outline>
</glyph>
<glyph name="uni0183" format="1">
  <advance width="611"/>
  <unicode hex="0183"/>
  <outline>
    <contour>
      <point x="570" y="256" type="curve" smooth="yes"/>
      <point x="570" y="88"/>
      <point x="495" y="-10"/>
      <point x="367" y="-10" type="curve" smooth="yes"/>
      <point x="292" y="-10"/>
      <point x="235" y="25"/>
      <point x="207" y="85" type="curve"/>
      <point x="206" y="85" type="line"/>
      <point x="206" y="74"/>
      <point x="205" y="58"/>
      <point x="204" y="38" type="curve" smooth="yes"/>
      <point x="203" y="18"/>
      <point x="201" y="5"/>
      <point x="199" y="0" type="curve"/>
      <point x="66" y="0" type="line"/>
      <point x="69" y="30"/>
      <point x="70" y="70"/>
      <point x="70" y="121" type="curve" smooth="yes"/>
      <point x="70" y="725" type="line"/>
      <point x="432" y="725" type="line"/>
      <point x="432" y="621" type="line"/>
      <point x="207" y="621" type="line"/>
      <point x="207" y="503" type="line"/>
      <point x="205" y="417" type="line"/>
      <point x="207" y="417" type="line"/>
      <point x="238" y="485"/>
      <point x="294" y="519"/>
      <point x="376" y="519" type="curve" smooth="yes"/>
      <point x="499" y="519"/>
      <point x="570" y="423"/>
    </contour>
    <contour>
      <point x="427" y="256" type="curve" smooth="yes"/>
      <point x="427" y="367"/>
      <point x="391" y="423"/>
      <point x="319" y="423" type="curve" smooth="yes"/>
      <point x="247" y="423"/>
      <point x="205" y="363"/>
      <point x="205" y="252" type="curve" smooth="yes"/>
      <point x="205" y="145"/>
      <point x="245" y="84"/>
      <point x="318" y="84" type="curve" smooth="yes"/>
      <point x="391" y="84"/>
      <point x="427" y="141"/>
    </contour>
  </outline>
</glyph>
<glyph name="uni0184" format="1">
  <advance width="719"/>
  <unicode hex="0184"/>
  <outline>
    <contour>
      <point x="679" y="210" type="curve" smooth="yes"/>
      <point x="679" y="86"/>
      <point x="584" y="0"/>
      <point x="424" y="0" type="curve" smooth="yes"/>
      <point x="67" y="0" type="line"/>
      <point x="67" y="490" type="line"/>
      <point x="0" y="560" type="line"/>
      <point x="0" y="577" type="line"/>
      <point x="174" y="688" type="line"/>
      <point x="211" y="688" type="line"/>
      <point x="211" y="411" type="line"/>
      <point x="440" y="411" type="line" smooth="yes"/>
      <point x="595" y="411"/>
      <point x="679" y="338"/>
    </contour>
    <contour>
      <point x="533" y="208" type="curve" smooth="yes"/>
      <point x="533" y="268"/>
      <point x="487" y="304"/>
      <point x="398" y="304" type="curve" smooth="yes"/>
      <point x="211" y="304" type="line"/>
      <point x="211" y="107" type="line"/>
      <point x="401" y="107" type="line" smooth="yes"/>
      <point x="489" y="107"/>
      <point x="533" y="141"/>
    </contour>
  </outline>
</glyph>
<glyph name="uni0188" format="1">
  <advance width="556"/>
  <unicode hex="0188"/>
  <outline>
    <contour>
      <point x="523" y="362" type="line"/>
      <point x="385" y="355" type="line"/>
      <point x="377" y="410"/>
      <point x="346" y="444"/>
      <point x="289" y="444" type="curve" smooth="yes"/>
      <point x="218" y="444"/>
      <point x="183" y="385"/>
      <point x="183" y="267" type="curve" smooth="yes"/>
      <point x="183" y="145"/>
      <point x="219" y="84"/>
      <point x="291" y="84" type="curve" smooth="yes"/>
      <point x="343" y="84"/>
      <point x="381" y="117"/>
      <point x="389" y="182" type="curve"/>
      <point x="527" y="176" type="line"/>
      <point x="513" y="67"/>
      <point x="420" y="-10"/>
      <point x="290" y="-10" type="curve" smooth="yes"/>
      <point x="130" y="-10"/>
      <point x="39" y="90"/>
      <point x="39" y="261" type="curve" smooth="yes"/>
      <point x="39" y="436"/>
      <point x="131" y="538"/>
      <point x="292" y="538" type="curve" smooth="yes"/>
      <point x="330" y="538"/>
      <point x="365" y="532"/>
      <point x="396" y="520" type="curve"/>
      <point x="401" y="604"/>
      <point x="454" y="648"/>
      <point x="546" y="648" type="curve" smooth="yes"/>
      <point x="571" y="648"/>
      <point x="596" y="645"/>
      <point x="621" y="640" type="curve"/>
      <point x="621" y="542" type="line"/>
      <point x="602" y="546"/>
      <point x="587" y="548"/>
      <point x="578" y="548" type="curve" smooth="yes"/>
      <point x="539" y="548"/>
      <point x="523" y="526"/>
      <point x="523" y="479" type="curve" smooth="yes"/>
    </contour>
  </outline>
</glyph>
<glyph name="uni0189" format="1">
  <advance width="722"/>
  <unicode hex="0189"/>
  <outline>
    <contour>
      <point x="680" y="349" type="curve" smooth="yes"/>
      <point x="683" y="137"/>
      <point x="543" y="-3"/>
      <point x="345" y="0" type="curve" smooth="yes"/>
      <point x="67" y="0" type="line"/>
      <point x="67" y="290" type="line"/>
      <point x="4" y="290" type="line"/>
      <point x="4" y="397" type="line"/>
      <point x="67" y="397" type="line"/>
      <point x="67" y="688" type="line"/>
      <point x="316" y="688" type="line" smooth="yes"/>
      <point x="548" y="688"/>
      <point x="680" y="568"/>
    </contour>
    <contour>
      <point x="535" y="349" type="curve" smooth="yes"/>
      <point x="535" y="496"/>
      <point x="457" y="575"/>
      <point x="313" y="575" type="curve" smooth="yes"/>
      <point x="211" y="575" type="line"/>
      <point x="211" y="397" type="line"/>
      <point x="385" y="397" type="line"/>
      <point x="385" y="290" type="line"/>
      <point x="211" y="290" type="line"/>
      <point x="211" y="113" type="line"/>
      <point x="333" y="113" type="line" smooth="yes"/>
      <point x="457" y="113"/>
      <point x="535" y="202"/>
    </contour>
  </outline>
</glyph>
<glyph name="uni018C" format="1">
  <advance width="611"/>
  <unicode hex="018C"/>
  <outline>
    <contour>
      <point x="41" y="256" type="curve" smooth="yes"/>
      <point x="41" y="423"/>
      <point x="112" y="519"/>
      <point x="235" y="519" type="curve" smooth="yes"/>
      <point x="316" y="519"/>
      <point x="373" y="485"/>
      <point x="404" y="417" type="curve"/>
      <point x="406" y="417" type="line"/>
      <point x="404" y="503" type="line"/>
      <point x="404" y="621" type="line"/>
      <point x="179" y="621" type="line"/>
      <point x="179" y="725" type="line"/>
      <point x="541" y="725" type="line"/>
      <point x="541" y="121" type="line" smooth="yes"/>
      <point x="541" y="70"/>
      <point x="542" y="30"/>
      <point x="545" y="0" type="curve"/>
      <point x="412" y="0" type="line"/>
      <point x="410" y="5"/>
      <point x="408" y="18"/>
      <point x="407" y="37" type="curve" smooth="yes"/>
      <point x="406" y="57"/>
      <point x="405" y="73"/>
      <point x="405" y="85" type="curve"/>
      <point x="404" y="85" type="line"/>
      <point x="373" y="24"/>
      <point x="319" y="-10"/>
      <point x="244" y="-10" type="curve" smooth="yes"/>
      <point x="116" y="-10"/>
      <point x="41" y="88"/>
    </contour>
    <contour>
      <point x="184" y="256" type="curve" smooth="yes"/>
      <point x="184" y="141"/>
      <point x="220" y="84"/>
      <point x="293" y="84" type="curve" smooth="yes"/>
      <point x="366" y="84"/>
      <point x="406" y="147"/>
      <point x="406" y="252" type="curve" smooth="yes"/>
      <point x="406" y="361"/>
      <point x="365" y="423"/>
      <point x="292" y="423" type="curve" smooth="yes"/>
      <point x="220" y="423"/>
      <point x="184" y="367"/>
    </contour>
  </outline>
</glyph>
<glyph name="uni018F" format="1">
  <advance width="726"/>
  <unicode hex="018F"/>
  <outline>
    <contour>
      <point x="362" y="101" type="curve" smooth="yes"/>
      <point x="466" y="101"/>
      <point x="527" y="171"/>
      <point x="535" y="299" type="curve"/>
      <point x="188" y="299" type="line"/>
      <point x="196" y="172"/>
      <point x="261" y="101"/>
    </contour>
    <contour>
      <point x="208" y="487" type="curve"/>
      <point x="79" y="522" type="line"/>
      <point x="122" y="639"/>
      <point x="216" y="698"/>
      <point x="363" y="698" type="curve" smooth="yes"/>
      <point x="464" y="698"/>
      <point x="542" y="667"/>
      <point x="599" y="605" type="curve" smooth="yes"/>
      <point x="656" y="543"/>
      <point x="685" y="457"/>
      <point x="685" y="347" type="curve" smooth="yes"/>
      <point x="685" y="129"/>
      <point x="560" y="-10"/>
      <point x="362" y="-10" type="curve" smooth="yes"/>
      <point x="162" y="-10"/>
      <point x="41" y="126"/>
      <point x="41" y="347" type="curve" smooth="yes"/>
      <point x="41" y="372"/>
      <point x="42" y="394"/>
      <point x="45" y="414" type="curve"/>
      <point x="533" y="414" type="line"/>
      <point x="520" y="523"/>
      <point x="463" y="588"/>
      <point x="362" y="588" type="curve" smooth="yes"/>
      <point x="283" y="588"/>
      <point x="236" y="556"/>
    </contour>
  </outline>
</glyph>
<glyph name="uni0190" format="1">
  <advance width="626"/>
  <unicode hex="0190"/>
  <outline>
    <contour>
      <point x="310" y="-10" type="curve" smooth="yes"/>
      <point x="145" y="-10"/>
      <point x="46" y="70"/>
      <point x="46" y="195" type="curve" smooth="yes"/>
      <point x="46" y="282"/>
      <point x="104" y="341"/>
      <point x="200" y="354" type="curve"/>
      <point x="109" y="377"/>
      <point x="63" y="430"/>
      <point x="63" y="513" type="curve" smooth="yes"/>
      <point x="63" y="568"/>
      <point x="86" y="612"/>
      <point x="131" y="646" type="curve" smooth="yes"/>
      <point x="177" y="681"/>
      <point x="238" y="698"/>
      <point x="313" y="698" type="curve" smooth="yes"/>
      <point x="454" y="698"/>
      <point x="542" y="637"/>
      <point x="586" y="506" type="curve"/>
      <point x="456" y="476" type="line"/>
      <point x="432" y="553"/>
      <point x="385" y="592"/>
      <point x="315" y="592" type="curve" smooth="yes"/>
      <point x="246" y="592"/>
      <point x="203" y="560"/>
      <point x="203" y="500" type="curve" smooth="yes"/>
      <point x="203" y="436"/>
      <point x="248" y="405"/>
      <point x="347" y="405" type="curve" smooth="yes"/>
      <point x="375" y="405" type="line"/>
      <point x="375" y="294" type="line"/>
      <point x="347" y="294" type="line" smooth="yes"/>
      <point x="236" y="294"/>
      <point x="187" y="266"/>
      <point x="187" y="201" type="curve" smooth="yes"/>
      <point x="187" y="138"/>
      <point x="231" y="102"/>
      <point x="315" y="102" type="curve" smooth="yes"/>
      <point x="392" y="102"/>
      <point x="445" y="143"/>
      <point x="475" y="225" type="curve"/>
      <point x="604" y="180" type="line"/>
      <point x="560" y="51"/>
      <point x="465" y="-10"/>
    </contour>
  </outline>
</glyph>
<glyph name="florin" format="1">
  <advance width="556"/>
  <unicode hex="0192"/>
  <outline>
    <contour>
      <point x="504" y="695" type="curve"/>
      <point x="485" y="609" type="line"/>
      <point x="474" y="612"/>
      <point x="450" y="617"/>
      <point x="435" y="617" type="curve" smooth="yes"/>
      <point x="392" y="617"/>
      <point x="377" y="595"/>
      <point x="370" y="555" type="curve" smooth="yes"/>
      <point x="360" y="503" type="line"/>
      <point x="463" y="503" type="line"/>
      <point x="446" y="410" type="line"/>
      <point x="342" y="410" type="line"/>
      <point x="219" y="-208" type="line"/>
      <point x="82" y="-208" type="line"/>
      <point x="205" y="410" type="line"/>
      <point x="127" y="410" type="line"/>
      <point x="146" y="503" type="line"/>
      <point x="223" y="503" type="line"/>
      <point x="236" y="569" type="line" smooth="yes"/>
      <point x="253" y="665"/>
      <point x="311" y="710"/>
      <point x="416" y="710" type="curve" smooth="yes"/>
      <point x="443" y="710"/>
      <point x="483" y="704"/>
    </contour>
  </outline>
</glyph>
<glyph name="uni0195" format="1">
  <advance width="931"/>
  <unicode hex="0195"/>
  <outline>
    <contour>
      <point x="642" y="-10" type="curve" smooth="yes"/>
      <point x="485" y="-10"/>
      <point x="412" y="64"/>
      <point x="412" y="223" type="curve" smooth="yes"/>
      <point x="412" y="296" type="line" smooth="yes"/>
      <point x="412" y="389"/>
      <point x="381" y="435"/>
      <point x="318" y="435" type="curve" smooth="yes"/>
      <point x="251" y="435"/>
      <point x="207" y="372"/>
      <point x="207" y="283" type="curve" smooth="yes"/>
      <point x="207" y="0" type="line"/>
      <point x="70" y="0" type="line"/>
      <point x="70" y="725" type="line"/>
      <point x="207" y="725" type="line"/>
      <point x="207" y="527" type="line" smooth="yes"/>
      <point x="207" y="492"/>
      <point x="206" y="457"/>
      <point x="203" y="423" type="curve"/>
      <point x="205" y="423" type="line"/>
      <point x="242" y="503"/>
      <point x="298" y="538"/>
      <point x="375" y="538" type="curve" smooth="yes"/>
      <point x="487" y="538"/>
      <point x="549" y="468"/>
      <point x="549" y="335" type="curve" smooth="yes"/>
      <point x="549" y="219" type="line" smooth="yes"/>
      <point x="549" y="132"/>
      <point x="579" y="93"/>
      <point x="642" y="93" type="curve" smooth="yes"/>
      <point x="704" y="93"/>
      <point x="735" y="135"/>
      <point x="735" y="219" type="curve" smooth="yes"/>
      <point x="735" y="528" type="line"/>
      <point x="872" y="528" type="line"/>
      <point x="872" y="223" type="line" smooth="yes"/>
      <point x="872" y="68"/>
      <point x="795" y="-10"/>
    </contour>
  </outline>
</glyph>
<glyph name="uni0198" format="1">
  <advance width="722"/>
  <unicode hex="0198"/>
  <outline>
    <contour>
      <point x="713" y="0" type="line"/>
      <point x="543" y="0" type="line"/>
      <point x="296" y="316" type="line"/>
      <point x="211" y="251" type="line"/>
      <point x="211" y="0" type="line"/>
      <point x="67" y="0" type="line"/>
      <point x="67" y="506" type="line" smooth="yes"/>
      <point x="67" y="634"/>
      <point x="121" y="698"/>
      <point x="229" y="698" type="curve" smooth="yes"/>
      <point x="252" y="698"/>
      <point x="279" y="695"/>
      <point x="308" y="688" type="curve"/>
      <point x="308" y="581" type="line"/>
      <point x="285" y="585"/>
      <point x="270" y="587"/>
      <point x="261" y="587" type="curve" smooth="yes"/>
      <point x="228" y="587"/>
      <point x="211" y="574"/>
      <point x="211" y="527" type="curve" smooth="yes"/>
      <point x="211" y="376" type="line"/>
      <point x="521" y="688" type="line"/>
      <point x="689" y="688" type="line"/>
      <point x="395" y="397" type="line"/>
    </contour>
  </outline>
</glyph>
<glyph name="uni019A" format="1">
  <advance width="278"/>
  <unicode hex="019A"/>
  <outline>
    <contour>
      <point x="10" y="312" type="line"/>
      <point x="10" y="403" type="line"/>
      <point x="70" y="403" type="line"/>
      <point x="70" y="725" type="line"/>
      <point x="207" y="725" type="line"/>
      <point x="207" y="403" type="line"/>
      <point x="268" y="403" type="line"/>
      <point x="268" y="312" type="line"/>
      <point x="207" y="312" type="line"/>
      <point x="207" y="0" type="line"/>
      <point x="70" y="0" type="line"/>
      <point x="70" y="312" type="line"/>
    </contour>
  </outline>
</glyph>
<glyph name="uni019D" format="1">
  <advance width="722"/>
  <unicode hex="019D"/>
  <outline>
    <contour>
      <point x="67" y="688" type="line"/>
      <point x="231" y="688" type="line"/>
      <point x="536" y="154" type="line"/>
      <point x="530" y="203"/>
      <point x="527" y="248"/>
      <point x="527" y="288" type="curve" smooth="yes"/>
      <point x="527" y="688" type="line"/>
      <point x="655" y="688" type="line"/>
      <point x="655" y="0" type="line"/>
      <point x="486" y="0" type="line"/>
      <point x="186" y="530" type="line"/>
      <point x="192" y="479"/>
      <point x="195" y="437"/>
      <point x="195" y="406" type="curve" smooth="yes"/>
      <point x="195" y="-25" type="line" smooth="yes"/>
      <point x="195" y="-156"/>
      <point x="152" y="-208"/>
      <point x="43" y="-208" type="curve" smooth="yes"/>
      <point x="19" y="-208"/>
      <point x="-8" y="-205"/>
      <point x="-37" y="-198" type="curve"/>
      <point x="-37" y="-85" type="line"/>
      <point x="-15" y="-90"/>
      <point x="0" y="-92"/>
      <point x="9" y="-92" type="curve" smooth="yes"/>
      <point x="52" y="-92"/>
      <point x="67" y="-67"/>
      <point x="67" y="-16" type="curve" smooth="yes"/>
    </contour>
  </outline>
</glyph>
<glyph name="uni01A3" format="1">
  <advance width="744"/>
  <unicode hex="01A3"/>
  <outline>
    <contour>
      <point x="468" y="428" type="line"/>
      <point x="468" y="33" type="line"/>
      <point x="427" y="5"/>
      <point x="365" y="-10"/>
      <point x="298" y="-10" type="curve" smooth="yes"/>
      <point x="137" y="-10"/>
      <point x="39" y="92"/>
      <point x="39" y="265" type="curve" smooth="yes"/>
      <point x="39" y="437"/>
      <point x="133" y="538"/>
      <point x="301" y="538" type="curve" smooth="yes"/>
      <point x="363" y="538"/>
      <point x="416" y="524"/>
      <point x="461" y="495" type="curve"/>
      <point x="636" y="538" type="line"/>
      <point x="673" y="538" type="line"/>
      <point x="673" y="-208" type="line"/>
      <point x="550" y="-208" type="line"/>
      <point x="550" y="428" type="line"/>
    </contour>
    <contour>
      <point x="298" y="84" type="curve" smooth="yes"/>
      <point x="313" y="84"/>
      <point x="328" y="86"/>
      <point x="342" y="90" type="curve"/>
      <point x="342" y="439" type="line"/>
      <point x="331" y="442"/>
      <point x="318" y="444"/>
      <point x="305" y="444" type="curve" smooth="yes"/>
      <point x="221" y="444"/>
      <point x="184" y="388"/>
      <point x="184" y="265" type="curve" smooth="yes"/>
      <point x="184" y="146"/>
      <point x="223" y="84"/>
    </contour>
  </outline>
</glyph>
<glyph name="uni01A5" format="1">
  <advance width="611"/>
  <unicode hex="01A5"/>
  <outline>
    <contour>
      <point x="570" y="267" type="curve" smooth="yes"/>
      <point x="570" y="90"/>
      <point x="496" y="-10"/>
      <point x="367" y="-10" type="curve" smooth="yes"/>
      <point x="292" y="-10"/>
      <point x="234" y="25"/>
      <point x="207" y="84" type="curve"/>
      <point x="204" y="84" type="line"/>
      <point x="206" y="74"/>
      <point x="207" y="44"/>
      <point x="207" y="-5" type="curve" smooth="yes"/>
      <point x="207" y="-208" type="line"/>
      <point x="70" y="-208" type="line"/>
      <point x="70" y="587" type="line" smooth="yes"/>
      <point x="70" y="676"/>
      <point x="130" y="729"/>
      <point x="231" y="729" type="curve" smooth="yes"/>
      <point x="247" y="729"/>
      <point x="265" y="728"/>
      <point x="285" y="726" type="curve" smooth="yes"/>
      <point x="326" y="721" type="line"/>
      <point x="326" y="618" type="line"/>
      <point x="314" y="621"/>
      <point x="284" y="624"/>
      <point x="271" y="624" type="curve" smooth="yes"/>
      <point x="227" y="624"/>
      <point x="205" y="602"/>
      <point x="205" y="559" type="curve" smooth="yes"/>
      <point x="205" y="441" type="line"/>
      <point x="207" y="441" type="line"/>
      <point x="238" y="506"/>
      <point x="294" y="538"/>
      <point x="376" y="538" type="curve" smooth="yes"/>
      <point x="499" y="538"/>
      <point x="570" y="440"/>
    </contour>
    <contour>
      <point x="427" y="267" type="curve" smooth="yes"/>
      <point x="427" y="385"/>
      <point x="391" y="444"/>
      <point x="318" y="444" type="curve" smooth="yes"/>
      <point x="245" y="444"/>
      <point x="205" y="378"/>
      <point x="205" y="263" type="curve" smooth="yes"/>
      <point x="205" y="148"/>
      <point x="245" y="84"/>
      <point x="317" y="84" type="curve" smooth="yes"/>
      <point x="390" y="84"/>
      <point x="427" y="145"/>
    </contour>
  </outline>
</glyph>
<glyph name="uni01A7" format="1">
  <advance width="667"/>
  <unicode hex="01A7"/>
  <outline>
    <contour>
      <point x="39" y="198" type="curve" smooth="yes"/>
      <point x="39" y="358"/>
      <point x="172" y="383"/>
      <point x="300" y="411" type="curve" smooth="yes"/>
      <point x="355" y="423"/>
      <point x="392" y="433"/>
      <point x="410" y="441" type="curve" smooth="yes"/>
      <point x="447" y="457"/>
      <point x="466" y="478"/>
      <point x="466" y="514" type="curve" smooth="yes"/>
      <point x="466" y="569"/>
      <point x="422" y="596"/>
      <point x="335" y="596" type="curve" smooth="yes"/>
      <point x="252" y="596"/>
      <point x="212" y="566"/>
      <point x="197" y="507" type="curve"/>
      <point x="57" y="526" type="line"/>
      <point x="82" y="649"/>
      <point x="163" y="698"/>
      <point x="335" y="698" type="curve" smooth="yes"/>
      <point x="512" y="698"/>
      <point x="606" y="633"/>
      <point x="606" y="506" type="curve" smooth="yes"/>
      <point x="606" y="455"/>
      <point x="592" y="419"/>
      <point x="568" y="391" type="curve" smooth="yes"/>
      <point x="557" y="377"/>
      <point x="543" y="365"/>
      <point x="526" y="355" type="curve" smooth="yes"/>
      <point x="510" y="345"/>
      <point x="491" y="336"/>
      <point x="470" y="329" type="curve" smooth="yes"/>
      <point x="449" y="322"/>
      <point x="415" y="312"/>
      <point x="366" y="301" type="curve" smooth="yes"/>
      <point x="296" y="285" type="line" smooth="yes"/>
      <point x="217" y="266"/>
      <point x="179" y="237"/>
      <point x="179" y="190" type="curve" smooth="yes"/>
      <point x="179" y="129"/>
      <point x="229" y="98"/>
      <point x="330" y="98" type="curve" smooth="yes"/>
      <point x="427" y="98"/>
      <point x="480" y="129"/>
      <point x="499" y="202" type="curve"/>
      <point x="638" y="179" type="line"/>
      <point x="610" y="53"/>
      <point x="507" y="-10"/>
      <point x="330" y="-10" type="curve" smooth="yes"/>
      <point x="138" y="-10"/>
      <point x="39" y="63"/>
    </contour>
  </outline>
</glyph>
<glyph name="uni01A8" format="1">
  <advance width="556"/>
  <unicode hex="01A8"/>
  <outline>
    <contour>
      <point x="41" y="154" type="curve" smooth="yes"/>
      <point x="41" y="187"/>
      <point x="48" y="214"/>
      <point x="62" y="235" type="curve" smooth="yes"/>
      <point x="77" y="256"/>
      <point x="98" y="274"/>
      <point x="125" y="287" type="curve" smooth="yes"/>
      <point x="153" y="301"/>
      <point x="209" y="317"/>
      <point x="292" y="334" type="curve" smooth="yes"/>
      <point x="352" y="346"/>
      <point x="374" y="362"/>
      <point x="374" y="393" type="curve" smooth="yes"/>
      <point x="374" y="432"/>
      <point x="341" y="447"/>
      <point x="276" y="447" type="curve" smooth="yes"/>
      <point x="211" y="447"/>
      <point x="183" y="426"/>
      <point x="175" y="383" type="curve"/>
      <point x="53" y="396" type="line"/>
      <point x="72" y="488"/>
      <point x="152" y="539"/>
      <point x="279" y="539" type="curve" smooth="yes"/>
      <point x="420" y="539"/>
      <point x="500" y="481"/>
      <point x="500" y="378" type="curve" smooth="yes"/>
      <point x="500" y="347"/>
      <point x="493" y="321"/>
      <point x="478" y="300" type="curve" smooth="yes"/>
      <point x="463" y="279"/>
      <point x="442" y="261"/>
      <point x="413" y="248" type="curve" smooth="yes"/>
      <point x="385" y="235"/>
      <point x="334" y="222"/>
      <point x="261" y="207" type="curve" smooth="yes"/>
      <point x="192" y="194"/>
      <point x="167" y="175"/>
      <point x="167" y="142" type="curve" smooth="yes"/>
      <point x="167" y="99"/>
      <point x="201" y="81"/>
      <point x="277" y="81" type="curve" smooth="yes"/>
      <point x="360" y="81"/>
      <point x="387" y="99"/>
      <point x="400" y="150" type="curve"/>
      <point x="521" y="132" type="line"/>
      <point x="496" y="36"/>
      <point x="422" y="-10"/>
      <point x="275" y="-10" type="curve" smooth="yes"/>
      <point x="130" y="-10"/>
      <point x="41" y="51"/>
    </contour>
  </outline>
</glyph>
<glyph name="uni01AC" format="1">
  <advance width="611"/>
  <unicode hex="01AC"/>
  <outline>
    <contour>
      <point x="233" y="577" type="line"/>
      <point x="169" y="577" type="line" smooth="yes"/>
      <point x="126" y="577"/>
      <point x="104" y="561"/>
      <point x="104" y="530" type="curve" smooth="yes"/>
      <point x="104" y="513"/>
      <point x="109" y="491"/>
      <point x="119" y="464" type="curve"/>
      <point x="15" y="456" type="line"/>
      <point x="5" y="490"/>
      <point x="0" y="523"/>
      <point x="0" y="554" type="curve" smooth="yes"/>
      <point x="0" y="637"/>
      <point x="58" y="688"/>
      <point x="154" y="688" type="curve" smooth="yes"/>
      <point x="600" y="688" type="line"/>
      <point x="600" y="577" type="line"/>
      <point x="377" y="577" type="line"/>
      <point x="377" y="0" type="line"/>
      <point x="233" y="0" type="line"/>
    </contour>
  </outline>
</glyph>
<glyph name="uni01AD" format="1">
  <advance width="333"/>
  <unicode hex="01AD"/>
  <outline>
    <contour>
      <point x="205" y="-9" type="curve" smooth="yes"/>
      <point x="125" y="-9"/>
      <point x="79" y="35"/>
      <point x="79" y="124" type="curve" smooth="yes"/>
      <point x="79" y="436" type="line"/>
      <point x="12" y="436" type="line"/>
      <point x="12" y="528" type="line"/>
      <point x="78" y="528" type="line"/>
      <point x="78" y="587" type="line" smooth="yes"/>
      <point x="78" y="678"/>
      <point x="138" y="729"/>
      <point x="238" y="729" type="curve" smooth="yes"/>
      <point x="270" y="729"/>
      <point x="300" y="726"/>
      <point x="327" y="721" type="curve"/>
      <point x="327" y="623" type="line"/>
      <point x="315" y="626"/>
      <point x="286" y="628"/>
      <point x="271" y="628" type="curve" smooth="yes"/>
      <point x="232" y="628"/>
      <point x="215" y="605"/>
      <point x="215" y="560" type="curve" smooth="yes"/>
      <point x="215" y="528" type="line"/>
      <point x="315" y="528" type="line"/>
      <point x="315" y="436" type="line"/>
      <point x="215" y="436" type="line"/>
      <point x="215" y="161" type="line" smooth="yes"/>
      <point x="215" y="110"/>
      <point x="234" y="86"/>
      <point x="275" y="86" type="curve" smooth="yes"/>
      <point x="286" y="86"/>
      <point x="301" y="88"/>
      <point x="321" y="93" type="curve"/>
      <point x="321" y="8" type="line"/>
      <point x="287" y="-3"/>
      <point x="248" y="-9"/>
    </contour>
  </outline>
</glyph>
<glyph name="uni01B2" format="1">
  <advance width="722"/>
  <unicode hex="01B2"/>
  <outline>
    <contour>
      <point x="658" y="465" type="curve" smooth="yes"/>
      <point x="658" y="152"/>
      <point x="550" y="-10"/>
      <point x="333" y="-10" type="curve" smooth="yes"/>
      <point x="157" y="-10"/>
      <point x="60" y="83"/>
      <point x="60" y="258" type="curve" smooth="yes"/>
      <point x="60" y="688" type="line"/>
      <point x="204" y="688" type="line"/>
      <point x="204" y="269" type="line" smooth="yes"/>
      <point x="204" y="161"/>
      <point x="248" y="103"/>
      <point x="333" y="103" type="curve" smooth="yes"/>
      <point x="465" y="103"/>
      <point x="515" y="206"/>
      <point x="515" y="458" type="curve" smooth="yes"/>
      <point x="515" y="545"/>
      <point x="487" y="586"/>
      <point x="427" y="586" type="curve" smooth="yes"/>
      <point x="413" y="586"/>
      <point x="395" y="584"/>
      <point x="373" y="580" type="curve"/>
      <point x="373" y="688" type="line"/>
      <point x="402" y="694"/>
      <point x="440" y="697"/>
      <point x="486" y="697" type="curve" smooth="yes"/>
      <point x="598" y="697"/>
      <point x="658" y="617"/>
    </contour>
  </outline>
</glyph>
<glyph name="uni01B4" format="1">
  <advance width="556"/>
  <unicode hex="01B4"/>
  <outline>
    <contour>
      <point x="577" y="729" type="curve" smooth="yes"/>
      <point x="618" y="729"/>
      <point x="658" y="717"/>
      <point x="697" y="693" type="curve"/>
      <point x="650" y="597" type="line"/>
      <point x="632" y="609"/>
      <point x="614" y="615"/>
      <point x="597" y="615" type="curve" smooth="yes"/>
      <point x="568" y="615"/>
      <point x="553" y="594"/>
      <point x="542" y="563" type="curve" smooth="yes"/>
      <point x="342" y="-28" type="line" smooth="yes"/>
      <point x="317" y="-95"/>
      <point x="288" y="-141"/>
      <point x="257" y="-168" type="curve" smooth="yes"/>
      <point x="226" y="-195"/>
      <point x="187" y="-208"/>
      <point x="138" y="-208" type="curve" smooth="yes"/>
      <point x="105" y="-208"/>
      <point x="77" y="-206"/>
      <point x="52" y="-201" type="curve"/>
      <point x="52" y="-104" type="line"/>
      <point x="69" y="-106"/>
      <point x="85" y="-107"/>
      <point x="99" y="-107" type="curve" smooth="yes"/>
      <point x="156" y="-107"/>
      <point x="184" y="-83"/>
      <point x="208" y="-18" type="curve" smooth="yes"/>
      <point x="217" y="5" type="line"/>
      <point x="8" y="528" type="line"/>
      <point x="153" y="528" type="line"/>
      <point x="236" y="281" type="line" smooth="yes"/>
      <point x="240" y="270"/>
      <point x="248" y="243"/>
      <point x="261" y="201" type="curve" smooth="yes"/>
      <point x="274" y="159"/>
      <point x="282" y="131"/>
      <point x="285" y="118" type="curve"/>
      <point x="290" y="136" type="line"/>
      <point x="329" y="279" type="line"/>
      <point x="432" y="600" type="line" smooth="yes"/>
      <point x="460" y="691"/>
      <point x="509" y="729"/>
    </contour>
  </outline>
</glyph>
<glyph name="uni01B5" format="1">
  <advance width="611"/>
  <unicode hex="01B5"/>
  <outline>
    <contour>
      <point x="25" y="312" type="line"/>
      <point x="25" y="408" type="line"/>
      <point x="270" y="408" type="line"/>
      <point x="402" y="575" type="line"/>
      <point x="67" y="575" type="line"/>
      <point x="67" y="688" type="line"/>
      <point x="562" y="688" type="line"/>
      <point x="562" y="588" type="line"/>
      <point x="421" y="408" type="line"/>
      <point x="565" y="408" type="line"/>
      <point x="565" y="312" type="line"/>
      <point x="345" y="312" type="line"/>
      <point x="190" y="113" type="line"/>
      <point x="582" y="113" type="line"/>
      <point x="582" y="0" type="line"/>
      <point x="30" y="0" type="line"/>
      <point x="30" y="102" type="line"/>
      <point x="194" y="312" type="line"/>
    </contour>
  </outline>
</glyph>
<glyph name="uni01B6" format="1">
  <advance width="500"/>
  <unicode hex="01B6"/>
  <outline>
    <contour>
      <point x="31" y="223" type="line"/>
      <point x="31" y="309" type="line"/>
      <point x="201" y="309" type="line"/>
      <point x="297" y="429" type="line"/>
      <point x="53" y="429" type="line"/>
      <point x="53" y="528" type="line"/>
      <point x="448" y="528" type="line"/>
      <point x="448" y="430" type="line"/>
      <point x="349" y="309" type="line"/>
      <point x="455" y="309" type="line"/>
      <point x="455" y="223" type="line"/>
      <point x="283" y="223" type="line"/>
      <point x="186" y="100" type="line"/>
      <point x="472" y="100" type="line"/>
      <point x="472" y="0" type="line"/>
      <point x="33" y="0" type="line"/>
      <point x="33" y="97" type="line"/>
      <point x="138" y="223" type="line"/>
    </contour>
  </outline>
</glyph>
<glyph name="uni01B7" format="1">
  <advance width="611"/>
  <unicode hex="01B7"/>
  <outline>
    <contour>
      <point x="290" y="-212" type="curve" smooth="yes"/>
      <point x="150" y="-212"/>
      <point x="61" y="-154"/>
      <point x="13" y="-29" type="curve"/>
      <point x="139" y="21" type="line"/>
      <point x="174" y="-64"/>
      <point x="218" y="-99"/>
      <point x="285" y="-99" type="curve" smooth="yes"/>
      <point x="381" y="-99"/>
      <point x="435" y="-34"/>
      <point x="435" y="85" type="curve" smooth="yes"/>
      <point x="435" y="196"/>
      <point x="367" y="256"/>
      <point x="238" y="256" type="curve" smooth="yes"/>
      <point x="175" y="256" type="line"/>
      <point x="175" y="369" type="line"/>
      <point x="379" y="575" type="line"/>
      <point x="42" y="575" type="line"/>
      <point x="42" y="688" type="line"/>
      <point x="555" y="688" type="line"/>
      <point x="555" y="588" type="line"/>
      <point x="323" y="360" type="line"/>
      <point x="482" y="352"/>
      <point x="576" y="252"/>
      <point x="576" y="91" type="curve" smooth="yes"/>
      <point x="576" y="-93"/>
      <point x="463" y="-212"/>
    </contour>
  </outline>
</glyph>
<glyph name="uni01B9" format="1">
  <advance width="526"/>
  <unicode hex="01B9"/>
  <outline>
    <contour>
      <point x="278" y="-118" type="curve" smooth="yes"/>
      <point x="334" y="-118"/>
      <point x="374" y="-88"/>
      <point x="381" y="-20" type="curve"/>
      <point x="517" y="-26" type="line"/>
      <point x="501" y="-145"/>
      <point x="412" y="-212"/>
      <point x="277" y="-212" type="curve" smooth="yes"/>
      <point x="198" y="-212"/>
      <point x="135" y="-191"/>
      <point x="89" y="-148" type="curve" smooth="yes"/>
      <point x="43" y="-105"/>
      <point x="20" y="-48"/>
      <point x="20" y="25" type="curve" smooth="yes"/>
      <point x="20" y="156"/>
      <point x="95" y="238"/>
      <point x="227" y="250" type="curve"/>
      <point x="49" y="433" type="line"/>
      <point x="49" y="528" type="line"/>
      <point x="489" y="528" type="line"/>
      <point x="489" y="429" type="line"/>
      <point x="213" y="429" type="line"/>
      <point x="377" y="255" type="line"/>
      <point x="377" y="163" type="line"/>
      <point x="328" y="163" type="line" smooth="yes"/>
      <point x="208" y="163"/>
      <point x="159" y="117"/>
      <point x="159" y="17" type="curve" smooth="yes"/>
      <point x="159" y="-73"/>
      <point x="199" y="-118"/>
    </contour>
  </outline>
</glyph>
<glyph name="uni01BA" format="1">
  <advance width="526"/>
  <unicode hex="01BA"/>
  <outline>
    <contour>
      <point x="374" y="-30" type="curve"/>
      <point x="507" y="-48" type="line"/>
      <point x="486" y="-151"/>
      <point x="387" y="-212"/>
      <point x="246" y="-212" type="curve" smooth="yes"/>
      <point x="119" y="-212"/>
      <point x="27" y="-154"/>
      <point x="27" y="-56" type="curve" smooth="yes"/>
      <point x="27" y="-28"/>
      <point x="35" y="-4"/>
      <point x="50" y="17" type="curve" smooth="yes"/>
      <point x="66" y="38"/>
      <point x="88" y="54"/>
      <point x="117" y="67" type="curve" smooth="yes"/>
      <point x="146" y="80"/>
      <point x="191" y="94"/>
      <point x="252" y="108" type="curve" smooth="yes"/>
      <point x="324" y="124"/>
      <point x="356" y="142"/>
      <point x="356" y="171" type="curve" smooth="yes"/>
      <point x="356" y="186"/>
      <point x="352" y="197"/>
      <point x="344" y="204" type="curve" smooth="yes"/>
      <point x="336" y="212"/>
      <point x="323" y="218"/>
      <point x="306" y="221" type="curve" smooth="yes"/>
      <point x="289" y="224"/>
      <point x="253" y="226"/>
      <point x="199" y="226" type="curve" smooth="yes"/>
      <point x="149" y="226" type="line"/>
      <point x="149" y="296" type="line"/>
      <point x="297" y="429" type="line"/>
      <point x="34" y="429" type="line"/>
      <point x="34" y="528" type="line"/>
      <point x="475" y="528" type="line"/>
      <point x="475" y="449" type="line"/>
      <point x="306" y="305" type="line"/>
      <point x="441" y="301"/>
      <point x="496" y="260"/>
      <point x="496" y="169" type="curve" smooth="yes"/>
      <point x="496" y="142"/>
      <point x="489" y="119"/>
      <point x="474" y="100" type="curve" smooth="yes"/>
      <point x="459" y="81"/>
      <point x="438" y="64"/>
      <point x="409" y="50" type="curve" smooth="yes"/>
      <point x="380" y="37"/>
      <point x="332" y="22"/>
      <point x="265" y="6" type="curve" smooth="yes"/>
      <point x="189" y="-13"/>
      <point x="158" y="-31"/>
      <point x="158" y="-58" type="curve" smooth="yes"/>
      <point x="158" y="-94"/>
      <point x="196" y="-118"/>
      <point x="261" y="-118" type="curve" smooth="yes"/>
      <point x="325" y="-118"/>
      <point x="366" y="-87"/>
    </contour>
  </outline>
</glyph>
<glyph name="uni01BD" format="1">
  <advance width="497"/>
  <unicode hex="01BD"/>
  <outline>
    <contour>
      <point x="15" y="429" type="line"/>
      <point x="15" y="528" type="line"/>
      <point x="431" y="528" type="line"/>
      <point x="431" y="429" type="line"/>
      <point x="212" y="429" type="line"/>
      <point x="212" y="339" type="line"/>
      <point x="237" y="339" type="line" smooth="yes"/>
      <point x="386" y="339"/>
      <point x="461" y="281"/>
      <point x="461" y="164" type="curve" smooth="yes"/>
      <point x="461" y="53"/>
      <point x="381" y="-10"/>
      <point x="237" y="-10" type="curve" smooth="yes"/>
      <point x="116" y="-10"/>
      <point x="33" y="49"/>
      <point x="8" y="153" type="curve"/>
      <point x="141" y="162" type="line"/>
      <point x="152" y="109"/>
      <point x="185" y="84"/>
      <point x="242" y="84" type="curve" smooth="yes"/>
      <point x="301" y="84"/>
      <point x="330" y="108"/>
      <point x="330" y="164" type="curve" smooth="yes"/>
      <point x="330" y="224"/>
      <point x="297" y="249"/>
      <point x="218" y="249" type="curve" smooth="yes"/>
      <point x="92" y="249" type="line"/>
      <point x="92" y="429" type="line"/>
    </contour>
  </outline>
</glyph>
<glyph name="uni01C0" format="1">
  <advance width="280"/>
  <unicode hex="01C0"/>
  <outline>
    <contour>
      <point x="200" y="0" type="line"/>
      <point x="80" y="0" type="line"/>
      <point x="80" y="725" type="line"/>
      <point x="200" y="725" type="line"/>
    </contour>
  </outline>
</glyph>
<glyph name="uni01C3" format="1">
  <advance width="333"/>
  <unicode hex="01C3"/>
  <outline>
    <contour>
      <point x="238" y="688" type="line"/>
      <point x="222" y="208" type="line"/>
      <point x="110" y="208" type="line"/>
      <point x="94" y="688" type="line"/>
    </contour>
    <contour>
      <point x="235" y="0" type="line"/>
      <point x="94" y="0" type="line"/>
      <point x="94" y="132" type="line"/>
      <point x="235" y="132" type="line"/>
    </contour>
  </outline>
</glyph>
<glyph name="uni01CC" format="1">
  <advance width="889"/>
  <unicode hex="01CC"/>
  <outline>
    <contour>
      <point x="549" y="0" type="line"/>
      <point x="412" y="0" type="line"/>
      <point x="412" y="296" type="line" smooth="yes"/>
      <point x="412" y="389"/>
      <point x="381" y="436"/>
      <point x="318" y="436" type="curve" smooth="yes"/>
      <point x="251" y="436"/>
      <point x="207" y="372"/>
      <point x="207" y="283" type="curve" smooth="yes"/>
      <point x="207" y="0" type="line"/>
      <point x="70" y="0" type="line"/>
      <point x="70" y="410" type="line" smooth="yes"/>
      <point x="70" y="467"/>
      <point x="67" y="500"/>
      <point x="66" y="528" type="curve"/>
      <point x="197" y="528" type="line"/>
      <point x="198" y="522"/>
      <point x="199" y="505"/>
      <point x="200" y="478" type="curve" smooth="yes"/>
      <point x="202" y="451"/>
      <point x="203" y="433"/>
      <point x="203" y="423" type="curve"/>
      <point x="205" y="423" type="line"/>
      <point x="242" y="504"/>
      <point x="298" y="539"/>
      <point x="375" y="539" type="curve" smooth="yes"/>
      <point x="487" y="539"/>
      <point x="549" y="468"/>
      <point x="549" y="335" type="curve" smooth="yes"/>
    </contour>
    <contour>
      <point x="818" y="624" type="line"/>
      <point x="681" y="624" type="line"/>
      <point x="681" y="725" type="line"/>
      <point x="818" y="725" type="line"/>
    </contour>
    <contour>
      <point x="678" y="-208" type="curve" smooth="yes"/>
      <point x="645" y="-208"/>
      <point x="618" y="-206"/>
      <point x="595" y="-203" type="curve"/>
      <point x="595" y="-106" type="line"/>
      <point x="620" y="-108" type="line" smooth="yes"/>
      <point x="667" y="-108"/>
      <point x="681" y="-94"/>
      <point x="681" y="-29" type="curve" smooth="yes"/>
      <point x="681" y="528" type="line"/>
      <point x="818" y="528" type="line"/>
      <point x="818" y="-63" type="line" smooth="yes"/>
      <point x="818" y="-155"/>
      <point x="771" y="-208"/>
    </contour>
  </outline>
</glyph>
<glyph name="uni01CF" format="1">
  <advance width="278"/>
  <unicode hex="01CF"/>
  <outline>
    <contour>
      <point x="211" y="0" type="line"/>
      <point x="67" y="0" type="line"/>
      <point x="67" y="688" type="line"/>
      <point x="211" y="688" type="line"/>
    </contour>
    <contour>
      <point x="318" y="882" type="line"/>
      <point x="196" y="747" type="line"/>
      <point x="84" y="747" type="line"/>
      <point x="-42" y="882" type="line"/>
      <point x="-42" y="896" type="line"/>
      <point x="37" y="896" type="line"/>
      <point x="140" y="822" type="line"/>
      <point x="142" y="822" type="line"/>
      <point x="241" y="896" type="line"/>
      <point x="318" y="896" type="line"/>
    </contour>
  </outline>
</glyph>
<glyph name="uni01D3" format="1">
  <advance width="722"/>
  <unicode hex="01D3"/>
  <outline>
    <contour>
      <point x="353" y="-10" type="curve" smooth="yes"/>
      <point x="164" y="-10"/>
      <point x="60" y="86"/>
      <point x="60" y="258" type="curve" smooth="yes"/>
      <point x="60" y="688" type="line"/>
      <point x="204" y="688" type="line"/>
      <point x="204" y="269" type="line" smooth="yes"/>
      <point x="204" y="161"/>
      <point x="257" y="103"/>
      <point x="357" y="103" type="curve" smooth="yes"/>
      <point x="460" y="103"/>
      <point x="517" y="163"/>
      <point x="517" y="274" type="curve" smooth="yes"/>
      <point x="517" y="688" type="line"/>
      <point x="661" y="688" type="line"/>
      <point x="661" y="265" type="line" smooth="yes"/>
      <point x="661" y="90"/>
      <point x="549" y="-10"/>
    </contour>
    <contour>
      <point x="539" y="882" type="line"/>
      <point x="417" y="747" type="line"/>
      <point x="305" y="747" type="line"/>
      <point x="179" y="882" type="line"/>
      <point x="179" y="896" type="line"/>
      <point x="257" y="896" type="line"/>
      <point x="360" y="822" type="line"/>
      <point x="362" y="822" type="line"/>
      <point x="461" y="896" type="line"/>
      <point x="539" y="896" type="line"/>
    </contour>
  </outline>
</glyph>
<glyph name="uni01D7" format="1">
  <advance width="722"/>
  <unicode hex="01D7"/>
  <outline>
    <contour>
      <point x="353" y="-10" type="curve" smooth="yes"/>
      <point x="164" y="-10"/>
      <point x="60" y="86"/>
      <point x="60" y="258" type="curve" smooth="yes"/>
      <point x="60" y="688" type="line"/>
      <point x="204" y="688" type="line"/>
      <point x="204" y="269" type="line" smooth="yes"/>
      <point x="204" y="161"/>
      <point x="257" y="103"/>
      <point x="357" y="103" type="curve" smooth="yes"/>
      <point x="460" y="103"/>
      <point x="517" y="163"/>
      <point x="517" y="274" type="curve" smooth="yes"/>
      <point x="517" y="688" type="line"/>
      <point x="661" y="688" type="line"/>
      <point x="661" y="265" type="line" smooth="yes"/>
      <point x="661" y="90"/>
      <point x="549" y="-10"/>
    </contour>
    <contour>
      <point x="375" y="896" type="line"/>
      <point x="496" y="896" type="line"/>
      <point x="496" y="888" type="line"/>
      <point x="383" y="813" type="line"/>
      <point x="310" y="813" type="line"/>
      <point x="310" y="820" type="line"/>
    </contour>
    <contour>
      <point x="491" y="790" type="line"/>
      <point x="491" y="716" type="line"/>
      <point x="413" y="716" type="line"/>
      <point x="413" y="790" type="line"/>
    </contour>
    <contour>
      <point x="312" y="790" type="line"/>
      <point x="312" y="716" type="line"/>
      <point x="234" y="716" type="line"/>
      <point x="234" y="790" type="line"/>
    </contour>
  </outline>
</glyph>
<glyph name="uni01DA" format="1">
  <advance width="611"/>
  <unicode hex="01DA"/>
  <outline>
    <contour>
      <point x="62" y="528" type="line"/>
      <point x="199" y="528" type="line"/>
      <point x="199" y="232" type="line" smooth="yes"/>
      <point x="199" y="139"/>
      <point x="230" y="93"/>
      <point x="293" y="93" type="curve" smooth="yes"/>
      <point x="360" y="93"/>
      <point x="404" y="156"/>
      <point x="404" y="245" type="curve" smooth="yes"/>
      <point x="404" y="528" type="line"/>
      <point x="541" y="528" type="line"/>
      <point x="541" y="118" type="line" smooth="yes"/>
      <point x="541" y="73"/>
      <point x="542" y="34"/>
      <point x="545" y="0" type="curve"/>
      <point x="414" y="0" type="line"/>
      <point x="410" y="47"/>
      <point x="408" y="82"/>
      <point x="408" y="105" type="curve"/>
      <point x="406" y="105" type="line"/>
      <point x="369" y="25"/>
      <point x="313" y="-10"/>
      <point x="236" y="-10" type="curve" smooth="yes"/>
      <point x="124" y="-10"/>
      <point x="62" y="60"/>
      <point x="62" y="193" type="curve" smooth="yes"/>
    </contour>
    <contour>
      <point x="462" y="585" type="line"/>
      <point x="356" y="585" type="line"/>
      <point x="356" y="692" type="line"/>
      <point x="462" y="692" type="line"/>
    </contour>
    <contour>
      <point x="249" y="585" type="line"/>
      <point x="145" y="585" type="line"/>
      <point x="145" y="692" type="line"/>
      <point x="249" y="692" type="line"/>
    </contour>
    <contour>
      <point x="478" y="868" type="line"/>
      <point x="356" y="733" type="line"/>
      <point x="244" y="733" type="line"/>
      <point x="118" y="868" type="line"/>
      <point x="118" y="882" type="line"/>
      <point x="196" y="882" type="line"/>
      <point x="299" y="808" type="line"/>
      <point x="301" y="808" type="line"/>
      <point x="400" y="882" type="line"/>
      <point x="478" y="882" type="line"/>
    </contour>
  </outline>
</glyph>
<glyph name="uni01E2" format="1">
  <advance width="1000"/>
  <unicode hex="01E2"/>
  <outline>
    <contour>
      <point x="961" y="0" type="line"/>
      <point x="455" y="0" type="line"/>
      <point x="455" y="176" type="line"/>
      <point x="235" y="176" type="line"/>
      <point x="151" y="0" type="line"/>
      <point x="2" y="0" type="line"/>
      <point x="344" y="688" type="line"/>
      <point x="941" y="688" type="line"/>
      <point x="941" y="577" type="line"/>
      <point x="599" y="577" type="line"/>
      <point x="599" y="404" type="line"/>
      <point x="911" y="404" type="line"/>
      <point x="911" y="296" type="line"/>
      <point x="599" y="296" type="line"/>
      <point x="599" y="111" type="line"/>
      <point x="961" y="111" type="line"/>
    </contour>
    <contour>
      <point x="455" y="284" type="line"/>
      <point x="455" y="582" type="line"/>
      <point x="425" y="582" type="line"/>
      <point x="409" y="546"/>
      <point x="362" y="447"/>
      <point x="285" y="284" type="curve"/>
    </contour>
    <contour>
      <point x="486" y="745" type="line"/>
      <point x="486" y="827" type="line"/>
      <point x="785" y="827" type="line"/>
      <point x="785" y="745" type="line"/>
    </contour>
  </outline>
</glyph>
<glyph name="uni01EA" format="1">
  <advance width="778"/>
  <unicode hex="01EA"/>
  <outline>
    <contour>
      <point x="736" y="347" type="curve" smooth="yes"/>
      <point x="738" y="133"/>
      <point x="599" y="-13"/>
      <point x="387" y="-10" type="curve" smooth="yes"/>
      <point x="279" y="-10"/>
      <point x="194" y="22"/>
      <point x="133" y="85" type="curve" smooth="yes"/>
      <point x="72" y="149"/>
      <point x="41" y="236"/>
      <point x="41" y="347" type="curve" smooth="yes"/>
      <point x="41" y="458"/>
      <point x="72" y="544"/>
      <point x="133" y="605" type="curve" smooth="yes"/>
      <point x="194" y="667"/>
      <point x="279" y="698"/>
      <point x="388" y="698" type="curve" smooth="yes"/>
      <point x="497" y="698"/>
      <point x="583" y="667"/>
      <point x="644" y="604" type="curve" smooth="yes"/>
      <point x="705" y="542"/>
      <point x="736" y="456"/>
    </contour>
    <contour>
      <point x="589" y="347" type="curve" smooth="yes"/>
      <point x="589" y="495"/>
      <point x="515" y="585"/>
      <point x="388" y="585" type="curve" smooth="yes"/>
      <point x="260" y="585"/>
      <point x="186" y="496"/>
      <point x="186" y="347" type="curve" smooth="yes"/>
      <point x="186" y="196"/>
      <point x="263" y="104"/>
      <point x="387" y="104" type="curve" smooth="yes"/>
      <point x="516" y="104"/>
      <point x="589" y="191"/>
    </contour>
    <contour>
      <point x="473" y="-208" type="curve" smooth="yes"/>
      <point x="400" y="-208"/>
      <point x="357" y="-170"/>
      <point x="357" y="-110" type="curve" smooth="yes"/>
      <point x="357" y="-61"/>
      <point x="387" y="-14"/>
      <point x="434" y="10" type="curve"/>
      <point x="509" y="10" type="line"/>
      <point x="468" y="-17"/>
      <point x="446" y="-57"/>
      <point x="446" y="-92" type="curve" smooth="yes"/>
      <point x="446" y="-120"/>
      <point x="463" y="-138"/>
      <point x="492" y="-138" type="curve" smooth="yes"/>
      <point x="509" y="-138"/>
      <point x="527" y="-134"/>
      <point x="546" y="-125" type="curve"/>
      <point x="546" y="-191" type="line"/>
      <point x="526" y="-202"/>
      <point x="502" y="-208"/>
    </contour>
  </outline>
</glyph>
<glyph name="uni01EB" format="1">
  <advance width="611"/>
  <unicode hex="01EB"/>
  <outline>
    <contour>
      <point x="572" y="265" type="curve" smooth="yes"/>
      <point x="572" y="93"/>
      <point x="471" y="-10"/>
      <point x="303" y="-10" type="curve" smooth="yes"/>
      <point x="221" y="-10"/>
      <point x="156" y="14"/>
      <point x="109" y="63" type="curve" smooth="yes"/>
      <point x="62" y="112"/>
      <point x="39" y="180"/>
      <point x="39" y="265" type="curve" smooth="yes"/>
      <point x="39" y="434"/>
      <point x="138" y="538"/>
      <point x="306" y="538" type="curve" smooth="yes"/>
      <point x="479" y="538"/>
      <point x="572" y="441"/>
    </contour>
    <contour>
      <point x="428" y="265" type="curve" smooth="yes"/>
      <point x="428" y="390"/>
      <point x="387" y="444"/>
      <point x="308" y="444" type="curve" smooth="yes"/>
      <point x="225" y="444"/>
      <point x="183" y="384"/>
      <point x="183" y="265" type="curve" smooth="yes"/>
      <point x="183" y="146"/>
      <point x="225" y="84"/>
      <point x="302" y="84" type="curve" smooth="yes"/>
      <point x="386" y="84"/>
      <point x="428" y="144"/>
    </contour>
    <contour>
      <point x="382" y="-208" type="curve" smooth="yes"/>
      <point x="310" y="-208"/>
      <point x="267" y="-170"/>
      <point x="267" y="-110" type="curve" smooth="yes"/>
      <point x="267" y="-61"/>
      <point x="297" y="-14"/>
      <point x="344" y="10" type="curve"/>
      <point x="418" y="10" type="line"/>
      <point x="378" y="-17"/>
      <point x="355" y="-57"/>
      <point x="355" y="-92" type="curve" smooth="yes"/>
      <point x="355" y="-120"/>
      <point x="372" y="-138"/>
      <point x="401" y="-138" type="curve" smooth="yes"/>
      <point x="419" y="-138"/>
      <point x="437" y="-134"/>
      <point x="456" y="-125" type="curve"/>
      <point x="456" y="-191" type="line"/>
      <point x="435" y="-202"/>
      <point x="411" y="-208"/>
    </contour>
  </outline>
</glyph>
<glyph name="uni01F3" format="1">
  <advance width="1111"/>
  <unicode hex="01F3"/>
  <outline>
    <contour>
      <point x="545" y="0" type="curve"/>
      <point x="412" y="0" type="line"/>
      <point x="411" y="5"/>
      <point x="409" y="17"/>
      <point x="407" y="36" type="curve" smooth="yes"/>
      <point x="406" y="56"/>
      <point x="405" y="73"/>
      <point x="405" y="86" type="curve"/>
      <point x="403" y="86" type="line"/>
      <point x="373" y="22"/>
      <point x="317" y="-10"/>
      <point x="234" y="-10" type="curve" smooth="yes"/>
      <point x="111" y="-10"/>
      <point x="41" y="91"/>
      <point x="41" y="264" type="curve" smooth="yes"/>
      <point x="41" y="439"/>
      <point x="115" y="538"/>
      <point x="244" y="538" type="curve" smooth="yes"/>
      <point x="319" y="538"/>
      <point x="375" y="506"/>
      <point x="404" y="445" type="curve"/>
      <point x="405" y="445" type="line"/>
      <point x="404" y="532" type="line"/>
      <point x="404" y="725" type="line"/>
      <point x="541" y="725" type="line"/>
      <point x="541" y="115" type="line" smooth="yes"/>
      <point x="541" y="82"/>
      <point x="542" y="44"/>
    </contour>
    <contour>
      <point x="406" y="267" type="curve" smooth="yes"/>
      <point x="406" y="382"/>
      <point x="368" y="445"/>
      <point x="293" y="445" type="curve" smooth="yes"/>
      <point x="220" y="445"/>
      <point x="184" y="385"/>
      <point x="184" y="264" type="curve" smooth="yes"/>
      <point x="184" y="144"/>
      <point x="220" y="84"/>
      <point x="292" y="84" type="curve" smooth="yes"/>
      <point x="364" y="84"/>
      <point x="406" y="150"/>
    </contour>
    <contour>
      <point x="1075" y="0" type="line"/>
      <point x="651" y="0" type="line"/>
      <point x="651" y="97" type="line"/>
      <point x="899" y="429" type="line"/>
      <point x="671" y="429" type="line"/>
      <point x="671" y="528" type="line"/>
      <point x="1051" y="528" type="line"/>
      <point x="1051" y="430" type="line"/>
      <point x="804" y="100" type="line"/>
      <point x="1075" y="100" type="line"/>
    </contour>
  </outline>
</glyph>
<glyph name="AEacute" format="1">
  <advance width="1000"/>
  <unicode hex="01FC"/>
  <outline>
    <contour>
      <point x="961" y="0" type="line"/>
      <point x="455" y="0" type="line"/>
      <point x="455" y="176" type="line"/>
      <point x="235" y="176" type="line"/>
      <point x="151" y="0" type="line"/>
      <point x="2" y="0" type="line"/>
      <point x="344" y="688" type="line"/>
      <point x="941" y="688" type="line"/>
      <point x="941" y="577" type="line"/>
      <point x="599" y="577" type="line"/>
      <point x="599" y="404" type="line"/>
      <point x="911" y="404" type="line"/>
      <point x="911" y="296" type="line"/>
      <point x="599" y="296" type="line"/>
      <point x="599" y="111" type="line"/>
      <point x="961" y="111" type="line"/>
    </contour>
    <contour>
      <point x="455" y="284" type="line"/>
      <point x="455" y="582" type="line"/>
      <point x="425" y="582" type="line"/>
      <point x="409" y="546"/>
      <point x="362" y="447"/>
      <point x="285" y="284" type="curve"/>
    </contour>
    <contour>
      <point x="612" y="747" type="line"/>
      <point x="529" y="747" type="line"/>
      <point x="529" y="762" type="line"/>
      <point x="652" y="886" type="line"/>
      <point x="778" y="886" type="line"/>
      <point x="778" y="865" type="line"/>
    </contour>
  </outline>
</glyph>
<glyph name="Oslashacute" format="1">
  <advance width="778"/>
  <unicode hex="01FE"/>
  <outline>
    <contour>
      <point x="167" y="-35" type="line"/>
      <point x="72" y="-36" type="line"/>
      <point x="147" y="71" type="line"/>
      <point x="76" y="135"/>
      <point x="41" y="227"/>
      <point x="41" y="347" type="curve" smooth="yes"/>
      <point x="41" y="458"/>
      <point x="72" y="544"/>
      <point x="133" y="605" type="curve" smooth="yes"/>
      <point x="194" y="667"/>
      <point x="279" y="698"/>
      <point x="388" y="698" type="curve" smooth="yes"/>
      <point x="453" y="698"/>
      <point x="510" y="686"/>
      <point x="561" y="662" type="curve"/>
      <point x="601" y="719" type="line"/>
      <point x="695" y="719" type="line"/>
      <point x="626" y="620" type="line"/>
      <point x="699" y="559"/>
      <point x="736" y="464"/>
      <point x="736" y="347" type="curve" smooth="yes"/>
      <point x="737" y="133"/>
      <point x="600" y="-13"/>
      <point x="387" y="-10" type="curve" smooth="yes"/>
      <point x="318" y="-10"/>
      <point x="260" y="3"/>
      <point x="211" y="28" type="curve"/>
    </contour>
    <contour>
      <point x="589" y="347" type="curve" smooth="yes"/>
      <point x="589" y="413"/>
      <point x="575" y="466"/>
      <point x="547" y="507" type="curve"/>
      <point x="283" y="130" type="line"/>
      <point x="313" y="112"/>
      <point x="348" y="103"/>
      <point x="387" y="103" type="curve" smooth="yes"/>
      <point x="516" y="103"/>
      <point x="589" y="191"/>
    </contour>
    <contour>
      <point x="186" y="347" type="curve" smooth="yes"/>
      <point x="186" y="280"/>
      <point x="200" y="226"/>
      <point x="227" y="185" type="curve"/>
      <point x="490" y="560" type="line"/>
      <point x="460" y="577"/>
      <point x="426" y="585"/>
      <point x="388" y="585" type="curve" smooth="yes"/>
      <point x="260" y="585"/>
      <point x="186" y="496"/>
    </contour>
    <contour>
      <point x="388" y="747" type="line"/>
      <point x="305" y="747" type="line"/>
      <point x="305" y="762" type="line"/>
      <point x="428" y="886" type="line"/>
      <point x="554" y="886" type="line"/>
      <point x="554" y="865" type="line"/>
    </contour>
  </outline>
</glyph>
<glyph name="oslashacute" format="1">
  <advance width="611"/>
  <unicode hex="01FF"/>
  <outline>
    <contour>
      <point x="572" y="265" type="curve" smooth="yes"/>
      <point x="572" y="93"/>
      <point x="471" y="-10"/>
      <point x="303" y="-10" type="curve" smooth="yes"/>
      <point x="240" y="-10"/>
      <point x="188" y="5"/>
      <point x="145" y="34" type="curve"/>
      <point x="90" y="-27" type="line"/>
      <point x="0" y="-27" type="line"/>
      <point x="97" y="78" type="line"/>
      <point x="58" y="125"/>
      <point x="39" y="188"/>
      <point x="39" y="265" type="curve" smooth="yes"/>
      <point x="39" y="434"/>
      <point x="138" y="538"/>
      <point x="306" y="538" type="curve" smooth="yes"/>
      <point x="371" y="538"/>
      <point x="424" y="525"/>
      <point x="467" y="498" type="curve"/>
      <point x="517" y="553" type="line"/>
      <point x="606" y="553" type="line"/>
      <point x="517" y="453" type="line"/>
      <point x="554" y="406"/>
      <point x="572" y="344"/>
    </contour>
    <contour>
      <point x="183" y="265" type="curve" smooth="yes"/>
      <point x="183" y="235"/>
      <point x="186" y="208"/>
      <point x="191" y="185" type="curve"/>
      <point x="390" y="410" type="line"/>
      <point x="371" y="433"/>
      <point x="343" y="444"/>
      <point x="308" y="444" type="curve" smooth="yes"/>
      <point x="225" y="444"/>
      <point x="183" y="384"/>
    </contour>
    <contour>
      <point x="428" y="265" type="curve" smooth="yes"/>
      <point x="428" y="296"/>
      <point x="425" y="322"/>
      <point x="420" y="344" type="curve"/>
      <point x="222" y="119" type="line"/>
      <point x="242" y="96"/>
      <point x="269" y="84"/>
      <point x="302" y="84" type="curve" smooth="yes"/>
      <point x="386" y="84"/>
      <point x="428" y="144"/>
    </contour>
    <contour>
      <point x="310" y="578" type="line"/>
      <point x="227" y="578" type="line"/>
      <point x="227" y="593" type="line"/>
      <point x="350" y="733" type="line"/>
      <point x="476" y="733" type="line"/>
      <point x="476" y="712" type="line"/>
    </contour>
  </outline>
</glyph>
<glyph name="uni0204" format="1">
  <advance width="667"/>
  <unicode hex="0204"/>
  <outline>
    <contour>
      <point x="628" y="0" type="line"/>
      <point x="67" y="0" type="line"/>
      <point x="67" y="688" type="line"/>
      <point x="608" y="688" type="line"/>
      <point x="608" y="577" type="line"/>
      <point x="211" y="577" type="line"/>
      <point x="211" y="404" type="line"/>
      <point x="578" y="404" type="line"/>
      <point x="578" y="292" type="line"/>
      <point x="211" y="292" type="line"/>
      <point x="211" y="111" type="line"/>
      <point x="628" y="111" type="line"/>
    </contour>
    <contour>
      <point x="433" y="747" type="line"/>
      <point x="277" y="873" type="line"/>
      <point x="277" y="894" type="line"/>
      <point x="392" y="894" type="line"/>
      <point x="502" y="764" type="line"/>
      <point x="502" y="747" type="line"/>
    </contour>
    <contour>
      <point x="234" y="747" type="line"/>
      <point x="79" y="873" type="line"/>
      <point x="79" y="894" type="line"/>
      <point x="194" y="894" type="line"/>
      <point x="304" y="764" type="line"/>
      <point x="304" y="747" type="line"/>
    </contour>
  </outline>
</glyph>
<glyph name="uni0208" format="1">
  <advance width="278"/>
  <unicode hex="0208"/>
  <outline>
    <contour>
      <point x="211" y="0" type="line"/>
      <point x="67" y="0" type="line"/>
      <point x="67" y="688" type="line"/>
      <point x="211" y="688" type="line"/>
    </contour>
    <contour>
      <point x="213" y="747" type="line"/>
      <point x="58" y="873" type="line"/>
      <point x="58" y="894" type="line"/>
      <point x="172" y="894" type="line"/>
      <point x="282" y="764" type="line"/>
      <point x="282" y="747" type="line"/>
    </contour>
    <contour>
      <point x="15" y="747" type="line"/>
      <point x="-141" y="873" type="line"/>
      <point x="-141" y="894" type="line"/>
      <point x="-26" y="894" type="line"/>
      <point x="84" y="764" type="line"/>
      <point x="84" y="747" type="line"/>
    </contour>
  </outline>
</glyph>
<glyph name="uni020E" format="1">
  <advance width="778"/>
  <unicode hex="020E"/>
  <outline>
    <contour>
      <point x="736" y="347" type="curve" smooth="yes"/>
      <point x="738" y="133"/>
      <point x="599" y="-13"/>
      <point x="387" y="-10" type="curve" smooth="yes"/>
      <point x="279" y="-10"/>
      <point x="194" y="22"/>
      <point x="133" y="85" type="curve" smooth="yes"/>
      <point x="72" y="149"/>
      <point x="41" y="236"/>
      <point x="41" y="347" type="curve" smooth="yes"/>
      <point x="41" y="458"/>
      <point x="72" y="544"/>
      <point x="133" y="605" type="curve" smooth="yes"/>
      <point x="194" y="667"/>
      <point x="279" y="698"/>
      <point x="388" y="698" type="curve" smooth="yes"/>
      <point x="497" y="698"/>
      <point x="583" y="667"/>
      <point x="644" y="604" type="curve" smooth="yes"/>
      <point x="705" y="542"/>
      <point x="736" y="456"/>
    </contour>
    <contour>
      <point x="589" y="347" type="curve" smooth="yes"/>
      <point x="589" y="495"/>
      <point x="515" y="585"/>
      <point x="388" y="585" type="curve" smooth="yes"/>
      <point x="260" y="585"/>
      <point x="186" y="496"/>
      <point x="186" y="347" type="curve" smooth="yes"/>
      <point x="186" y="196"/>
      <point x="263" y="104"/>
      <point x="387" y="104" type="curve" smooth="yes"/>
      <point x="516" y="104"/>
      <point x="589" y="191"/>
    </contour>
    <contour>
      <point x="388" y="823" type="curve" smooth="yes"/>
      <point x="343" y="823"/>
      <point x="307" y="796"/>
      <point x="298" y="747" type="curve"/>
      <point x="222" y="747" type="line"/>
      <point x="233" y="840"/>
      <point x="293" y="895"/>
      <point x="388" y="895" type="curve" smooth="yes"/>
      <point x="481" y="895"/>
      <point x="542" y="840"/>
      <point x="554" y="747" type="curve"/>
      <point x="477" y="747" type="line"/>
      <point x="468" y="796"/>
      <point x="432" y="823"/>
    </contour>
  </outline>
</glyph>
<glyph name="uni020F" format="1">
  <advance width="611"/>
  <unicode hex="020F"/>
  <outline>
    <contour>
      <point x="572" y="265" type="curve" smooth="yes"/>
      <point x="572" y="93"/>
      <point x="471" y="-10"/>
      <point x="303" y="-10" type="curve" smooth="yes"/>
      <point x="221" y="-10"/>
      <point x="156" y="14"/>
      <point x="109" y="63" type="curve" smooth="yes"/>
      <point x="62" y="112"/>
      <point x="39" y="180"/>
      <point x="39" y="265" type="curve" smooth="yes"/>
      <point x="39" y="434"/>
      <point x="138" y="538"/>
      <point x="306" y="538" type="curve" smooth="yes"/>
      <point x="479" y="538"/>
      <point x="572" y="441"/>
    </contour>
    <contour>
      <point x="428" y="265" type="curve" smooth="yes"/>
      <point x="428" y="390"/>
      <point x="387" y="444"/>
      <point x="308" y="444" type="curve" smooth="yes"/>
      <point x="225" y="444"/>
      <point x="183" y="384"/>
      <point x="183" y="265" type="curve" smooth="yes"/>
      <point x="183" y="146"/>
      <point x="225" y="84"/>
      <point x="302" y="84" type="curve" smooth="yes"/>
      <point x="386" y="84"/>
      <point x="428" y="144"/>
    </contour>
    <contour>
      <point x="307" y="656" type="curve" smooth="yes"/>
      <point x="263" y="656"/>
      <point x="227" y="629"/>
      <point x="218" y="580" type="curve"/>
      <point x="141" y="580" type="line"/>
      <point x="153" y="673"/>
      <point x="214" y="728"/>
      <point x="307" y="728" type="curve" smooth="yes"/>
      <point x="400" y="728"/>
      <point x="461" y="673"/>
      <point x="473" y="580" type="curve"/>
      <point x="396" y="580" type="line"/>
      <point x="388" y="629"/>
      <point x="352" y="656"/>
    </contour>
  </outline>
</glyph>
<glyph name="uni0213" format="1">
  <advance width="389"/>
  <unicode hex="0213"/>
  <outline>
    <contour>
      <point x="207" y="0" type="line"/>
      <point x="70" y="0" type="line"/>
      <point x="70" y="404" type="line" smooth="yes"/>
      <point x="70" y="463"/>
      <point x="67" y="499"/>
      <point x="66" y="528" type="curve"/>
      <point x="197" y="528" type="line"/>
      <point x="198" y="523"/>
      <point x="199" y="505"/>
      <point x="200" y="475" type="curve" smooth="yes"/>
      <point x="202" y="445"/>
      <point x="203" y="425"/>
      <point x="203" y="416" type="curve"/>
      <point x="205" y="416" type="line"/>
      <point x="218" y="453"/>
      <point x="230" y="479"/>
      <point x="240" y="494" type="curve" smooth="yes"/>
      <point x="261" y="525"/>
      <point x="288" y="539"/>
      <point x="332" y="539" type="curve" smooth="yes"/>
      <point x="349" y="539"/>
      <point x="363" y="536"/>
      <point x="374" y="531" type="curve"/>
      <point x="374" y="417" type="line"/>
      <point x="352" y="422"/>
      <point x="332" y="424"/>
      <point x="315" y="424" type="curve" smooth="yes"/>
      <point x="247" y="424"/>
      <point x="207" y="368"/>
      <point x="207" y="259" type="curve" smooth="yes"/>
    </contour>
    <contour>
      <point x="218" y="656" type="curve" smooth="yes"/>
      <point x="174" y="656"/>
      <point x="138" y="629"/>
      <point x="129" y="580" type="curve"/>
      <point x="52" y="580" type="line"/>
      <point x="64" y="673"/>
      <point x="125" y="728"/>
      <point x="218" y="728" type="curve" smooth="yes"/>
      <point x="313" y="728"/>
      <point x="372" y="673"/>
      <point x="384" y="580" type="curve"/>
      <point x="308" y="580" type="line"/>
      <point x="299" y="629"/>
      <point x="263" y="656"/>
    </contour>
  </outline>
</glyph>
<glyph name="uni021A" format="1">
  <advance width="611"/>
  <unicode hex="021A"/>
  <outline>
    <contour>
      <point x="600" y="577" type="line"/>
      <point x="377" y="577" type="line"/>
      <point x="377" y="0" type="line"/>
      <point x="233" y="0" type="line"/>
      <point x="233" y="577" type="line"/>
      <point x="11" y="577" type="line"/>
      <point x="11" y="688" type="line"/>
      <point x="600" y="688" type="line"/>
    </contour>
    <contour>
      <point x="363" y="-38" type="line"/>
      <point x="363" y="-100" type="line" smooth="yes"/>
      <point x="363" y="-147"/>
      <point x="350" y="-182"/>
      <point x="317" y="-222" type="curve"/>
      <point x="250" y="-222" type="line"/>
      <point x="281" y="-189"/>
      <point x="296" y="-162"/>
      <point x="296" y="-139" type="curve"/>
      <point x="244" y="-139" type="line"/>
      <point x="244" y="-38" type="line"/>
    </contour>
  </outline>
</glyph>
<glyph name="uni0220" format="1">
  <advance width="703"/>
  <unicode hex="0220"/>
  <outline>
    <contour>
      <point x="634" y="452" type="curve" smooth="yes"/>
      <point x="634" y="-208" type="line"/>
      <point x="492" y="-208" type="line"/>
      <point x="492" y="404" type="line" smooth="yes"/>
      <point x="491" y="542"/>
      <point x="454" y="580"/>
      <point x="360" y="585" type="curve" smooth="yes"/>
      <point x="304" y="585"/>
      <point x="254" y="564"/>
      <point x="210" y="522" type="curve"/>
      <point x="210" y="0" type="line"/>
      <point x="68" y="0" type="line"/>
      <point x="68" y="688" type="line"/>
      <point x="201" y="688" type="line"/>
      <point x="201" y="625" type="line"/>
      <point x="250" y="670"/>
      <point x="320" y="698"/>
      <point x="393" y="698" type="curve" smooth="yes"/>
      <point x="554" y="698"/>
      <point x="634" y="616"/>
    </contour>
  </outline>
</glyph>
<glyph name="uni0223" format="1">
  <advance width="631"/>
  <unicode hex="0223"/>
  <outline>
    <contour>
      <point x="313" y="-10" type="curve" smooth="yes"/>
      <point x="144" y="-10"/>
      <point x="41" y="70"/>
      <point x="41" y="201" type="curve" smooth="yes"/>
      <point x="41" y="293"/>
      <point x="88" y="358"/>
      <point x="173" y="375" type="curve"/>
      <point x="173" y="377" type="line"/>
      <point x="98" y="408"/>
      <point x="58" y="464"/>
      <point x="58" y="539" type="curve" smooth="yes"/>
      <point x="58" y="623"/>
      <point x="107" y="686"/>
      <point x="204" y="727" type="curve"/>
      <point x="255" y="653" type="line"/>
      <point x="211" y="616"/>
      <point x="198" y="589"/>
      <point x="198" y="541" type="curve" smooth="yes"/>
      <point x="198" y="458"/>
      <point x="240" y="424"/>
      <point x="315" y="424" type="curve" smooth="yes"/>
      <point x="388" y="424"/>
      <point x="428" y="458"/>
      <point x="428" y="541" type="curve" smooth="yes"/>
      <point x="428" y="588"/>
      <point x="415" y="617"/>
      <point x="371" y="653" type="curve"/>
      <point x="422" y="727" type="line"/>
      <point x="519" y="686"/>
      <point x="568" y="623"/>
      <point x="568" y="539" type="curve" smooth="yes"/>
      <point x="568" y="464"/>
      <point x="528" y="408"/>
      <point x="453" y="377" type="curve"/>
      <point x="453" y="375" type="line"/>
      <point x="538" y="358"/>
      <point x="585" y="293"/>
      <point x="585" y="201" type="curve" smooth="yes"/>
      <point x="585" y="70"/>
      <point x="481" y="-10"/>
    </contour>
    <contour>
      <point x="313" y="87" type="curve" smooth="yes"/>
      <point x="400" y="87"/>
      <point x="443" y="129"/>
      <point x="443" y="212" type="curve" smooth="yes"/>
      <point x="443" y="289"/>
      <point x="397" y="328"/>
      <point x="313" y="328" type="curve" smooth="yes"/>
      <point x="229" y="328"/>
      <point x="183" y="289"/>
      <point x="183" y="212" type="curve" smooth="yes"/>
      <point x="183" y="129"/>
      <point x="226" y="87"/>
    </contour>
  </outline>
</glyph>
<glyph name="uni0224" format="1">
  <advance width="611"/>
  <unicode hex="0224"/>
  <outline>
    <contour>
      <point x="190" y="113" type="line"/>
      <point x="429" y="113" type="line" smooth="yes"/>
      <point x="529" y="113"/>
      <point x="592" y="63"/>
      <point x="592" y="-22" type="curve" smooth="yes"/>
      <point x="592" y="-57"/>
      <point x="585" y="-94"/>
      <point x="572" y="-135" type="curve"/>
      <point x="461" y="-119" type="line"/>
      <point x="471" y="-92"/>
      <point x="476" y="-71"/>
      <point x="476" y="-54" type="curve" smooth="yes"/>
      <point x="476" y="-18"/>
      <point x="454" y="0"/>
      <point x="411" y="0" type="curve" smooth="yes"/>
      <point x="30" y="0" type="line"/>
      <point x="30" y="102" type="line"/>
      <point x="402" y="575" type="line"/>
      <point x="67" y="575" type="line"/>
      <point x="67" y="688" type="line"/>
      <point x="562" y="688" type="line"/>
      <point x="562" y="588" type="line"/>
    </contour>
  </outline>
</glyph>
<glyph name="uni0225" format="1">
  <advance width="500"/>
  <unicode hex="0225"/>
  <outline>
    <contour>
      <point x="310" y="0" type="curve" smooth="yes"/>
      <point x="33" y="0" type="line"/>
      <point x="33" y="97" type="line"/>
      <point x="297" y="429" type="line"/>
      <point x="53" y="429" type="line"/>
      <point x="53" y="528" type="line"/>
      <point x="448" y="528" type="line"/>
      <point x="448" y="430" type="line"/>
      <point x="186" y="100" type="line"/>
      <point x="322" y="100" type="line" smooth="yes"/>
      <point x="431" y="100"/>
      <point x="485" y="59"/>
      <point x="485" y="-22" type="curve" smooth="yes"/>
      <point x="485" y="-57"/>
      <point x="479" y="-94"/>
      <point x="468" y="-135" type="curve"/>
      <point x="360" y="-119" type="line"/>
      <point x="370" y="-92"/>
      <point x="375" y="-71"/>
      <point x="375" y="-54" type="curve" smooth="yes"/>
      <point x="375" y="-18"/>
      <point x="353" y="0"/>
    </contour>
  </outline>
</glyph>
<glyph name="uni022C" format="1">
  <advance width="778"/>
  <unicode hex="022C"/>
  <outline>
    <contour>
      <point x="736" y="347" type="curve" smooth="yes"/>
      <point x="738" y="133"/>
      <point x="599" y="-13"/>
      <point x="387" y="-10" type="curve" smooth="yes"/>
      <point x="279" y="-10"/>
      <point x="194" y="22"/>
      <point x="133" y="85" type="curve" smooth="yes"/>
      <point x="72" y="149"/>
      <point x="41" y="236"/>
      <point x="41" y="347" type="curve" smooth="yes"/>
      <point x="41" y="458"/>
      <point x="72" y="544"/>
      <point x="133" y="605" type="curve" smooth="yes"/>
      <point x="194" y="667"/>
      <point x="279" y="698"/>
      <point x="388" y="698" type="curve" smooth="yes"/>
      <point x="497" y="698"/>
      <point x="583" y="667"/>
      <point x="644" y="604" type="curve" smooth="yes"/>
      <point x="705" y="542"/>
      <point x="736" y="456"/>
    </contour>
    <contour>
      <point x="589" y="347" type="curve" smooth="yes"/>
      <point x="589" y="495"/>
      <point x="515" y="585"/>
      <point x="388" y="585" type="curve" smooth="yes"/>
      <point x="260" y="585"/>
      <point x="186" y="496"/>
      <point x="186" y="347" type="curve" smooth="yes"/>
      <point x="186" y="196"/>
      <point x="263" y="104"/>
      <point x="387" y="104" type="curve" smooth="yes"/>
      <point x="516" y="104"/>
      <point x="589" y="191"/>
    </contour>
    <contour>
      <point x="236" y="829" type="line"/>
      <point x="236" y="896" type="line"/>
      <point x="535" y="896" type="line"/>
      <point x="535" y="829" type="line"/>
    </contour>
    <contour>
      <point x="447" y="713" type="curve" smooth="yes"/>
      <point x="430" y="713"/>
      <point x="408" y="719"/>
      <point x="381" y="732" type="curve" smooth="yes"/>
      <point x="354" y="744"/>
      <point x="334" y="750"/>
      <point x="322" y="750" type="curve" smooth="yes"/>
      <point x="293" y="750"/>
      <point x="279" y="740"/>
      <point x="274" y="713" type="curve"/>
      <point x="230" y="713" type="line"/>
      <point x="241" y="790"/>
      <point x="262" y="803"/>
      <point x="324" y="808" type="curve" smooth="yes"/>
      <point x="342" y="808"/>
      <point x="365" y="802"/>
      <point x="392" y="790" type="curve" smooth="yes"/>
      <point x="419" y="777"/>
      <point x="438" y="771"/>
      <point x="449" y="771" type="curve" smooth="yes"/>
      <point x="480" y="771"/>
      <point x="492" y="784"/>
      <point x="496" y="808" type="curve"/>
      <point x="541" y="808" type="line"/>
      <point x="528" y="732"/>
      <point x="510" y="717"/>
    </contour>
  </outline>
</glyph>
<glyph name="uni0232" format="1">
  <advance width="667"/>
  <unicode hex="0232"/>
  <outline>
    <contour>
      <point x="651" y="688" type="line"/>
      <point x="406" y="282" type="line"/>
      <point x="406" y="0" type="line"/>
      <point x="262" y="0" type="line"/>
      <point x="262" y="282" type="line"/>
      <point x="17" y="688" type="line"/>
      <point x="168" y="688" type="line"/>
      <point x="333" y="397" type="line"/>
      <point x="500" y="688" type="line"/>
    </contour>
    <contour>
      <point x="184" y="745" type="line"/>
      <point x="184" y="827" type="line"/>
      <point x="483" y="827" type="line"/>
      <point x="483" y="745" type="line"/>
    </contour>
  </outline>
</glyph>
<glyph name="uni023D" format="1">
  <advance width="611"/>
  <unicode hex="023D"/>
  <outline>
    <contour>
      <point x="580" y="0" type="line"/>
      <point x="67" y="0" type="line"/>
      <point x="67" y="319" type="line"/>
      <point x="5" y="319" type="line"/>
      <point x="5" y="418" type="line"/>
      <point x="67" y="418" type="line"/>
      <point x="67" y="688" type="line"/>
      <point x="211" y="688" type="line"/>
      <point x="211" y="418" type="line"/>
      <point x="390" y="418" type="line"/>
      <point x="390" y="319" type="line"/>
      <point x="211" y="319" type="line"/>
      <point x="211" y="111" type="line"/>
      <point x="580" y="111" type="line"/>
    </contour>
  </outline>
</glyph>
<glyph name="uni023E" format="1">
  <advance width="611"/>
  <unicode hex="023E"/>
  <outline>
    <contour>
      <point x="600" y="577" type="line"/>
      <point x="499" y="577" type="line"/>
      <point x="377" y="393" type="line"/>
      <point x="377" y="0" type="line"/>
      <point x="233" y="0" type="line"/>
      <point x="233" y="175" type="line"/>
      <point x="100" y="-26" type="line"/>
      <point x="21" y="-26" type="line"/>
      <point x="233" y="295" type="line"/>
      <point x="233" y="577" type="line"/>
      <point x="11" y="577" type="line"/>
      <point x="11" y="688" type="line"/>
      <point x="493" y="688" type="line"/>
      <point x="518" y="725" type="line"/>
      <point x="597" y="725" type="line"/>
      <point x="573" y="688" type="line"/>
      <point x="600" y="688" type="line"/>
    </contour>
    <contour>
      <point x="377" y="577" type="line"/>
      <point x="377" y="513" type="line"/>
      <point x="419" y="577" type="line"/>
    </contour>
  </outline>
</glyph>
<glyph name="uni0240" format="1">
  <advance width="500"/>
  <unicode hex="0240"/>
  <outline>
    <contour>
      <point x="108" y="0" type="curve" smooth="yes"/>
      <point x="33" y="0" type="line"/>
      <point x="33" y="97" type="line"/>
      <point x="297" y="429" type="line"/>
      <point x="53" y="429" type="line"/>
      <point x="53" y="528" type="line"/>
      <point x="448" y="528" type="line"/>
      <point x="448" y="430" type="line"/>
      <point x="186" y="100" type="line"/>
      <point x="229" y="91"/>
      <point x="267" y="60"/>
      <point x="319" y="-8" type="curve" smooth="yes"/>
      <point x="368" y="-73"/>
      <point x="402" y="-98"/>
      <point x="439" y="-98" type="curve" smooth="yes"/>
      <point x="452" y="-98"/>
      <point x="468" y="-96"/>
      <point x="487" y="-92" type="curve"/>
      <point x="487" y="-199" type="line"/>
      <point x="458" y="-205"/>
      <point x="434" y="-208"/>
      <point x="413" y="-208" type="curve" smooth="yes"/>
      <point x="393" y="-208"/>
      <point x="375" y="-204"/>
      <point x="358" y="-197" type="curve" smooth="yes"/>
      <point x="341" y="-190"/>
      <point x="326" y="-181"/>
      <point x="311" y="-168" type="curve" smooth="yes"/>
      <point x="296" y="-156"/>
      <point x="276" y="-135"/>
      <point x="251" y="-104" type="curve" smooth="yes"/>
      <point x="221" y="-65" type="line" smooth="yes"/>
      <point x="185" y="-22"/>
      <point x="147" y="0"/>
    </contour>
  </outline>
</glyph>
<glyph name="uni0243" format="1">
  <advance width="722"/>
  <unicode hex="0243"/>
  <outline>
    <contour>
      <point x="0" y="158" type="line"/>
      <point x="0" y="254" type="line"/>
      <point x="67" y="254" type="line"/>
      <point x="67" y="688" type="line"/>
      <point x="382" y="688" type="line" smooth="yes"/>
      <point x="550" y="688"/>
      <point x="637" y="628"/>
      <point x="637" y="515" type="curve" smooth="yes"/>
      <point x="637" y="438"/>
      <point x="594" y="381"/>
      <point x="506" y="362" type="curve"/>
      <point x="617" y="349"/>
      <point x="677" y="291"/>
      <point x="677" y="196" type="curve" smooth="yes"/>
      <point x="677" y="72"/>
      <point x="578" y="0"/>
      <point x="411" y="0" type="curve" smooth="yes"/>
      <point x="67" y="0" type="line"/>
      <point x="67" y="158" type="line"/>
    </contour>
    <contour>
      <point x="532" y="208" type="curve" smooth="yes"/>
      <point x="532" y="272"/>
      <point x="485" y="307"/>
      <point x="394" y="307" type="curve" smooth="yes"/>
      <point x="211" y="307" type="line"/>
      <point x="211" y="254" type="line"/>
      <point x="339" y="254" type="line"/>
      <point x="339" y="158" type="line"/>
      <point x="211" y="158" type="line"/>
      <point x="211" y="104" type="line"/>
      <point x="399" y="104" type="line" smooth="yes"/>
      <point x="488" y="104"/>
      <point x="532" y="139"/>
    </contour>
    <contour>
      <point x="492" y="496" type="curve" smooth="yes"/>
      <point x="492" y="557"/>
      <point x="452" y="581"/>
      <point x="375" y="581" type="curve" smooth="yes"/>
      <point x="211" y="581" type="line"/>
      <point x="211" y="411" type="line"/>
      <point x="376" y="411" type="line" smooth="yes"/>
      <point x="457" y="411"/>
      <point x="492" y="439"/>
    </contour>
  </outline>
</glyph>
<glyph name="uni0246" format="1">
  <advance width="667"/>
  <unicode hex="0246"/>
  <outline>
    <contour>
      <point x="628" y="0" type="line"/>
      <point x="233" y="0" type="line"/>
      <point x="208" y="-54" type="line"/>
      <point x="128" y="-54" type="line"/>
      <point x="154" y="0" type="line"/>
      <point x="67" y="0" type="line"/>
      <point x="67" y="688" type="line"/>
      <point x="490" y="688" type="line"/>
      <point x="513" y="734" type="line"/>
      <point x="592" y="734" type="line"/>
      <point x="569" y="688" type="line"/>
      <point x="608" y="688" type="line"/>
      <point x="608" y="577" type="line"/>
      <point x="515" y="577" type="line"/>
      <point x="431" y="404" type="line"/>
      <point x="578" y="404" type="line"/>
      <point x="578" y="292" type="line"/>
      <point x="376" y="292" type="line"/>
      <point x="288" y="111" type="line"/>
      <point x="628" y="111" type="line"/>
    </contour>
    <contour>
      <point x="211" y="577" type="line"/>
      <point x="211" y="404" type="line"/>
      <point x="351" y="404" type="line"/>
      <point x="436" y="577" type="line"/>
    </contour>
    <contour>
      <point x="211" y="292" type="line"/>
      <point x="211" y="116" type="line"/>
      <point x="297" y="292" type="line"/>
    </contour>
  </outline>
</glyph>
<glyph name="uni0247" format="1">
  <advance width="556"/>
  <unicode hex="0247"/>
  <outline>
    <contour>
      <point x="286" y="-10" type="curve" smooth="yes"/>
      <point x="249" y="-10"/>
      <point x="216" y="-5"/>
      <point x="188" y="5" type="curve"/>
      <point x="84" y="-208" type="line"/>
      <point x="4" y="-208" type="line"/>
      <point x="125" y="40" type="line"/>
      <point x="68" y="87"/>
      <point x="39" y="162"/>
      <point x="39" y="267" type="curve" smooth="yes"/>
      <point x="39" y="440"/>
      <point x="129" y="538"/>
      <point x="288" y="538" type="curve" smooth="yes"/>
      <point x="315" y="538"/>
      <point x="340" y="535"/>
      <point x="363" y="528" type="curve"/>
      <point x="459" y="725" type="line"/>
      <point x="539" y="725" type="line"/>
      <point x="427" y="497" type="line"/>
      <point x="490" y="448"/>
      <point x="522" y="363"/>
      <point x="522" y="242" type="curve" smooth="yes"/>
      <point x="522" y="238" type="line"/>
      <point x="301" y="238" type="line"/>
      <point x="233" y="99" type="line"/>
      <point x="249" y="88"/>
      <point x="269" y="82"/>
      <point x="293" y="82" type="curve" smooth="yes"/>
      <point x="342" y="82"/>
      <point x="372" y="103"/>
      <point x="385" y="145" type="curve"/>
      <point x="514" y="134" type="line"/>
      <point x="477" y="38"/>
      <point x="397" y="-10"/>
    </contour>
    <contour>
      <point x="286" y="452" type="curve" smooth="yes"/>
      <point x="222" y="452"/>
      <point x="187" y="404"/>
      <point x="184" y="324" type="curve"/>
      <point x="264" y="324" type="line"/>
      <point x="323" y="445" type="line"/>
      <point x="311" y="450"/>
      <point x="299" y="452"/>
    </contour>
    <contour>
      <point x="343" y="324" type="line"/>
      <point x="389" y="324" type="line"/>
      <point x="387" y="350"/>
      <point x="382" y="372"/>
      <point x="375" y="390" type="curve"/>
    </contour>
    <contour>
      <point x="222" y="238" type="line"/>
      <point x="183" y="238" type="line"/>
      <point x="183" y="212"/>
      <point x="185" y="190"/>
      <point x="190" y="172" type="curve"/>
    </contour>
  </outline>
</glyph>
